<svg xmlns="http://www.w3.org/2000/svg" version="1.1" enable-background="new 0 0 1000 1000" width="18" height="37"><rect id="backgroundrect" width="100%" height="100%" x="0" y="0" fill="none" stroke="none" style="" class=""/>
  
  <g class="currentLayer" style="">
    <title transform="matrix(15.205769,0,0,15.205769,-32.830914,-27.646851) " stroke-width="0">Layer 1</title>
    <g id="svg_1" class="" stroke-width="0">
      <g id="svg_2" stroke-width="0">
        <path d="M12.245980769021548,30.62271105545458 C12.245980769021548,34.049144130303155 9.549940734886466,36.74518416443824 6.123507660037889,36.74518416443824 C2.697074585189316,36.74518416443824 5.0660419003287215e-12,34.049144130303155 5.0660419003287215e-12,30.62271105545458 C5.0660419003287215e-12,28.662236817278846 0.9735125372733363,26.823839602905075 2.446713231290357,25.723077286588985 L2.446713231290357,3.6767944287921495 C2.446713231290357,1.71632019061641 4.041990949109348,4.461421536047838e-11 6.123507660037889,4.461421536047838e-11 C8.205024370966433,4.461421536047838e-11 9.799267537736258,1.5952777178636068 9.799267537736258,3.6767944287921495 L9.799267537736258,25.729284592884003 C11.266260925458264,26.831081460249262 12.245980769021548,28.662236817278846 12.245980769021548,30.62271105545458 zM11.010726816313454,30.62271105545458 C11.010726816313454,28.78431384108082 10.036179727996014,27.19524342955684 8.564013585028164,26.337600609795526 L8.564013585028164,3.6767944287921495 C8.564013585028164,2.3318780648721167 7.4622167176629075,1.2300811975068597 6.117300353742875,1.2300811975068597 C4.771349438773674,1.2300811975068597 3.6705871224575857,2.3318780648721167 3.6705871224575857,3.6767944287921495 L3.6705871224575857,26.34380791609054 C2.2035937347355814,27.202485286901023 1.2238738911722962,28.79052114737583 1.2238738911722962,30.628918361749598 C1.2238738911722962,33.324958395884686 3.426433074853642,35.52855213061519 6.123507660037889,35.52855213061519 C8.819547694172972,35.52855213061519 11.023141428903488,33.31875108958967 11.010726816313454,30.62271105545458 zM16.016919343243487,2.6081031950003095 C16.299351779666697,2.7591476481790203 17.27700252113164,4.424774837341521 17.597713346374107,5.323799699069605 C17.880145782797317,6.103851190143224 17.663924613520944,6.936664784724474 17.020433860937665,7.507736963865904 C16.14830732648798,8.275373842349493 15.138585502498788,8.269166536054474 14.28611543798332,7.494287800226704 C13.550549642023977,6.81872596511918 13.393297882550252,6.0976438838482085 13.780219974939552,5.106543978744062 C14.023339471494328,4.489951553439186 14.967884579385858,2.877086467784315 15.20376221859645,2.6608652985079404 C15.400326917938608,2.490164375395013 15.741728764164462,2.4705079054607975 16.016919343243487,2.6081031950003095 zM15.781041704032893,4.693758110125529 L15.643446414493386,4.47029508350497 L15.413776081577804,4.890322809467687 C14.934778945812441,5.736585567688138 14.856153066075578,6.150405987355841 15.10547986892537,6.47111681259831 C15.373428590660206,6.812518658824165 16.141065469143797,6.7338927790873 16.285902616027492,6.3531779929930146 C16.397634129337774,6.064538250274792 16.35832118946934,5.841075223654234 16.128650856553765,5.369319945233053 C16.010712036948473,5.113785836088246 15.853460277474742,4.8116969297308225 15.781041704032893,4.693758110125529 zM9.806509395080441,30.62271105545458 C9.806509395080441,32.70422776638313 8.211231677261448,34.29847093315295 6.129714966332907,34.29847093315295 C4.0481982554043645,34.29847093315295 2.452920537585372,32.70422776638313 2.452920537585372,30.62271105545458 C2.452920537585372,29.03364064393061 3.426433074853642,27.688724280010575 4.899633768870664,27.19524342955684 C4.899633768870664,27.074200956804038 4.899633768870664,8.698505221459717 4.899633768870664,8.576428197657744 C4.899633768870664,7.968112180746223 5.386907313029382,7.353588857539686 6.123507660037889,7.353588857539686 C6.8601080070464,7.353588857539686 7.346347000155952,7.839827850649237 7.346347000155952,8.576428197657744 C7.346347000155952,8.698505221459717 7.346347000155952,27.074200956804038 7.346347000155952,27.19524342955684 C8.819547694172972,27.688724280010575 9.799267537736258,29.03364064393061 9.806509395080441,30.62271105545458 z" id="svg_4" style="fill: rgb(255, 255, 255);" stroke-width="0"/>
      </g>
    </g>
    <g id="svg_5" class="" stroke-width="0"/>
    <g id="svg_6" class="" stroke-width="0"/>
    <g id="svg_7" class="" stroke-width="0"/>
    <g id="svg_8" class="" stroke-width="0"/>
    <g id="svg_9" class="" stroke-width="0"/>
    <g id="svg_10" class="" stroke-width="0"/>
    <g id="svg_11" class="" stroke-width="0"/>
    <g id="svg_12" class="" stroke-width="0"/>
    <g id="svg_13" class="" stroke-width="0"/>
    <g id="svg_14" class="" stroke-width="0"/>
    <g id="svg_15" class="" stroke-width="0"/>
    <g id="svg_16" class="" stroke-width="0"/>
    <g id="svg_17" class="" stroke-width="0"/>
    <g id="svg_18" class="" stroke-width="0"/>
    <g id="svg_19" class="" stroke-width="0"/>
  </g>
<g><title>Layer 2</title><g style="" id="svg_3">
    <g stroke-width="0" id="svg_20"/>
  </g></g></svg>