<svg xmlns="http://www.w3.org/2000/svg" version="1.1" style="enable-background:new 0 0 16 16;" width="25" height="25"><rect id="backgroundrect" width="100%" height="100%" x="0" y="0" fill="none" stroke="none" style="" class=""/>
  
  
  
  
  
  
  
  
  
  
  
  
  
  
  
  
<g class="currentLayer" style=""><title>Layer 1</title><g id="svg_1" class="">
    <path style="fill: rgb(255, 255, 255);" d="M12.276315689086914,0 C5.496720349788665,0 0,5.496720349788665 0,12.276315689086914 s5.496720349788665,12.276315689086914 12.276315689086914,12.276315689086914 s12.276315689086914,-5.496720349788665 12.276315689086914,-12.276315689086914 S19.05591102838516,0 12.276315689086914,0 zM10.74177622795105,4.603618383407593 c0,-0.7672697305679321 0.7672697305679321,-1.5345394611358643 1.5345394611358643,-1.5345394611358643 s1.5345394611358643,0.7672697305679321 1.5345394611358643,1.5345394611358643 v6.138157844543457 c0,0.7672697305679321 -0.7672697305679321,1.5345394611358643 -1.5345394611358643,1.5345394611358643 S10.74177622795105,11.509045958518982 10.74177622795105,10.74177622795105 V4.603618383407593 zM12.276315689086914,19.949012994766235 c-4.238397991657257,0 -7.672697305679321,-3.434299314022064 -7.672697305679321,-7.672697305679321 c0,-3.147340434789658 1.8936216950416564,-5.849664425849915 4.603618383407593,-7.034328889846801 v3.603098654747009 C8.266564077138902,9.687547618150711 7.672697305679321,10.91211010813713 7.672697305679321,12.276315689086914 c0,2.542731887102127 2.0608864963054656,4.603618383407593 4.603618383407593,4.603618383407593 s4.603618383407593,-2.0608864963054656 4.603618383407593,-4.603618383407593 c0,-1.3642055809497835 -0.5938667714595796,-2.5887680709362035 -1.5345394611358643,-3.4312302350997927 V5.241986799240112 C18.05539129972458,6.426651263236999 19.949012994766235,9.128975254297256 19.949012994766235,12.276315689086914 C19.949012994766235,16.514713680744173 16.514713680744173,19.949012994766235 12.276315689086914,19.949012994766235 z" id="svg_2"/>
  </g><g id="svg_3" class=""/><g id="svg_4" class=""/><g id="svg_5" class=""/><g id="svg_6" class=""/><g id="svg_7" class=""/><g id="svg_8" class=""/><g id="svg_9" class=""/><g id="svg_10" class=""/><g id="svg_11" class=""/><g id="svg_12" class=""/><g id="svg_13" class=""/><g id="svg_14" class=""/><g id="svg_15" class=""/><g id="svg_16" class=""/><g id="svg_17" class=""/></g></svg>