<svg xmlns="http://www.w3.org/2000/svg" version="1.1" style="enable-background:new 0 0 216.822 216.822;" width="30" height="37"><rect id="backgroundrect" width="100%" height="100%" x="0" y="0" fill="none" stroke="none" style="" class=""/>
  
  
  
  
  
  
  
  
  
  
  
  
  
  
  
  
<g class="currentLayer" style=""><title>Layer 1</title><path d="M29.57413998820633,17.94325752615181 l-7.7588265337049975,-7.7588265337049975 c-0.2426577664911747,-0.2426577664911747 -0.5650953228771686,-0.3859018953144552 -0.9077197931706906,-0.4033234785497189 l-5.5359154728055,-0.281925462037325 c-0.3939213542640211,-0.020463446974754346 -0.7706976583600046,0.1254077459871769 -1.0484751243889332,0.4033234785497189 l-0.4605658234655857,0.4604275569319725 c-0.5391012145578864,0.5392394810914993 -0.5391012145578864,1.4166789034008982 0.00013826653361320504,1.9560566510260107 l3.4237559053301814,3.4237559053301814 L0.4599090714082147,32.569229718290245 c-0.6132120765745641,0.6132120765745641 -0.6132120765745641,1.610943383127451 0,2.2241554597020152 l1.596148864030838,1.596148864030838 c0.2971347807347775,0.2969965142011643 0.692024000734091,0.46070408999919893 1.1120777298510074,0.46070408999919893 s0.8150812156498435,-0.16356930926442154 1.1120777298510074,-0.46070408999919893 L21.10683573626727,19.56304996743051 l3.4237559053301814,3.4237559053301814 c0.2613237485289574,0.2611854819953443 0.6085110144317151,0.4049826769530775 0.9779591922461989,0.4049826769530775 c0.36944817781448386,0 0.7167737102508547,-0.1439354614913464 0.9779591922461989,-0.4051209434866906 l3.0874916955828664,-3.0874916955828664 c0.2611854819953443,-0.2613237485289574 0.4051209434866906,-0.6086492809653283 0.4051209434866906,-0.9780974587798118 C29.97926093169302,18.55176854058353 29.835325470201674,18.20444300814716 29.57413998820633,17.94325752615181 zM25.50938043304533,22.009123213581717 c-0.00013826653361320504,0 -0.0004147996008396151,0.00013826653361320504 -0.00082959920167923,0.00013826653361320504 l-10.668230933994055,-10.668645733594895 l0.4608423565328122,-0.4605658234655857 l5.536330272406339,0.2820637285709381 l7.7588265337049975,7.759517866373062 L25.50938043304533,22.009123213581717 z" style="fill: rgb(255, 255, 255);" id="svg_1" class=""/><g id="svg_2" class=""/><g id="svg_3" class=""/><g id="svg_4" class=""/><g id="svg_5" class=""/><g id="svg_6" class=""/><g id="svg_7" class=""/><g id="svg_8" class=""/><g id="svg_9" class=""/><g id="svg_10" class=""/><g id="svg_11" class=""/><g id="svg_12" class=""/><g id="svg_13" class=""/><g id="svg_14" class=""/><g id="svg_15" class=""/><g id="svg_16" class=""/></g></svg>