<svg xmlns="http://www.w3.org/2000/svg" version="1.1" enable-background="new 0 0 1000 1000" width="30" height="29"><rect id="backgroundrect" width="100%" height="100%" x="0" y="0" fill="none" stroke="none" style="" class=""/>
  
<g class="currentLayer" style=""><title>Layer 1</title><g id="svg_1" class="">
    <g transform="translate(0,511) scale(0.10000000149011612,-0.10000000149011612) " id="svg_2">
      <path d="M129.11056403463726,5108.848844674943 c-2.9913590236131555,-1.5673379593650982 -4.62883078271638,-3.0614928233512813 -5.839401152109268,-5.40945046675814 c-0.5702182848273798,-1.1404365696547605 -2.9181759282342403,-13.243090967942846 -5.269182867281888,-26.983217125334157 c-7.190239120978409,-42.78771643153904 -13.16990787256393,-74.39671504394879 -22.140935647762607,-117.18443147548783 l-0.7836689796825491,-3.7750280032957035 l-3.1316266230894083,3.3450773179445776 c-5.979668751585521,6.19311944644069 -13.95357685224648,7.903774300922832 -20.64678078377643,4.415380087861212 c-4.485513887599339,-2.2778238436687324 -7.333556016095452,-6.19311944644069 -10.535316438922987,-14.31034444221869 c-2.3479576434068594,-6.196168742081479 -2.7779083287579853,-6.763337731268072 -4.7690983821926345,-7.190239120978409 c-1.2105703693928878,-0.21345069485516924 -11.959337503171042,-0.4269013897103383 -23.921724301982874,-0.4269013897103383 c-20.71691458351455,0 -21.927484952907438,-0.07013379973812703 -24.91884397652059,-1.4941548639861832 C-0.7497894196068138,4935.9903733899455 -2.457394978448164,4925.311740055906 3.8089075633714486,4919.188754409202 c3.9884786981508737,-3.9152956027719577 5.195999771902973,-4.058612497889 27.053350925072287,-4.128746297627128 c32.32253379235417,0 38.23206874420157,0.9269858747995919 44.42518819064225,7.333556016095452 l2.421140738785775,2.491274538523902 l1.9210562536965217,-4.128746297627128 c3.7018449079167888,-7.760457405805789 8.757577080343507,-11.81906990369479 15.73436550646675,-12.672872683115466 c7.476872911212494,-0.8538027794206766 12.956457177708762,3.3450773179445776 17.085203475335884,13.16990787256393 C116.50782515125991,4931.004775017257 124.62505014703794,4966.248534033486 131.7451554682782,5004.477553482047 c1.7076055588413523,9.11129537467493 3.2048097184683235,16.588168285887424 3.418260413323493,16.588168285887424 c0.21345069485516924,0 8.187358795516127,-42.71758263180091 17.728604855542184,-94.90017893260816 c9.538196764385269,-52.11551179670992 17.798738655280314,-95.9704817025248 18.368956940107694,-97.32436896703473 c1.2807041691310144,-3.2048097184683235 2.7779083287579853,-4.839232181930761 6.052851846964437,-6.4797532366747745 c5.625950457254099,-2.9181759282342403 13.16990787256393,-0.9269858747995919 16.588168285887424,4.272063192744169 c1.5673379593650982,2.3510069390476476 2.207690043930606,4.982549077047804 3.9854294025100847,17.585287960425145 C201.65635662462762,4870.204869235582 208.20624366104056,4906.442698630709 209.13018024019937,4906.442698630709 c0.21345069485516924,0 1.4240210642480564,-1.6374717591032253 2.5614083382620287,-3.631711108178662 c4.415380087861212,-7.54700671095062 11.532436113460706,-11.60561920883962 20.290013193804214,-11.675753008577747 c8.89784467981976,0 12.38928818852217,2.848042128496113 22.00066804828635,17.942055550397356 l4.912415277309676,7.687274310426873 l17.4419710653081,0.3567675899722115 c17.22852037045293,0.3567675899722115 17.515154160687015,0.3567675899722115 19.2928935192665,2.064373148813564 c2.421140738785775,2.2778238436687324 3.48839421306162,5.839401152109268 3.1316266230894083,10.395048839446732 c-0.4269013897103383,4.84228147757155 -2.491274538523902,8.757577080343507 -6.1229856467025625,11.318985418605536 l-2.9181759282342403,2.064373148813564 l-17.512104865046226,0.3567675899722115 c-21.216999068603805,0.4269013897103383 -23.63509051174879,0.07013379973812703 -28.76400577955443,-4.555647687337465 c-1.9210562536965217,-1.7807886542202676 -5.40945046675814,-6.049802551323649 -7.617140510688747,-9.541246060026056 c-2.2778238436687324,-3.48839421306162 -4.201929393006043,-6.336436341557733 -4.272063192744169,-6.19311944644069 c-0.07318309537891518,0.07013379973812703 -0.7836689796825491,3.8451618030338315 -1.6374717591032253,8.330675690633168 c-2.634591433640944,14.880562727046073 -5.9095349518473945,21.28713286834193 -12.459421988260296,24.56207638654838 c-6.833471531006198,3.418260413323493 -14.737245831929032,1.9241055493373094 -19.579527309500573,-3.631711108178662 c-4.412330792220423,-4.982549077047804 -9.184478470053847,-17.085203475335884 -13.313224767680973,-33.74655485660222 c-1.0672534742758453,-4.412330792220423 -2.064373148813564,-7.830591205543915 -2.207690043930606,-7.476872911212494 c-0.07013379973812703,0.4269013897103383 -8.044041900399085,43.501251611483454 -17.655421760163268,95.75703100766962 c-19.222759719528366,104.51155879237236 -17.868872455018437,98.745340735642 -23.84854120660396,101.80683355899326 C137.51137352500857,5110.342999538929 132.09887376260966,5110.486316434046 129.11056403463726,5108.848844674943 z" style="fill: rgb(255, 255, 255);" id="svg_3"/>
    </g>
  </g></g></svg>