<svg xmlns="http://www.w3.org/2000/svg" version="1.1" style="enable-background:new 0 0 247.611 247.611;" width="32" height="34"><rect id="backgroundrect" width="100%" height="100%" x="0" y="0" fill="none" stroke="none" class="" style=""/>
  
  
  
  
  
  
  
  
  
  
  
  
  
  
  
  
<g class="currentLayer" style=""><title>Layer 1</title><g id="svg_1" class="">
    <path style="fill: rgb(255, 255, 255);" d="M30.158802654427646,22.17650752925873 h-9.409427688375114 V12.619644385188819 c2.12625461409986,-1.1782377121299503 3.4659099237322812,-3.419671949833632 3.4659099237322812,-5.887866071507335 C24.215423326832422,3.0198657563626767 21.195419133422142,0 17.483368139055727,0 C13.771455581736923,0 10.75172826242185,3.0198657563626767 10.75172826242185,6.7317783136814855 c0,2.4683325587213036 1.33951687258482,4.709628359377384 3.4654946125894788,5.887866071507335 v9.557001581117511 H4.807795186636213 c-0.954246569111941,0 -1.730463095009327,0.7762165258973804 -1.730463095009327,1.730463095009327 v8.641102074190973 c0,0.954246569111941 0.7762165258973804,1.730463095009327 1.730463095009327,1.730463095009327 h25.351007467791437 c0.954246569111941,0 1.730463095009327,-0.7762165258973804 1.730463095009327,-1.730463095009327 v-8.641102074190973 C31.889265749436973,22.952862492203714 31.11304922353959,22.17650752925873 30.158802654427646,22.17650752925873 zM12.828283976433042,6.7317783136814855 C12.828283976433042,4.164878577068448 14.9166068394903,2.0765557140111923 17.483368139055727,2.0765557140111923 c2.5670381736606362,0 4.6554994737654924,2.0883228630572557 4.6554994737654924,4.655222599670291 c0,1.870422950133681 -1.112480114519596,3.5525715155303477 -2.8343601125776767,4.285595682576298 l-0.6316882482022047,0.2688447464406493 v10.890288786560296 h-2.3791791000664233 V11.28621874269843 l-0.6316882482022047,-0.2688447464406493 C13.940625653905037,10.284488266259432 12.828283976433042,8.602339700862766 12.828283976433042,6.7317783136814855 zM29.81271003542578,32.201980079457165 H5.153887805638078 v-7.948916836187243 h24.658822229787706 V32.201980079457165 z" id="svg_2"/>
    <path style="fill: rgb(255, 255, 255);" d="M9.561861838293439,30.892088735058906 c1.4394684209525588,0 2.610645843654871,-1.1710389856547117 2.610645843654871,-2.61050740660727 c0,-1.4394684209525588 -1.1711774227023126,-2.61050740660727 -2.610645843654871,-2.61050740660727 c-1.4396068580001593,0 -2.61050740660727,1.1711774227023126 -2.61050740660727,2.61050740660727 C6.951354431686166,29.72104974940419 8.122254980293278,30.892088735058906 9.561861838293439,30.892088735058906 zM9.561861838293439,27.055444397851826 c0.6762649775296466,0 1.2262753676474094,0.5501488271653656 1.2262753676474094,1.2261369305998087 c0,0.6761265404820442 -0.5501488271653656,1.2261369305998087 -1.2262753676474094,1.2261369305998087 c-0.6761265404820442,0 -1.2261369305998087,-0.5501488271653656 -1.2261369305998087,-1.2261369305998087 C8.335724907693628,27.605454787969588 8.885735297811394,27.055444397851826 9.561861838293439,27.055444397851826 z" id="svg_3"/>
  </g><g id="svg_4" class=""/><g id="svg_5" class=""/><g id="svg_6" class=""/><g id="svg_7" class=""/><g id="svg_8" class=""/><g id="svg_9" class=""/><g id="svg_10" class=""/><g id="svg_11" class=""/><g id="svg_12" class=""/><g id="svg_13" class=""/><g id="svg_14" class=""/><g id="svg_15" class=""/><g id="svg_16" class=""/><g id="svg_17" class=""/><g id="svg_18" class=""/></g></svg>