<svg xmlns="http://www.w3.org/2000/svg" version="1.1" enable-background="new 0 0 100 100" width="22" height="66"><rect id="backgroundrect" width="100%" height="100%" x="0" y="0" fill="none" stroke="none"/>
  
<g class="currentLayer" style=""><title>Layer 1</title><g id="svg_1" class="">
    <path d="M6.59900074505806,31.549 L6.59900074505806,26.794 C6.59900074505806,26.074 7.1830007450580595,25.49 7.90300074505806,25.49 C8.623000745058059,25.49 9.20700074505806,26.074 9.20700074505806,26.794 L9.20700074505806,31.549 C9.20700074505806,32.269 8.623000745058059,32.853 7.90300074505806,32.853 C7.18200074505806,32.853 6.59900074505806,32.269 6.59900074505806,31.549 z" style="fill: rgb(255, 255, 255);" id="svg_2"/>
    <path d="M10.86000074505806,8.423 C10.14000074505806,8.423 9.55600074505806,7.839 9.55600074505806,7.119 L9.55600074505806,1.304 C9.55600074505806,0.5840000000000001 10.14000074505806,0 10.86000074505806,0 C11.58000074505806,0 12.16400074505806,0.5840000000000001 12.16400074505806,1.304 L12.16400074505806,7.119 C12.16400074505806,7.839 11.58000074505806,8.423 10.86000074505806,8.423 z" style="visibility: hidden; fill: rgb(255, 255, 255);" id="svg_3"/>
    <g style="visibility: hidden;" id="svg_4">
      <path d="M5.41553308905806,8.857805488 c-0.33377875200000007,0 -0.667557504,-0.12742963200000001 -0.9220547520000002,-0.38192688000000014 L0.3820626250580591,4.364462896000001 c-0.509356512,-0.509356512 -0.509356512,-1.334752992 -0.00036201600000000016,-1.8441095040000004 c0.509356512,-0.509356512 1.335115008,-0.5089944960000001 1.8441095040000004,-0.00036201600000000016 l4.1114157119999994,4.111053696 c0.509356512,0.509356512 0.509356512,1.335115008 0.00036201600000000016,1.8441095040000004 C6.083090593058058,8.730375856 5.74931184105806,8.857805488 5.41553308905806,8.857805488 z" style="fill: rgb(255, 255, 255);" stroke-width="0" id="svg_5"/>
      <path d="M16.30606041705806,8.857805488 c-0.33377875200000007,0 -0.667557504,-0.12742963200000001 -0.9220547520000002,-0.38192688000000014 c-0.509356512,-0.5089944960000001 -0.509356512,-1.334752992 0,-1.843747488 l4.111053696,-4.111053696 c0.5089944960000001,-0.509356512 1.335115008,-0.509356512 1.843747488,0 c0.509356512,0.5089944960000001 0.509356512,1.334752992 0,1.843747488 L17.227753153058057,8.475516592 C16.97325590505806,8.730375856 16.639477153058056,8.857805488 16.30606041705806,8.857805488 z" style="fill: rgb(255, 255, 255);" stroke-width="0" id="svg_6"/>
    </g>
    <path d="M12.68400074505806,31.549 L12.68400074505806,26.794 C12.68400074505806,26.074 13.26800074505806,25.49 13.98800074505806,25.49 C14.70800074505806,25.49 15.29200074505806,26.074 15.29200074505806,26.794 L15.29200074505806,31.549 C15.29200074505806,32.269 14.70800074505806,32.853 13.98800074505806,32.853 C13.26700074505806,32.853 12.68400074505806,32.269 12.68400074505806,31.549 z" style="fill: rgb(255, 255, 255);" id="svg_7"/>
    <g style="" id="svg_8">
      <g stroke-width="0" id="svg_9">
        <path d="M13.130456065058059,16.897456816000002 c-0.6194093760000001,0 -1.121525568,-0.486549504 -1.121525568,-1.0867720319999998 c0,-0.5846558400000001 -0.49053168,-1.059982848 -1.094012352,-1.059982848 c-0.6194093760000001,0 -1.121525568,-0.486549504 -1.121525568,-1.0867720319999998 s0.5021161919999999,-1.0867720319999998 1.121525568,-1.0867720319999998 c1.8401273280000001,0 3.337063488,1.450236096 3.337063488,3.2331648960000003 C14.251981633058062,16.410907312 13.74986544105806,16.897456816000002 13.130456065058059,16.897456816000002 z" style="fill: rgb(255, 255, 255);" stroke-width="0" id="svg_10"/>
      </g>
      <path d="M17.73891974505806,15.906257008 c0,-3.705595776000001 -3.053242944,-6.720465024 -6.8779419840000005,-6.720465024 S3.982311745058059,12.200661231999998 3.982311745058059,15.906257008 v6.605343936000001 l0,0 v2.8885256640000003 C3.982311745058059,26.120176432 4.531490017058061,26.924938 5.275070881058058,26.924938 h11.171451744 C17.18937945705806,26.924938 17.73891974505806,26.120176432 17.73891974505806,25.400126607999997 v-2.8885256640000003 l0,0 V15.906257008 zM15.204807745058059,24.390826 H6.516423745058059 v-2.433109536 c0,-0.01592870400000001 0,-0.030771360000000015 0,-0.04633804800000002 V15.906257008 c0,-2.267668224 2.00375856,-4.11250176 4.344554016,-4.11250176 c2.34043344,0 4.343829984,1.844833536 4.343829984,4.11250176 v6.486602688 c0,0.01592870400000001 0,0.030771360000000015 0,0.04670006400000001 V24.390826 z" style="fill: rgb(255, 255, 255);" stroke-width="0" id="svg_11"/>
    </g>
    <path d="M6.59900074505806,64.549 L6.59900074505806,59.794 C6.59900074505806,59.074 7.1830007450580595,58.49 7.90300074505806,58.49 C8.623000745058059,58.49 9.20700074505806,59.074 9.20700074505806,59.794 L9.20700074505806,64.549 C9.20700074505806,65.269 8.623000745058059,65.853 7.90300074505806,65.853 C7.18200074505806,65.853 6.59900074505806,65.269 6.59900074505806,64.549 z" style="fill: rgb(255, 255, 255);" id="svg_12"/>
    <path d="M10.86000074505806,41.423 C10.14000074505806,41.423 9.55600074505806,40.839 9.55600074505806,40.119 L9.55600074505806,34.304 C9.55600074505806,33.584 10.14000074505806,33 10.86000074505806,33 C11.58000074505806,33 12.16400074505806,33.584 12.16400074505806,34.304 L12.16400074505806,40.119 C12.16400074505806,40.839 11.58000074505806,41.423 10.86000074505806,41.423 z" style="fill: rgb(255, 255, 255);" id="svg_13"/>
    <g style="" id="svg_14">
      <path d="M5.41553308905806,41.857807488000006 c-0.33377875200000007,0 -0.667557504,-0.12742963200000001 -0.9220547520000002,-0.38192688000000014 L0.3820626250580591,37.364464896 c-0.509356512,-0.509356512 -0.509356512,-1.334752992 -0.00036201600000000016,-1.8441095040000004 c0.509356512,-0.509356512 1.335115008,-0.5089944960000001 1.8441095040000004,-0.00036201600000000016 l4.1114157119999994,4.111053696 c0.509356512,0.509356512 0.509356512,1.335115008 0.00036201600000000016,1.8441095040000004 C6.083090593058058,41.730377856000004 5.74931184105806,41.857807488000006 5.41553308905806,41.857807488000006 z" style="fill: rgb(255, 255, 255);" stroke-width="0" id="svg_15"/>
      <path d="M16.30606041705806,41.857807488000006 c-0.33377875200000007,0 -0.667557504,-0.12742963200000001 -0.9220547520000002,-0.38192688000000014 c-0.509356512,-0.5089944960000001 -0.509356512,-1.334752992 0,-1.843747488 l4.111053696,-4.111053696 c0.5089944960000001,-0.509356512 1.335115008,-0.509356512 1.843747488,0 c0.509356512,0.5089944960000001 0.509356512,1.334752992 0,1.843747488 L17.227753153058057,41.475518592 C16.97325590505806,41.730377856000004 16.639477153058056,41.857807488000006 16.30606041705806,41.857807488000006 z" style="fill: rgb(255, 255, 255);" stroke-width="0" id="svg_16"/>
    </g>
    <path d="M12.68400074505806,64.549 L12.68400074505806,59.794 C12.68400074505806,59.074 13.26800074505806,58.49 13.98800074505806,58.49 C14.70800074505806,58.49 15.29200074505806,59.074 15.29200074505806,59.794 L15.29200074505806,64.549 C15.29200074505806,65.269 14.70800074505806,65.853 13.98800074505806,65.853 C13.26700074505806,65.853 12.68400074505806,65.269 12.68400074505806,64.549 z" style="fill: rgb(255, 255, 255);" id="svg_17"/>
    <g style="" id="svg_18">
      <g stroke-width="0" id="svg_19">
        <path d="M13.130456065058059,49.897458816000004 c-0.6194093760000001,0 -1.121525568,-0.486549504 -1.121525568,-1.0867720319999998 c0,-0.5846558400000001 -0.49053168,-1.059982848 -1.094012352,-1.059982848 c-0.6194093760000001,0 -1.121525568,-0.486549504 -1.121525568,-1.0867720319999998 s0.5021161919999999,-1.0867720319999998 1.121525568,-1.0867720319999998 c1.8401273280000001,0 3.337063488,1.450236096 3.337063488,3.2331648960000003 C14.251981633058062,49.410909312 13.74986544105806,49.897458816000004 13.130456065058059,49.897458816000004 z" style="fill: rgb(255, 255, 255);" stroke-width="0" id="svg_20"/>
      </g>
      <path d="M17.73891974505806,48.906259008000006 c0,-3.705595776000001 -3.053242944,-6.720465024 -6.8779419840000005,-6.720465024 S3.982311745058059,45.200663232 3.982311745058059,48.906259008000006 v6.605343936000001 l0,0 v2.8885256640000003 C3.982311745058059,59.120178432 4.531490017058061,59.92494000000001 5.275070881058058,59.92494000000001 h11.171451744 C17.18937945705806,59.92494000000001 17.73891974505806,59.120178432 17.73891974505806,58.400128608 v-2.8885256640000003 l0,0 V48.906259008000006 zM15.204807745058059,57.390828 H6.516423745058059 v-2.433109536 c0,-0.01592870400000001 0,-0.030771360000000015 0,-0.04633804800000002 V48.906259008000006 c0,-2.267668224 2.00375856,-4.11250176 4.344554016,-4.11250176 c2.34043344,0 4.343829984,1.844833536 4.343829984,4.11250176 v6.486602688 c0,0.01592870400000001 0,0.030771360000000015 0,0.04670006400000001 V57.390828 z" style="fill: rgb(255, 255, 255);" stroke-width="0" id="svg_21"/>
    </g>
  </g></g></svg>