<svg xmlns="http://www.w3.org/2000/svg" xmlns:xlink="http://www.w3.org/1999/xlink" version="1.1" style="enable-background:new 0 0 487.9 487.9;" xml:space="preserve" width="31" height="34"><rect id="backgroundrect" width="100%" height="100%" x="0" y="0" fill="none" stroke="none" style="" class=""/>
















<g class="currentLayer" style=""><title>Layer 1</title><g id="svg_1" class="">
	<g id="svg_2">
		<g id="svg_3">
			<path d="M17.43126954937109,21.948153118656805 h-2.6545211433801934 c-0.35960261794559295,0 -0.6538229417192595,0.29422032377366664 -0.6538229417192595,0.6538229417192595 s0.29422032377366664,0.6538229417192595 0.6538229417192595,0.6538229417192595 h2.6545211433801934 c0.35960261794559295,0 0.6538229417192595,-0.29422032377366664 0.6538229417192595,-0.6538229417192595 S17.79087216731668,21.948153118656805 17.43126954937109,21.948153118656805 z" fill="#FFFFFF" id="svg_4"/>
			<path d="M14.776748405990901,15.259544424868773 h0.647284712302067 v0.6930523182224152 c0,0.35960261794559295 0.29422032377366664,0.6538229417192595 0.6538229417192595,0.6538229417192595 s0.6538229417192595,-0.29422032377366664 0.6538229417192595,-0.6538229417192595 v-0.6930523182224152 h0.6995905476396077 c0.35960261794559295,0 0.6538229417192595,-0.29422032377366664 0.6538229417192595,-0.6538229417192595 s-0.29422032377366664,-0.6538229417192595 -0.6538229417192595,-0.6538229417192595 h-0.6995905476396077 v-0.647284712302067 c0,-0.35960261794559295 -0.29422032377366664,-0.6538229417192595 -0.6538229417192595,-0.6538229417192595 s-0.6538229417192595,0.29422032377366664 -0.6538229417192595,0.6538229417192595 v0.647284712302067 h-0.647284712302067 c-0.35960261794559295,0 -0.6538229417192595,0.29422032377366664 -0.6538229417192595,0.6538229417192595 S14.417145788045307,15.259544424868773 14.776748405990901,15.259544424868773 z" fill="#FFFFFF" id="svg_5"/>
			<path d="M25.414447667763252,5.144903516471833 L25.414447667763252,5.144903516471833 c-1.3534134893588674,-0.8826609713210003 -2.8310533376443936,-1.118037230339934 -4.269463809426765,-0.6865140888052227 c-1.7064778778872671,0.5099818945410223 -3.2429617909275277,1.9287776780718158 -4.413304856605002,4.034087550407831 v-5.838638869552988 c0,-0.35960261794559295 -0.29422032377366664,-0.6538229417192595 -0.6538229417192595,-0.6538229417192595 s-0.6538229417192595,0.29422032377366664 -0.6538229417192595,0.6538229417192595 v5.910559393142106 c-1.2618782775181707,-2.294918525434601 -2.9029738612335123,-3.824864209057668 -4.700986950961476,-4.354460791850268 c-1.3861046364448302,-0.4053702238659409 -2.791823961141238,-0.18307042368139279 -4.0667786974937945,0.6407464828848743 c-1.5887897483778004,1.0068873302476595 -2.9225885494850905,2.8179768788100086 -3.864093585560824,5.2371217631712685 c-0.9153521184069633,2.353762590189334 -1.3991810952792156,5.125971863078995 -1.3991810952792156,8.015869265478122 c0.026152917668770412,2.876820943564742 0.5426730416269856,5.635953757620017 1.4972545365371044,7.976639888974965 c0.9741961831616966,2.3995301961096827 2.3341479019377562,4.1713903681688755 3.9294758797327494,5.125971863078995 c0.0065382294171925995,0 0.0065382294171925995,0.0065382294171925995 0.013076458834385206,0.0065382294171925995 c0.8499698242350373,0.4838289768722522 1.7326307955560374,0.7322816947255706 2.62182999629423,0.7322816947255706 c0.5361348122097929,0 1.0722696244195855,-0.09153521184069639 1.6018662072121856,-0.2680674061048965 c1.6934014190528823,-0.5753641887129483 3.2168088732587576,-2.046465807581282 4.367537250684653,-4.197543285837646 v5.766718345963868 c0,0.35960261794559295 0.29422032377366664,0.6538229417192595 0.6538229417192595,0.6538229417192595 s0.6538229417192595,-0.29422032377366664 0.6538229417192595,-0.6538229417192595 v-5.583647922282476 c1.196495983346245,2.1968450841767124 2.752594584638082,3.694099620713816 4.472148921359736,4.269463809426765 c0.5034436651238301,0.16999396484700763 1.0199637890820448,0.25499094727051125 1.5234074542058744,0.25499094727051125 c0.8434315948178448,0 1.6737867308013046,-0.22883802960174082 2.464912490281608,-0.6930523182224152 c1.6214808954637636,-0.9545814949101189 3.001047302491401,-2.732979896386505 3.9752434856530976,-5.132510092496187 c0.9545814949101189,-2.3406861313549494 1.4580251600339489,-5.099818945410224 1.4580251600339489,-7.976639888974965 C30.677722348603297,12.50694984023069 28.585488935101665,7.178292865218722 25.414447667763252,5.144903516471833 zM10.638049184907986,30.44131313158998 c-1.0526549361680082,0.35960261794559295 -2.111848101753208,0.23537625901893355 -3.1448883496696376,-0.3530643885284003 c-1.3468752599416747,-0.8107404477318818 -2.523756555036342,-2.36683904902372 -3.3868028381057647,-4.491763609611313 c-0.8891992007381929,-2.1903068547595197 -1.373028177610445,-4.779445703967787 -1.3991810952792156,-7.492810912102714 c0,-5.505189169276164 1.869933613317082,-10.389246543919034 4.655219345041128,-12.14803025714384 c0,0 0.0065382294171925995,0 0.0065382294171925995,-0.0065382294171925995 c0.9611197243273114,-0.6211317946332966 1.9680070545749708,-0.7845875300631114 2.9879708436570156,-0.4838289768722522 c1.4253340129479857,0.41844668270032626 2.804900419975623,1.7326307955560374 3.8902465032295943,3.6679467030450454 c-1.1507283774258972,-1.216110671597823 -2.5106800962019564,-1.791474860310771 -3.870631814978016,-1.6345573542981489 c-1.6541720425497264,0.19614688251577797 -3.1252736614180607,1.4580251600339489 -4.151775679917298,3.5567968029527717 c-0.9415050360757337,1.9026247604030453 -1.4580251600339489,4.341384333015884 -1.4580251600339489,6.865140888052224 s0.5165201239582152,4.955977898231987 1.4580251600339489,6.858602658635032 c0.987272641996082,2.079156954667245 2.4452978020300304,3.3475734616026087 4.099469844579757,3.563335032369964 c0.16999396484700763,0.026152917668770412 0.3465261591112076,0.032691147085963 0.5165201239582152,0.032691147085963 c1.242263589266593,0 2.464912490281608,-0.5884406475473335 3.524105655866809,-1.6999396484700746 C13.3644908518773,28.64330004186202 12.063383197855973,29.95748415471773 10.638049184907986,30.44131313158998 zM12.069921427273165,26.609910693115122 L12.069921427273165,26.609910693115122 l0.3399879296940151,0 c-0.6276700240504892,0.37921730619717076 -1.2814929657697487,0.5361348122097929 -1.91570121923743,0.45113782978628925 c-1.2030342127634375,-0.16345573542981498 -2.3014567548517944,-1.163804836260282 -3.092582514332097,-2.8310533376443936 c0,0 0,-0.0065382294171925995 -0.0065382294171925995,-0.0065382294171925995 c-1.7718601720591938,-3.582949720621542 -1.7718601720591938,-8.990065448639818 0,-12.57301516926136 c0.8238169065662669,-1.6868631896356896 1.935315907489008,-2.6937505198833493 3.1318118908352535,-2.837591567061586 c0.6276700240504892,-0.07192052358911857 1.2749547363525562,0.09807344125788899 1.8895483015686598,0.4969054357066374 h-0.3465261591112076 c-0.35960261794559295,0 -0.6538229417192595,0.29422032377366664 -0.6538229417192595,0.6538229417192595 v15.999047383870279 C11.416098485553906,26.31569036934145 11.710318809327573,26.609910693115122 12.069921427273165,26.609910693115122 zM16.640143789890786,25.29572658025941 c-0.0065382294171925995,0 -0.0065382294171925995,0 -0.013076458834385206,0 h-0.5492112710441786 h-0.647284712302067 c-0.0065382294171925995,0 -0.0065382294171925995,0 -0.013076458834385206,0 h-2.6937505198833493 v-14.69140150043176 h6.708223382039602 v14.69140150043176 h-1.3991810952792156 h-0.0065382294171925995 H16.640143789890786 zM27.957818911051177,25.884167227806742 L27.957818911051177,25.884167227806742 c-0.8695845124866152,2.131462790004786 -2.053004036998475,3.687561391296624 -3.4260322146089197,4.491763609611313 c-0.9415050360757337,0.5492112710441786 -1.9222394486546228,0.6603611711364522 -2.9160503200678973,0.3269114708596299 c-1.4907163071199117,-0.4969054357066374 -2.9029738612335123,-1.9680070545749708 -3.962167026818713,-4.099469844579757 h0.08499698242350377 c1.0591931655852005,1.163804836260282 2.3079949842689857,1.7849366308935783 3.582949720621542,1.7849366308935783 c0.1569175060126224,0 0.3203732414424372,-0.0065382294171925995 0.4772907474550595,-0.026152917668770412 c1.6803249602184966,-0.2026851119329706 3.164503037921216,-1.4711016188683341 4.184466827003261,-3.563335032369964 c0.934966806658541,-1.8895483015686598 1.4449487011995636,-4.328307874181498 1.438410471782371,-6.865140888052224 c-0.0065382294171925995,-2.5106800962019564 -0.5165201239582152,-4.942901439397603 -1.438410471782371,-6.858602658635032 c-1.0199637890820448,-2.0922334135016305 -2.4976036373675714,-3.354111691019801 -4.151775679917298,-3.563335032369964 c-1.392642865862023,-0.16999396484700763 -2.791823961141238,0.41844668270032626 -3.9817817150702903,1.6737867308013046 c1.000349100830467,-1.837242466231119 2.2818420666002153,-3.053353137828942 3.674484932462238,-3.471799820529268 c1.0722696244195855,-0.3203732414424372 2.144539248839171,-0.14384104717823717 3.184117726172794,0.5295965827926004 c1.3207223422729042,0.8499698242350373 2.4976036373675714,2.484527178533186 3.3279587733510305,4.60945173912078 c0.8630462830694225,2.2229980018454825 1.307645883438519,4.8252133098881345 1.2814929657697487,7.538578518023062 C29.317770629827233,21.10472152383895 28.84701811178937,23.700398602464414 27.957818911051177,25.884167227806742 zM20.085790692751285,9.29667919638913 L20.085790692751285,9.29667919638913 l-0.3530643885284003,0 c0.6342082534676818,-0.3988319944487485 1.2945694246041337,-0.5688259592957555 1.935315907489008,-0.49036720628944497 c1.2030342127634375,0.1503792765954297 2.3210714431033708,1.1572666068430892 3.1383501202524458,2.8310533376443936 c1.745707254390423,3.6352555559590827 1.7522454838076154,9.04237128397736 0,12.579553398678552 c-0.8238169065662669,1.6803249602184966 -1.9483923663233933,2.6937505198833493 -3.1710412673384085,2.844129796478779 c-0.6342082534676818,0.07845875300631118 -1.2749547363525562,-0.07845875300631118 -1.8895483015686598,-0.45767605920348153 h0.3399879296940151 c0.35960261794559295,0 0.6538229417192595,-0.29422032377366664 0.6538229417192595,-0.6538229417192595 v-15.999047383870279 C20.739613634470548,9.590899520162797 20.44539331069688,9.29667919638913 20.085790692751285,9.29667919638913 z" fill="#FFFFFF" id="svg_6"/>
		</g>
	</g>
</g><g id="svg_7" class="">
</g><g id="svg_8" class="">
</g><g id="svg_9" class="">
</g><g id="svg_10" class="">
</g><g id="svg_11" class="">
</g><g id="svg_12" class="">
</g><g id="svg_13" class="">
</g><g id="svg_14" class="">
</g><g id="svg_15" class="">
</g><g id="svg_16" class="">
</g><g id="svg_17" class="">
</g><g id="svg_18" class="">
</g><g id="svg_19" class="">
</g><g id="svg_20" class="">
</g><g id="svg_21" class="">
</g></g></svg>