<svg width="30" height="25" xmlns="http://www.w3.org/2000/svg">

 <g class="currentLayer">
  <title>Layer 1</title>
  <g stroke="null" transform="rotate(-89.50712585449219 15.65182113647461,12.833357810974121) " class="selected" id="svg_1">
   <g stroke="null" id="svg_2">
    <path stroke="null" id="svg_3" fill="#FFFFFF" d="m21.597298,16.316165l0,5.010049l6.754235,0l0,-4.68052l0,-0.329473l0,-9.820671c0,-3.683557 -3.380886,-9.162991 -12.699319,-9.162991c-9.595361,0 -12.700878,6.173428 -12.700878,9.162991l0,9.820616l0,0.329474l0,4.680519l6.747739,0l0,-4.680519l0.003768,0l0,-10.145626c0.001494,-0.034441 0.269653,-3.44093 5.949371,-3.44093c5.881423,0 5.948917,3.295838 5.948917,3.436411l0,9.820616l-0.003832,0l0,0.000055zm-13.06336,4.021628l-4.417465,0l0,-3.033262l4.417465,0l0,3.033262zm14.228561,-3.033262l4.423897,0l0,3.033262l-4.423897,0l0,-3.033262z"/>
    <polygon stroke="null" id="svg_4" fill="#FFFFFF" points="7.028534412384033,22.678760170936584 5.60474157333374,22.678760170936584 5.60474157333374,24.90259325504303 2.983150005340576,24.90259325504303 2.983150005340576,26.110374093055725 5.60474157333374,26.110374093055725 5.60474157333374,28.334157586097717 7.028534412384033,28.334157586097717 7.028534412384033,26.110374093055725 9.650113582611084,26.110374093055725 9.650113582611084,24.90259325504303 7.028534412384033,24.90259325504303 "/>
    <rect stroke="null" id="svg_5" fill="#FFFFFF" height="1.207794" width="6.666928" y="24.902591" x="21.685382"/>
   </g>
  </g>
  <g id="svg_6"/>
  <g id="svg_7"/>
  <g id="svg_8"/>
  <g id="svg_9"/>
  <g id="svg_10"/>
  <g id="svg_11"/>
  <g id="svg_12"/>
  <g id="svg_13"/>
  <g id="svg_14"/>
  <g id="svg_15"/>
  <g id="svg_16"/>
  <g id="svg_17"/>
  <g id="svg_18"/>
  <g id="svg_19"/>
  <g id="svg_20"/>
 </g>
 <g>
  <title>Layer 2</title>
  <rect fill="none" y="0" x="0" height="100%" width="100%" id="backgroundrect"/>
 </g>
 <g>
  <title>background</title>
  <rect fill="none" id="canvas_background" height="27" width="32" y="-1" x="-1"/>
 </g>
</svg>