<?xml version="1.0" encoding="utf-8"?>
<!-- Generator: Adobe Illustrator 21.0.0, SVG Export Plug-In . SVG Version: 6.00 Build 0)  -->
<svg version="1.1" id="Слой_1" xmlns="http://www.w3.org/2000/svg" xmlns:xlink="http://www.w3.org/1999/xlink" x="0px" y="0px"
	 viewBox="0 0 76.5 70.9" style="enable-background:new 0 0 76.5 70.9;" xml:space="preserve">
<style type="text/css">
	.st0{fill:none;stroke:#FFFFFF;stroke-miterlimit:10;}
	.st1{fill:#FFFFFF;}
</style>
<image style="display:none;overflow:visible;" width="61" height="46" xlink:href="Untitled-1.png"  transform="matrix(3.4389 0 0 3.4389 -53.9986 -43.6619)">
</image>
<g>
	<path class="st0" d="M75.7,48.2h-43c-6.4,0-11.7-5.3-11.7-11.7v-1.6c0-6.4,5.3-11.7,11.7-11.7h43V1.6c-0.3,0-0.6,0-1,0H33.3
		C15.4,1.5,0.9,16.1,0.9,34v3.2c0,17.8,14.6,32.4,32.4,32.4h41.5c0.3,0,0.6,0,1,0V48.2z"/>
	<line class="st0" x1="51.1" y1="1.5" x2="51.1" y2="23.2"/>
	<line class="st0" x1="51.1" y1="47.9" x2="51.1" y2="69.6"/>
	<g>
		<path class="st1" d="M63.8,7v4.7h4.5V13h-4.5v4.8h-1.3V13H58v-1.2h4.5V7H63.8z"/>
	</g>
	<g>
		<path class="st1" d="M68.4,57.8v1.9H57.9v-1.9H68.4z"/>
	</g>
</g>
</svg>
