<svg xmlns="http://www.w3.org/2000/svg" version="1.1" style="enable-background:new 0 0 512 512;" width="34" height="23"><rect id="backgroundrect" width="100%" height="100%" x="0" y="0" fill="none" stroke="none" class="" style=""/>
  
  
  
  
  
  
  
  
  
  
  
  
  
  
  
  
<g class="currentLayer" style=""><title>Layer 1</title><g id="svg_1" class="">
    <g id="svg_2">
      <path d="M33.246186855125714,0.46457732095089416 H1.123180174087491 C0.5028533758121807,0.46457732095089416 0,0.9674978244330533 0,1.5877574950383855 v10.857430725402406 c0,0.620326798275311 0.5029205034821589,1.123180174087491 1.123180174087491,1.123180174087491 h6.134394993354726 v0.3908172946173435 c0,0.7597509688215529 0.6158963720567028,1.3755802132082757 1.3755802132082757,1.3755802132082757 h4.7317623291449395 v2.50171400477484 h-0.7478022435653042 c-2.436063143535444,0 -4.417873344323455,1.9818102007880105 -4.417873344323455,4.417873344323455 c0,0.620326798275311 0.5028533758121795,1.123180174087491 1.123180174087491,1.123180174087491 h15.724522437224874 c0.0005370213598314566,0 0.0010069150496839858,0 0.0014768087395365108,0 c0.620326798275311,0 1.123180174087491,-0.5028533758121795 1.123180174087491,-1.123180174087491 c0,-0.02275628012285808 -0.0006712766997893208,-0.0453111772357795 -0.0020138300993679677,-0.06766469133876368 c-0.03631606945860235,-2.4049830323351986 -2.0038952042110796,-4.350141525314712 -4.4173363229636236,-4.350141525314712 h-0.7478022435653042 v-2.50171400477484 h4.7317623291449395 c0.7597509688215529,0 1.3755802132082757,-0.6158963720567028 1.3755802132082757,-1.3755802132082757 v-0.3908172946173435 h6.134394993354726 c0.620326798275311,0 1.123180174087491,-0.5028533758121795 1.123180174087491,-1.123180174087491 V1.5877574950383855 C34.36936702921321,0.9674978244330533 33.86644652573106,0.46457732095089416 33.246186855125714,0.46457732095089416 zM7.296509216029998,10.311132464140563 c-1.8195626224489319,0 -3.2946931702359636,-1.4750634201170532 -3.2946931702359636,-3.2946931702359636 s1.4751305477870318,-3.2946931702359636 3.2946931702359636,-3.2946931702359636 c1.8196297501189118,0 3.2946931702359636,1.4750634201170532 3.2946931702359636,3.2946931702359636 S9.116138966148908,10.311132464140563 7.296509216029998,10.311132464140563 zM16.955845287648422,10.311132464140563 c-1.8195626224489319,0 -3.2946931702359636,-1.4750634201170532 -3.2946931702359636,-3.2946931702359636 s1.4751305477870318,-3.2946931702359636 3.2946931702359636,-3.2946931702359636 c1.8196297501189118,0 3.2946931702359636,1.4750634201170532 3.2946931702359636,3.2946931702359636 S18.775475037767336,10.311132464140563 16.955845287648422,10.311132464140563 zM28.337408860246335,9.046514289407462 c-1.1211663439881232,0 -2.030007867832884,-0.9089086515147411 -2.030007867832884,-2.030007867832884 s0.9089086515147411,-2.030007867832884 2.030007867832884,-2.030007867832884 s2.030007867832884,0.9089086515147411 2.030007867832884,2.030007867832884 S29.458575204234453,9.046514289407462 28.337408860246335,9.046514289407462 z" style="fill: rgb(255, 255, 255);" id="svg_3"/>
    </g>
  </g><g id="svg_4" class=""/><g id="svg_5" class=""/><g id="svg_6" class=""/><g id="svg_7" class=""/><g id="svg_8" class=""/><g id="svg_9" class=""/><g id="svg_10" class=""/><g id="svg_11" class=""/><g id="svg_12" class=""/><g id="svg_13" class=""/><g id="svg_14" class=""/><g id="svg_15" class=""/><g id="svg_16" class=""/><g id="svg_17" class=""/><g id="svg_18" class=""/></g></svg>