<svg xmlns="http://www.w3.org/2000/svg" width="18" height="18"><rect id="backgroundrect" width="100%" height="100%" x="0" y="0" fill="none" stroke="none" style="" class=""/>
  
<g class="currentLayer" style=""><title>Layer 1</title><path d="M9.706539332866669,4.957466394782067 C9.706539332866669,5.504598264932632 9.263208005785943,5.9479295920133595 8.716076135635376,5.9479295920133595 L0.9904631972312924,5.9479295920133595 C0.44333132708072676,5.9479295920133595 0,5.504598264932632 0,4.957466394782067 L0,0.995613605856896 C0,0.44867982834577635 0.44333132708072676,0.005150408625603121 0.9904631972312924,0.005150408625603121 L8.716076135635376,0.005150408625603121 C9.263208005785943,0.005150408625603121 9.706539332866669,0.44867982834577635 9.706539332866669,0.995613605856896 zM15.543338954150677,0.290601902067662 C15.547696992218494,0.29436566221714067 15.550668381810187,0.2985256076455124 15.554234049320222,0.30288364571332954 C15.557403531551362,0.3072416837811476 15.560374921143055,0.31179781448841126 15.56433677393198,0.31575966727733645 L16.603530760467052,1.3547555611729631 L17.642328561723232,2.393751455068589 C17.835865070462226,2.5866936858892444 17.932534278512,2.8404503570199013 17.932534278512,3.0938108428716653 C17.932534278512,3.34717132872343 17.835468885183335,3.6007299072146424 17.641932376444338,3.7942664159536363 C17.448990145623682,3.9878029246926303 17.195233474493026,4.084472132742405 16.94207108128071,4.084472132742405 C16.688314410150053,4.084670225381853 16.434953924298284,3.9878029246926303 16.241615508198738,3.7944645085930837 L15.83275230038166,3.385601300776006 L15.832554207742213,7.161247008621693 L15.832554207742213,8.919319183707238 C15.832554207742213,9.19288511878252 15.721622329652309,9.440500918090343 15.542348490953444,9.619576664149761 C15.363272744894026,9.798850502848625 15.115656945586203,9.90978238093853 14.84209101051092,9.90978238093853 L1.9809263944625854,9.90978238093853 L1.9807283018231399,12.098111768901347 L1.9809263944625854,16.84302476155758 C1.9809263944625854,16.979510590136048 1.952995332300663,17.109855546891687 1.9028778945207598,17.22851303792 C1.8527604567408567,17.347170528948308 1.7804566433429718,17.453942461609845 1.6907206776738173,17.543282242000103 C1.6011828046441074,17.63301820766926 1.4944108719825748,17.70552011370659 1.375753380954265,17.755637551486494 C1.2574920752048495,17.805754989266397 1.1269490258097647,17.833487958788872 0.990265104591846,17.833487958788872 C0.7168972621560104,17.833487958788872 0.46928146284818695,17.72235798805952 0.29020571678876905,17.543282242000103 C0.11093187808990469,17.364206495940685 0,17.116590696632862 0,16.84302476155758 L0,8.919319183707238 C0,8.645753248631955 0.11093187808990469,8.397939356684686 0.29000762414932346,8.218863610625267 C0.46928146284818695,8.039589771926403 0.7168972621560104,7.928855986475945 0.9904631972312924,7.928855986475945 L13.851627813279627,7.928855986475945 L13.851429720640184,5.980812970161438 L13.851231628000736,3.3828280038237573 L13.646998116731645,3.587259607732296 L13.442368420183655,3.791889304280282 C13.249030004084112,3.9856239056587235 12.995471425592896,4.082293113708497 12.741714754462244,4.082293113708497 C12.488354268610479,4.082293113708497 12.234993782758714,3.985425813019276 12.04145727401972,3.791889304280282 C11.847920765280726,3.598550888180732 11.751647742509842,3.3449923096895233 11.751647742509842,3.0916318238377585 C11.751647742509842,2.8382713379859927 11.848316950559614,2.5849108521342288 12.04145727401972,2.391770528674126 L13.088376873493196,1.3450490218400954 L14.135098380327221,0.2985256076455124 C14.15966186761856,0.2731697497963914 14.185215818107125,0.24959672570228625 14.211958324432374,0.22701416480541253 C14.23909701603651,0.20482778918743175 14.26722617083788,0.18382996940612806 14.295949603557588,0.1644168907403954 C14.30090191954374,0.16144550114870088 14.305656142890452,0.15926648211479227 14.310410366237164,0.15688937044143714 C14.315560774862767,0.1543141661286356 14.320314998209476,0.15193705445528055 14.32487112891674,0.14896566486358692 C14.347849875092507,0.134901087462902 14.370630528628826,0.12182697325944948 14.394005460083484,0.10914904433488906 C14.417380391538146,0.0968673006892207 14.441349600911138,0.08537792760133733 14.46611118084192,0.07507711035013287 C14.47740246129036,0.07012479436397623 14.488891834378244,0.0663610342144967 14.50057930010557,0.0631915519833566 C14.512464858472349,0.05962588447332441 14.524152324199676,0.056654494881630775 14.535839789927007,0.052692642092704765 C14.554856683313844,0.04674986290931751 14.573081206142902,0.04041089844703727 14.59229619216919,0.034468119263649136 C14.61131308555603,0.028723432719708345 14.630131886303424,0.023771116733551707 14.64994115024805,0.019809263944626558 C14.677872212409973,0.014262670040131377 14.705803274571895,0.010102724611759763 14.733932429373265,0.007725612938404681 C14.76265586209297,0.0047542233467101624 14.79078501689434,0.0031694822311401083 14.819112264335153,0.0023771116733550812 C14.82307411712408,0.0025752043128015605 14.826837877273562,0.0017828337550165332 14.830799730062484,0.0013866484761244637 C14.834365397572519,0.0005942779183394367 14.838129157721994,0.00019809263944647887 14.84209101051092,0.00019809263944647887 C14.842487195789815,0 14.842487195789815,0 14.842487195789815,0 C14.842685288429259,0.00019809263944647887 14.84288338106871,0.00019809263944647887 14.84288338106871,0.00019809263944647887 C14.875370573937893,0 14.908055859446527,0.001980926394463012 14.940741144955158,0.005150408625603121 C14.973228337824345,0.008517983496188822 15.005319345414637,0.013470299482346352 15.037806538283824,0.02000735658407216 C15.048503540813922,0.02198828297853517 15.058408172786233,0.024959672570228807 15.068510897397996,0.02832724744081539 C15.078217436730863,0.03169482231140198 15.088122068703175,0.035062397181988565 15.098422885954378,0.038033786773682195 C15.119816891014576,0.04358038067817739 15.141012803435324,0.04892888194322609 15.161812530577183,0.05506975376606072 C15.182810350358487,0.061210625588894466 15.203213892221452,0.06774768269062117 15.223815526723861,0.07586948090791702 C15.234512529253962,0.08062370425462721 15.244219068586826,0.08617029815912326 15.253925607919694,0.09191498470306404 C15.263434054613114,0.09726348596811366 15.272942501306531,0.1032062651515009 15.283045225918293,0.10815858113765754 C15.302260211944581,0.1174689351916314 15.321079012691975,0.12658119660615963 15.339699720799924,0.13648582857847294 C15.358518521547317,0.14619236791133886 15.376743044376372,0.1566912778019916 15.394571381926536,0.1683787435293205 C15.404079828619956,0.17451961535215424 15.4123997194767,0.18184904301166596 15.421115795612334,0.18937656331062325 C15.429831871747968,0.1969040836095815 15.438349855244159,0.20443160390853876 15.44726402401924,0.21156293892860492 C15.463507620453836,0.22404277521371976 15.480147402167319,0.2359283335804943 15.496589091241361,0.2490024477839477 C15.512832687675953,0.26207656198740015 15.528878191471097,0.2755468614697456 15.543338954150677,0.290601902067662 zM17.82833755016327,16.84302476155758 C17.82833755016327,17.390156631708145 17.38500622308254,17.833487958788872 16.837874352931976,17.833487958788872 L4.952315986156464,17.833487958788872 C4.405184116005898,17.833487958788872 3.961852788925171,17.390156631708145 3.961852788925171,16.84302476155758 L3.961852788925171,12.881171972632409 C3.961852788925171,12.334040102481843 4.405184116005898,11.890708775401116 4.952315986156464,11.890708775401116 L16.837874352931976,11.890708775401116 C17.38500622308254,11.890708775401116 17.82833755016327,12.334040102481843 17.82833755016327,12.881171972632409 z" style="fill: rgb(255, 255, 255);" id="svg_1" class=""/></g></svg>