<svg xmlns="http://www.w3.org/2000/svg" version="1.1" style="enable-background:new 0 0 455 455;" width="42" height="18"><rect id="backgroundrect" width="100%" height="100%" x="0" y="0" fill="none" stroke="none" style="" class=""/>
  <g class="currentLayer" style="">
    <title transform="matrix(19.90773,0,0,19.90773,742.956665,224.765579) " stroke-width="0">Layer 1</title>
    <g id="XMLID_1484_" class="" stroke-width="0">
      <path id="XMLID_1490_" d="M13.196115774702173,16.916657887255173 C13.180229600013524,16.916657887255173 13.164343425324878,16.916657887255173 13.148457250636232,16.916657887255173 C13.132571075947586,16.916657887255173 13.116684901258942,16.916657887255173 13.100798726570297,16.916657887255173 C11.930517191173356,16.916657887255173 10.949810673727598,16.105403899821642 10.712577131710482,15.02832125593143 L6.048075451917101e-14,15.02832125593143 L6.048075451917101e-14,14.016901467420954 L10.712577131710482,14.016901467420954 C10.949810673727598,12.938759745218167 11.930517191173356,12.128564836097212 13.100798726570297,12.128564836097212 C13.116684901258942,12.128564836097212 13.132571075947586,12.128564836097212 13.148457250636232,12.128564836097212 C13.164343425324878,12.128564836097212 13.180229600013524,12.128564836097212 13.196115774702173,12.128564836097212 C14.36639731009911,12.128564836097212 15.347103827544867,12.938759745218167 15.584337369561982,14.016901467420954 L26.178297730263843,14.016901467420954 C26.414472193968383,12.938759745218167 27.39623778972672,12.128564836097212 28.566519325123654,12.128564836097212 C29.736800860520592,12.128564836097212 30.716448299653774,12.938759745218167 30.954740919983468,14.016901467420954 L41.761576021513186,14.016901467420954 L41.761576021513186,15.02832125593143 L30.954740919983468,15.02832125593143 C30.716448299653774,16.105403899821642 29.736800860520592,16.916657887255173 28.566519325123654,16.916657887255173 C27.39623778972672,16.916657887255173 26.414472193968383,16.105403899821642 26.178297730263843,15.02832125593143 L15.584337369561982,15.02832125593143 C15.347103827544867,16.105403899821642 14.36639731009911,16.916657887255173 13.196115774702173,16.916657887255173 zM11.784364384037813,14.52314090083248 C11.784364384037813,15.27085018951143 12.392275335456674,15.880879297555442 13.149516328948808,15.905238098744698 C13.906757322440946,15.879820219242866 14.512550117234651,15.269791111198854 14.512550117234651,14.52314090083248 C14.512550117234651,13.775431612153534 13.904639165815793,13.163284347484367 13.147398172323658,13.139984624607687 C12.391216257144098,13.164343425796943 11.784364384037813,13.77649069046611 11.784364384037813,14.52314090083248 zM27.154767934459297,14.52314090083248 C27.154767934459297,15.285677285887498 27.787037687067414,15.905238098744698 28.566519325123654,15.905238098744698 C29.344941884867314,15.905238098744698 29.978270715788014,15.285677285887498 29.978270715788014,14.52314090083248 C29.978270715788014,13.759545437464888 29.344941884867314,13.139984624607687 28.566519325123654,13.139984624607687 C27.787037687067414,13.139984624607687 27.154767934459297,13.759545437464888 27.154767934459297,14.52314090083248 z" style="fill: rgb(255, 255, 255);" stroke-width="0"/>
      <path id="path-1" d="M26.092512386945153,6.073814123097858 C26.092512386945153,5.911775141273666 26.108398561633802,5.752913394387203 26.13805275438594,5.6004061173762 C26.145466302573976,5.564397454748603 26.15287985076201,5.527329713808428 26.160293398950046,5.492380129493406 L16.346873754616997,0.9341070721645244 L16.782154941085903,4.721281829031532e-10 L26.597692742044103,4.559332136113587 C27.278680097030737,3.6633518836739403 28.519919879370292,3.328683136899793 29.582175426884437,3.8232727088729788 C30.316116697499886,4.163236847210007 30.800115486347313,4.8230426359451135 30.948386450108007,5.558042984873144 L41.761576021513186,5.558042984873144 L41.761576021513186,6.587467104697417 L30.93355935373194,6.587467104697417 C30.695266733402246,7.685731314839158 29.712442059331334,8.51181239864876 28.54110144562182,8.51181239864876 C27.190776597086895,8.51181239864876 26.092512386945153,7.4177845017573265 26.092512386945153,6.073814123097858 zM29.95497099291133,6.073814123097858 C29.95497099291133,5.2964506416667705 29.320583083678063,4.664180889058652 28.54110144562182,4.664180889058652 C27.851641464134573,4.664180889058652 27.276561940405585,5.156652304406683 27.150531621208987,5.8069263883286 C27.052037338139385,6.413778261434885 27.364465440349427,7.037575387542393 27.95013574720418,7.30975851387453 C28.65654098169265,7.6380727907732195 29.499567318503477,7.333058236751214 29.829999752027316,6.627712080575321 C29.87977643271841,6.521804249317681 29.915785095346006,6.410601026497156 29.936966661597534,6.299397803676633 C29.948616523035874,6.225262321796284 29.95497099291133,6.150067761603359 29.95497099291133,6.073814123097858 zM15.669063634568097,6.073814123097858 C15.669063634568097,7.4177845017573265 14.570799424426355,8.51181239864876 13.22047457589143,8.51181239864876 C12.049133962181914,8.51181239864876 11.066309288111007,7.685731314839158 10.82801666778131,6.587467104697417 L6.048075451917101e-14,6.587467104697417 L6.048075451917101e-14,5.558042984873144 L10.82801666778131,5.558042984873144 C11.066309288111007,4.460837853043979 12.049133962181914,3.635815847546953 13.22047457589143,3.635815847546953 C14.570799424426355,3.635815847546953 15.669063634568097,4.728784666125812 15.669063634568097,6.073814123097858 zM14.636462279806095,6.073814123097858 C14.636462279806095,5.2964506416667705 14.002074370572823,4.664180889058652 13.22047457589143,4.664180889058652 C12.440992937835189,4.664180889058652 11.806605028601917,5.2964506416667705 11.806605028601917,6.073814123097858 C11.806605028601917,6.8501185262163675 12.440992937835189,7.482388278824487 13.22047457589143,7.482388278824487 C14.002074370572823,7.482388278824487 14.636462279806095,6.8501185262163675 14.636462279806095,6.073814123097858 z" style="fill: rgb(255, 255, 255);" stroke-width="0"/>
    </g>
  </g>
</svg>