<svg xmlns="http://www.w3.org/2000/svg" version="1.1" style="enable-background:new 0 0 455 455;" width="42" height="30"><rect id="backgroundrect" width="100%" height="100%" x="0" y="0" fill="none" stroke="none" class="" style=""/>
  
  
  
  
  
  
  
  
  
  
  
  
  
  
  
  
<g class="currentLayer" style=""><title>Layer 1</title><g id="XMLID_1484_" class="selected">
    <path id="XMLID_1490_" d="M15.760051204377934,23.671317703025522 C15.744947864256115,23.671317703025522 15.72999631649732,23.671165910662495 15.714968872557014,23.670862325936426 C15.69986553243519,23.671165910662495 15.6849139846764,23.671317703025522 15.669810644554572,23.671317703025522 C14.563851487493139,23.671317703025522 13.637007318811124,22.900440187360342 13.412734102429258,21.874930982706612 L3.2894737231864823,21.874930982706612 L3.2894737231864823,20.913933532342085 L13.412734102429258,20.913933532342085 C13.637007318811124,19.88842432768836 14.563851487493139,19.11754681202318 15.669810644554572,19.11754681202318 C15.6849139846764,19.11754681202318 15.69986553243519,19.117698604386206 15.714968872557014,19.11800218911227 C15.72999631649732,19.117698604386206 15.744947864256115,19.11754681202318 15.760051204377934,19.11754681202318 C16.866010361439375,19.11754681202318 17.79285453012139,19.88842432768836 18.017127746503252,20.913933532342085 L28.02783408855676,20.913933532342085 C28.252107304938622,19.88842432768836 29.178951473620632,19.11754681202318 30.284910630682074,19.11754681202318 C31.390945683925022,19.11754681202318 32.317258579336425,19.888500223869872 32.54168358808132,20.913933532342085 L42.75548811187352,20.913933532342085 L42.75548811187352,21.874930982706612 L32.54168358808132,21.874930982706612 C32.317258579336425,22.900364291178825 31.390945683925022,23.671317703025522 30.284910630682074,23.671317703025522 C29.178951473620632,23.671317703025522 28.252107304938622,22.900440187360342 28.02783408855676,21.874930982706612 L18.017127746503252,21.874930982706612 C17.79285453012139,22.900440187360342 16.866010361439375,23.671317703025522 15.760051204377934,23.671317703025522 zM14.425568644769696,21.394432257524354 C14.425568644769696,22.105503582154366 15.000482219758746,22.686640644027783 15.716031419098247,22.709637187027347 C16.430593968078032,22.685502201305034 17.004293204162813,22.104820516520714 17.004293204162813,21.394432257524354 C17.004293204162813,20.68336093289433 16.429379629173766,20.102223871020914 15.713830429834264,20.079227328021354 C14.999267880854475,20.103362313743666 14.425568644769696,20.68404399852798 14.425568644769696,21.394432257524354 zM28.950579863436865,21.394432257524354 C28.950579863436865,22.120075649005575 29.549173047059124,22.710396148842513 30.284910630682074,22.710396148842513 C31.020800006668047,22.710396148842513 31.619393190290307,22.120075649005575 31.619393190290307,21.394432257524354 C31.619393190290307,20.66886476222464 31.020800006668047,20.078544262387705 30.284910630682074,20.078544262387705 C29.549173047059124,20.078544262387705 28.950579863436865,20.66886476222464 28.950579863436865,21.394432257524354 z" style="fill: rgb(255, 255, 255);"/>
    <path id="path-1" d="M27.984041991821613,10.462725752765621 C27.984041991821613,10.309263673738844 27.999069435761925,10.159216922880315 28.027682296193724,10.014103423820373 C28.033905783078094,9.979646557411787 28.040888231777625,9.945189691003208 28.048705538473854,9.910884616957652 L18.771004517508693,5.5845745819608705 L19.183727952596538,4.699473313113048 L28.461428973561695,9.025707451928316 C29.10571165845701,8.176201492211828 30.278307662890118,7.858424180201377 31.28286952144524,8.326855412522487 C31.976408828144894,8.650324938146685 32.43459407596125,9.275937162388892 32.57393946522592,9.974409720887138 L42.79662384225557,9.974409720887138 L42.79662384225557,10.951041784644104 L32.55982277546381,10.951041784644104 C32.334942389629816,11.993248149231508 31.406504401135955,12.776800327209983 30.29804067008446,12.776800327209983 C29.022074066425603,12.776800327209983 27.984041991821613,11.73869235642448 27.984041991821613,10.462725752765621 zM31.63548318077185,10.462725752765621 C31.63548318077185,9.725318453149306 31.03552386588229,9.12535913825975 30.29804067008446,9.12535913825975 C29.646851432671127,9.12535913825975 29.102903499740894,9.59318320112872 28.98458135275635,10.210370949222572 C28.891608530398383,10.78596758984527 29.185782129957136,11.377881909494064 29.739748358847574,11.636232511376928 C30.40801423710217,11.947862232684521 31.20537952011668,11.657635234564637 31.517009241424276,10.989369356310046 C31.56444435487221,10.887592576896143 31.597990467102598,10.782779950221574 31.61833064374908,10.677208361731832 C31.629639174795066,10.607383874736463 31.63548318077185,10.535737879384694 31.63548318077185,10.462725752765621 zM18.130364849326178,10.462725752765621 C18.130364849326178,11.73869235642448 17.09233277472219,12.776800327209983 15.816366171063335,12.776800327209983 C14.707902440011843,12.776800327209983 13.779464451517981,11.993248149231508 13.554584065683983,10.951041784644104 L3.3177829988922136,10.951041784644104 L3.3177829988922136,9.974409720887138 L13.554584065683983,9.974409720887138 C13.779464451517981,8.93220335629973 14.707902440011843,8.14865117832126 15.816366171063335,8.14865117832126 C17.09233277472219,8.14865117832126 18.130364849326178,9.186759149106763 18.130364849326178,10.462725752765621 zM17.153732785569208,10.462725752765621 C17.153732785569208,9.725242556967792 16.553773470679644,9.125283242078233 15.816366171063335,9.125283242078233 C15.0788829752655,9.125283242078233 14.478923660375942,9.725242556967792 14.478923660375942,10.462725752765621 C14.478923660375942,11.200133052381933 15.0788829752655,11.800092367271496 15.816366171063335,11.800092367271496 C16.553773470679644,11.800092367271496 17.153732785569208,11.200133052381933 17.153732785569208,10.462725752765621 z" style="fill: rgb(255, 255, 255);"/>
  </g><g id="svg_1" class=""/><g id="svg_2" class=""/><g id="svg_3" class=""/><g id="svg_4" class=""/><g id="svg_5" class=""/><g id="svg_6" class=""/><g id="svg_7" class=""/><g id="svg_8" class=""/><g id="svg_9" class=""/><g id="svg_10" class=""/><g id="svg_11" class=""/><g id="svg_12" class=""/><g id="svg_13" class=""/><g id="svg_14" class=""/><g id="svg_15" class=""/></g></svg>