<svg width="35" height="40" xmlns="http://www.w3.org/2000/svg">
 <style type="text/css">.st0{fill:none;stroke:#FFFFFF;stroke-width:2;stroke-miterlimit:10;}
	.st1{fill:none;stroke:#FFFFFF;stroke-width:1.5;stroke-miterlimit:10;}
	.st2{fill:#FFFFFF;}
	.st3{fill:none;stroke:#FFFFFF;stroke-miterlimit:10;}</style>

 <g>
  <title>background</title>
  <rect fill="none" id="canvas_background" height="402" width="582" y="-1" x="-1"/>
 </g>
 <g>
  <title>Layer 1</title>
  <g id="svg_1">
   <path id="svg_2" d="m10.4,3.9c-1.7,0 -3,2.1 -3,6.1c0,3.8 1.2,6 3,6c2,0 3,-2.4 3,-6.1c0,-3.6 -0.9,-6 -3,-6z" class="st0"/>
   <path id="svg_3" d="m16.3,18.9l-11.8,0c-1.7,0 -3,-1.4 -3,-3l0,-11.8c0,-1.6 1.4,-3 3,-3l11.8,0c1.6,0 3,1.4 3,3l0,11.8c0,1.6 -1.3,3 -3,3z" class="st1"/>
   <path id="svg_4" d="m29.2,3.4l-9.3,0c-0.1,0 -0.2,0 -0.2,0l0,13.2c0.1,0 0.2,0 0.2,0l9.3,0c1.4,0 2.5,-1.1 2.5,-2.5l0,-8.3c0,-1.3 -1.1,-2.4 -2.5,-2.4zm-2.7,10.6l-1.1,0l0,-7l-1.4,0.8l-0.2,-0.9l1.8,-0.9l0.9,0l0,8z" class="st2"/>
  </g>
  <g id="svg_5">
   <path id="svg_6" d="m19.2,38.7l11.8,0c1.6,0 3,-1.3 3,-3l0,-11.9c0,-1.6 -1.3,-3 -3,-3l-11.8,0c-1.6,0 -3,1.4 -3,3l0,11.8c0,1.7 1.4,3.1 3,3.1z" class="st3"/>
   <polygon id="svg_7" points="22.3,25.3 22.6,26.5 24.6,25.4 24.7,25.4 24.7,35.5 26.2,35.5 26.2,24 24.8,24  " class="st2"/>
   <g id="svg_8">
    <path id="svg_9" d="m10.3,25.5c-1.1,0 -1.9,1.5 -1.9,4.3c0,2.7 0.7,4.2 1.9,4.2c1.3,0 1.9,-1.7 1.9,-4.3c0,-2.5 -0.6,-4.2 -1.9,-4.2z" class="st2"/>
    <path id="svg_10" d="m15.7,23.2l-9.3,0c-1.4,0 -2.5,1.1 -2.5,2.4l0,8.3c0,1.4 1.1,2.5 2.5,2.5l9.3,0c0.1,0 0.2,0 0.2,0l0,-13.2c-0.1,0 -0.2,0 -0.2,0zm-5.5,11.9c-1.8,0 -3,-1.9 -3,-5.3c0,-3.5 1.3,-5.4 3.2,-5.4c1.9,0 3,1.9 3,5.2c0,3.6 -1.1,5.5 -3.2,5.5z" class="st2"/>
   </g>
  </g>
 </g>
</svg>