<svg xmlns="http://www.w3.org/2000/svg" xmlns:xlink="http://www.w3.org/1999/xlink" version="1.1" style="enable-background:new 0 0 35 40;" xml:space="preserve" width="35" height="40"><rect id="backgroundrect" width="100%" height="100%" x="0" y="0" fill="none" stroke="none"/>
<style type="text/css">
	.st0{fill:none;stroke:#FFFFFF;stroke-width:2;stroke-miterlimit:10;}
	.st1{fill:#FFFFFF;}
	.st2{fill:none;stroke:#FFFFFF;stroke-width:1.5;stroke-miterlimit:10;}
	.st3{fill:none;stroke:#FFFFFF;stroke-miterlimit:10;}
	.st4{fill:none;stroke:#000000;stroke-miterlimit:10;}
</style>



<g class="currentLayer" style=""><title>Layer 1</title><rect width="35" height="40" id="svg_1" class="" y="0" x="0"/><g id="svg_2" class="">
	<path class="st0" d="M10.4,3.9c-1.7,0-3,2.1-3,6.1c0,3.8,1.2,6,3,6c2,0,3-2.4,3-6.1C13.4,6.3,12.5,3.9,10.4,3.9z" id="svg_3"/>
	<path class="st1" d="M29.2,3.4h-9.3c-0.1,0-0.2,0-0.2,0v13.2c0.1,0,0.2,0,0.2,0h9.3c1.4,0,2.5-1.1,2.5-2.5V5.8   C31.7,4.5,30.6,3.4,29.2,3.4z" id="svg_4"/>
	<path class="st2" d="M16.3,18.9H4.5c-1.7,0-3-1.4-3-3V4.1c0-1.6,1.4-3,3-3h11.8c1.6,0,3,1.4,3,3v11.8C19.3,17.5,18,18.9,16.3,18.9z   " id="svg_5"/>
	<polygon points="23.8,6.9 24,7.8 25.4,7 25.4,7 25.4,14 26.5,14 26.5,6 25.6,6  " id="svg_6"/>
</g><g id="svg_7" class="">
	<path class="st1" d="M3.9,25.6v8.3c0,1.4,1.1,2.5,2.5,2.5h9.3c0.1,0,0.2,0,0.2,0V23.2c-0.1,0-0.2,0-0.2,0H6.4   C5,23.2,3.9,24.3,3.9,25.6z" id="svg_8"/>
	<path class="st3" d="M19.2,38.7h11.8c1.6,0,3-1.3,3-3V23.8c0-1.6-1.3-3-3-3H19.2c-1.6,0-3,1.4-3,3v11.8   C16.2,37.3,17.6,38.7,19.2,38.7z" id="svg_9"/>
	<path class="st4" d="M9.9,25.9c-1.1,0-1.9,1.4-1.9,3.9c0,2.4,0.8,3.8,1.9,3.8c1.3,0,1.9-1.5,1.9-3.9C11.8,27.4,11.2,25.9,9.9,25.9z   " id="svg_10"/>
	<polygon class="st1" points="22.3,25.3 22.6,26.5 24.6,25.4 24.7,25.4 24.7,35.5 26.2,35.5 26.2,24 24.8,24  " id="svg_11"/>
</g></g></svg>