<svg xmlns="http://www.w3.org/2000/svg" xmlns:xlink="http://www.w3.org/1999/xlink" version="1.1" width="14" height="37" style="enable-background:new 0 0 573.699 573.699;" xml:space="preserve"><rect id="backgroundrect" width="100%" height="100%" x="0" y="0" fill="none" stroke="none" style="" class=""/>
















<g class="currentLayer" style=""><title>Layer 1</title><g id="svg_1" class="">
	<g id="svg_2">
		<path d="M9.260208973700259,28.10548085783219 c0,-0.11763040108073464 0,-0.11763040108073464 0,-0.2351988914240582 V10.108029492479808 c0,-0.7119734802254989 -0.4705216043229383,-1.182495084548437 -1.1824331738110256,-1.182495084548437 c-0.7119734802254989,0 -1.182495084548437,0.5943430791447639 -1.182495084548437,1.182495084548437 v17.762252473928328 c0,0.1175065796059128 0,0.1175065796059128 0,0.2351988914240582 c-1.4239469604509971,0.4767745888014406 -2.3649901690968735,1.7769000744306114 -2.3649901690968735,3.3122244514838406 c0,2.0120989658546695 1.5415773615317314,3.553676327386401 3.553676327386401,3.553676327386401 c2.012037055117259,0 3.553614416648992,-1.5415773615317314 3.553614416648992,-3.553676327386401 C11.631452127275622,29.8823809322628 10.68415593415125,28.58225544663363 9.260208973700259,28.10548085783219 z" fill="#FFFFFF" id="svg_3"/>
		<path d="M11.631452127275622,26.687663060384875 V5.37185808054497 c0,-2.0120989658546695 -1.5415773615317314,-3.553676327386401 -3.553676327386401,-3.553676327386401 c-2.0120989658546695,0 -3.553676327386401,1.659207762612466 -3.553676327386401,3.553676327386401 v21.309675816836222 c-1.4239469604509971,1.064926594205113 -2.3649901690968735,2.8417028471609025 -2.3649901690968735,4.736171411934837 c0,3.3122244514838406 2.6064420449994334,5.918666496483274 5.918666496483274,5.918666496483274 c3.3122244514838406,0 5.918604585745864,-2.6064420449994334 5.918604585745864,-5.918666496483274 C13.996380385635092,29.523236744542096 13.049208013985549,27.752589654589986 11.631452127275622,26.687663060384875 zM8.077775799889224,36.160005884254545 c-2.6064420449994334,0 -4.736171411934837,-2.1296055454605827 -4.736171411934837,-4.736171411934837 c0,-1.7767762529557896 0.9472342823869675,-3.3122244514838406 2.3649901690968735,-4.141704511315251 V5.37185808054497 c0,-1.300125485629171 1.064864683467702,-2.3649901690968735 2.3649901690968735,-2.3649901690968735 s2.364928258359462,1.064864683467702 2.364928258359462,2.3649901690968735 v21.903956985243582 c1.4239469604509971,0.829603881306233 2.365052079834284,2.365052079834284 2.365052079834284,4.141828332790074 C12.813947211824058,34.02408544357805 10.68415593415125,36.160005884254545 8.077775799889224,36.160005884254545 z" fill="#FFFFFF" id="svg_4"/>
	</g>
</g><g id="svg_5" class="">
</g><g id="svg_6" class="">
</g><g id="svg_7" class="">
</g><g id="svg_8" class="">
</g><g id="svg_9" class="">
</g><g id="svg_10" class="">
</g><g id="svg_11" class="">
</g><g id="svg_12" class="">
</g><g id="svg_13" class="">
</g><g id="svg_14" class="">
</g><g id="svg_15" class="">
</g><g id="svg_16" class="">
</g><g id="svg_17" class="">
</g><g id="svg_18" class="">
</g><g id="svg_19" class="">
</g></g></svg>