<svg xmlns="http://www.w3.org/2000/svg" version="1.1" style="enable-background:new 0 0 296.556 296.556;" width="32" height="44"><rect id="backgroundrect" width="100%" height="100%" x="0" y="0" fill="none" stroke="none" class="" style=""/>
  
  
  
  
  
  
  
  
  
  
  
  
  
  
  
  
  
<g class="currentLayer" style=""><title>Layer 1</title><g style="" id="svg_1" class="">
    <path d="M27.4789870560775,18.98789841041475 L27.4789870560775,20.895813536947067 C27.4789870560775,21.377480338605338 27.11744293966161,21.804744303227057 26.63806061483406,21.804744303227057 L25.99602684027439,21.804744303227057 C26.19209833438109,21.805725516720706 26.388929374950845,21.87266608173161 26.55092978485748,22.008509638740716 C26.91920131280332,22.31770091296047 26.967269753251173,22.866853398237225 26.658134342786326,23.235244553240232 L25.53867136287554,24.56925880971163 C25.3664713290364,24.774441453604993 25.119618728542356,24.88019446347564 24.871247035122202,24.88019446347564 C24.67365644808939,24.88019446347564 24.475089301318352,24.813362922186247 24.31189531839834,24.676429127961992 C23.94351528381492,24.367455901185266 23.89566385664223,23.818194392186996 24.20458225383192,23.44980323718398 L25.32415374038028,22.11578898071259 C25.495268707843625,21.911805597755905 25.740059682223652,21.80605258788525 25.98702078935527,21.804744303227057 L5.587772924353116,21.804744303227057 C5.108390599525566,21.804744303227057 4.692593164319777,21.377480338605338 4.692593164319777,20.895813536947067 L4.692593164319777,18.98789841041475 C4.692593164319777,17.63535012128561 5.814985823445215,16.57160567045271 7.161119169260196,16.57160567045271 L8.815845392352127,16.57160567045271 L8.815845392352127,14.827226126194594 L6.13030611225211,14.827226126194594 C5.650923787424559,14.827226126194594 5.235126352218771,14.469410272178648 5.235126352218771,13.987743470520375 L5.235126352218771,13.68542069075614 C5.235126352218771,7.975848394956287 9.683898492990517,3.282704254851339 15.217737009560249,2.867650947039423 L15.217737009560249,1.7443795442587111 C14.783710459241053,1.7443795442587111 14.367804517397685,1.3538565737879258 14.367804517397685,0.8721897721296523 C14.367804517397685,0.3905229704713788 14.774595901684352,5.930795151455658e-13 15.2539782265119,5.930795151455658e-13 L16.99008442778868,5.930795151455658e-13 C17.46946675261623,5.930795151455658e-13 17.840016919951243,0.3905229704713788 17.840016919951243,0.8721897721296523 C17.840016919951243,1.3538565737879258 17.49637639873602,1.7443795442587111 16.95384321083703,1.7443795442587111 L16.95384321083703,2.8782262480264866 C22.487681727406763,3.3543328398874377 26.82794723059871,8.019021788676678 26.82794723059871,13.685311667034624 L26.82794723059871,13.987634446798857 C26.82794723059871,14.469301248457128 26.466403114182818,14.827117102473078 25.98702078935527,14.827117102473078 L23.138721552885553,14.827117102473078 L23.138721552885553,16.57149664673119 L25.06471436992698,16.57149664673119 C26.410847715741962,16.57149664673119 27.4789870560775,17.635241097564098 27.4789870560775,18.98789841041475 zM9.38040542767982,10.061690235002933 C9.151564929024024,10.485029345650073 9.307488967226195,11.014557561053927 9.728711734310975,11.244488589731452 C9.86043879233285,11.316335222210583 10.002473980924805,11.350568670766648 10.142447543402746,11.350568670766648 C10.450389380854215,11.350568670766648 10.748565620923502,11.185506756391225 10.905900245414209,10.894522443664664 C11.788167715575552,9.262982451175747 13.48119678173315,8.100462508649228 15.32429052766361,7.8605012975922195 C15.79976661353829,7.798684847492572 16.13516063029745,7.361172653048333 16.07352886015212,6.883430705364642 C16.012005596644375,6.405906805123982 15.577110993224544,6.068478387031552 15.101092374161965,6.130621908295748 C12.71568245360767,6.441230490895208 10.523631361220579,7.947502227362093 9.38040542767982,10.061690235002933 zM10.551951593628905,16.57149664673119 L21.402615351608773,16.57149664673119 L21.402615351608773,14.827117102473078 L10.551951593628905,14.827117102473078 zM27.531070242115806,40.942223259561366 L27.531070242115806,42.846867674448184 C27.531070242115806,43.32777131005585 27.168332552686536,43.754272108626964 26.687539641570453,43.754272108626964 L5.572256475179205,43.754272108626964 C5.091355057425536,43.754272108626964 4.674364049206371,43.32777131005585 4.674364049206371,42.846867674448184 L4.674364049206371,40.942223259561366 C4.674364049206371,39.591855444862546 5.800120414096782,38.52996439729541 7.150485518777376,38.52996439729541 L8.81031155383556,38.52996439729541 L8.81031155383556,36.78841946979672 L6.116417262641896,36.78841946979672 C5.6356243515258075,36.78841946979672 5.218524836669063,36.431257758109865 5.218524836669063,35.950354122502205 L5.218524836669063,35.64857646134555 C5.218524836669063,29.9484892293176 9.681077320413442,25.263194797161816 15.231951379083203,24.84890465540051 L15.231951379083203,23.727486655885574 C14.79662274911305,23.727486655885574 14.379414727618725,23.337617827743884 14.379414727618725,22.85671419213622 C14.379414727618725,22.375919580250077 14.78739968491877,21.98605075210839 15.268301102672435,21.98605075210839 L17.009724129190626,21.98605075210839 C17.49062554694429,21.98605075210839 17.862369287292683,22.375919580250077 17.862369287292683,22.85671419213622 C17.862369287292683,23.337617827743884 17.51764369970166,23.727486655885574 16.973374405601394,23.727486655885574 L16.973374405601394,24.85937093266606 C22.52435697090873,25.334714358476393 26.877968790523,29.99166262303799 26.877968790523,35.648467437624035 L26.877968790523,35.9502450987807 C26.877968790523,36.43114873438835 26.515339607731306,36.7883104460752 26.034438189977642,36.7883104460752 L23.17734991586396,36.7883104460752 L23.17734991586396,38.529855373573895 L25.10931059797228,38.529855373573895 C26.459567196015293,38.529855373573895 27.531070242115806,39.59174642114103 27.531070242115806,40.942223259561366 zM9.376607695364527,32.03084231027574 C9.147007650245673,32.45352727859378 9.303474221635744,32.98218330422551 9.725999068371479,33.21167823801696 C9.858160152943674,33.283415846774574 10.00062936808595,33.31764929533064 10.14103695711421,33.31764929533064 C10.449846847666317,33.31764929533064 10.74899964747382,33.152805428398246 10.906768298514848,32.86236623427928 C11.791748434615686,31.233551834828255 13.490094326014693,30.07288529556751 15.338830417099304,29.833360179396568 C15.81571708926252,29.771652753018433 16.152196172397474,29.334903724624812 16.09034738897699,28.857924942991733 C16.028715618831665,28.381164208801685 15.592410429123294,28.04438993303835 15.11498122377218,28.10642443058103 C12.72219285186246,28.416487894572906 10.52330584130784,29.92025208544492 9.376607695364527,32.03084231027574 zM10.551734580353747,38.529855373573895 L21.435926889345776,38.529855373573895 L21.435926889345776,36.7883104460752 L10.551734580353747,36.7883104460752 zM5.567916209676013,23.2775457571885 C5.258672292573587,22.909045578463964 5.306632226383858,22.35989309318721 5.675120767604854,22.05081084268897 C6.04360930882585,21.741510544747708 6.592761401617213,21.789590005936322 6.901896812082057,22.157981160939332 L8.021251285355262,23.49188639368921 C8.330495202457687,23.860386572413738 8.282535268647417,24.409539057690488 7.91404672742642,24.718730331910248 C7.750961251143982,24.855664126134513 7.552285597735371,24.922495667423902 7.354803517340137,24.922495667423902 C7.106323317282399,24.922495667423902 6.859579223425937,24.81674265755325 6.687379189586797,24.61145098993838 zM4.236756779847043,28.656449105629914 C4.089079246100937,28.656449105629914 3.939448592878394,28.618944945428368 3.802296202977529,28.53979372360765 L2.294053940618327,27.669021259858305 C1.877605465587059,27.428623953915235 1.7348107305320442,26.895934050587417 1.9752614394088783,26.4795724581173 C2.215820654923292,26.062992818204155 2.7483712321649447,25.920389790461055 3.1648197071962114,26.16067807268261 L4.673061969555414,27.031450536431965 C5.0894019379491,27.27184784237504 5.232196673004116,27.804537745702856 4.991854470764862,28.221008361894484 C4.830505100683701,28.50032713641881 4.537754192493404,28.656449105629914 4.236756779847043,28.656449105629914 zM3.4435732591387147,32.511418874718835 C3.3691377057589724,32.93388579559385 3.001625724276195,33.23108446044682 2.5870218620837835,33.23108446044682 C2.5368917955219166,33.23108446044682 2.4861106891345703,33.22672351158619 2.434895556196906,33.217783566421865 L0.7197311359730275,32.91546078665763 C0.2462081695747862,32.83183959225476 -0.07008867897032711,32.38026333773494 0.013352925328538118,31.906664291468854 C0.09701154290256297,31.433065245202776 0.5498097415230631,31.117441571413565 1.0221391349079267,31.20029959976583 L2.737303555131805,31.502622379530067 C3.210935028167626,31.586243573932943 3.5271233700751594,32.03781982845276 3.4435732591387147,32.511418874718835 zM31.55786006933971,32.814613844255206 L29.842695649115836,33.11693662401944 C29.79169752945333,33.12587656918377 29.740699409790825,33.13012849432289 29.690569343228958,33.13012849432289 C29.275965481036543,33.13012849432289 28.908670512828927,32.83303885319143 28.83412645281161,32.41057193231643 C28.75057634187516,31.93686386232882 29.06676468378269,31.485396631530513 29.5405046634561,31.40177543712764 L31.25556057704239,31.099561681084918 C31.729843089903692,31.017466818783276 32.180796675685336,31.33221830280035 32.264346786621786,31.80592637278795 C32.34778839092064,32.279634442775546 32.031600049013115,32.73110167357385 31.55786006933971,32.814613844255206 zM29.95239585970901,27.593031725961556 L28.44415359734981,28.463695165989396 C28.307218220724103,28.542737364088588 28.1573705542264,28.580350548011662 28.0096930204803,28.580350548011662 C27.708804114471516,28.580350548011662 27.41605320628122,28.424228578800555 27.25481234283764,28.144800780554707 C27.014361633960803,27.728330164363083 27.157156369015823,27.19585830847829 27.573713350684667,26.955351978813702 L29.08195561304387,26.084797562507386 C29.498078568162395,25.8442912328428 30.031063171954365,25.98711230802893 30.271296867556035,26.403691947942068 C30.51174757643287,26.820053540412182 30.36895284137786,27.35252539629697 29.95239585970901,27.593031725961556 z" style="fill: rgb(255, 255, 255);" stroke-width="0" id="svg_2"/>
    <path d="M5.00910702614005,6.245423887052235 c0.23969116241377533,-0.41712475852072245 0.09733045390907952,-0.9506868516206742 -0.31781594147123043,-1.1915202524498105 l-1.5035764769432702,-0.8721897721290589 c-0.4151463953803099,-0.2407243771076203 -0.9460693730582647,-0.09790330192148693 -1.1858690421096199,0.31933048032075184 c-0.23969116241377533,0.41712475852072245 -0.09733045390907952,0.9506868516206742 0.31781594147123043,1.1915202524498105 l1.5035764769432702,0.8721897721290589 c0.1367183633505464,0.07926024554222826 0.28591499002276977,0.11687342946529393 0.4331584972185565,0.11687342946529393 C4.556417334157128,6.681627796838281 4.848300189246789,6.525178756462631 5.00910702614005,6.245423887052235 z" style="fill: rgb(134, 38, 38); visibility: hidden;" stroke-width="0" id="svg_3"/>
  </g><g id="svg_4" class=""/><g id="svg_5" class=""/><g id="svg_6" class=""/><g id="svg_7" class=""/><g id="svg_8" class=""/><g id="svg_9" class=""/><g id="svg_10" class=""/><g id="svg_11" class=""/><g id="svg_12" class=""/><g id="svg_13" class=""/><g id="svg_14" class=""/><g id="svg_15" class=""/><g id="svg_16" class=""/><g id="svg_17" class=""/><g id="svg_18" class=""/><g style="" id="svg_19" class=""/></g></svg>