<svg xmlns="http://www.w3.org/2000/svg" width="30" height="30"><rect id="backgroundrect" width="100%" height="100%" x="0" y="0" fill="none" stroke="none" style="" class=""/>
  
<g class="currentLayer" style=""><title>Layer 1</title><path d="M0,0 L30.341698229312897,0 L30.341698229312897,6.742599606513977 L26.454252426177263,6.742599606513977 L24.20660684734583,13.485199213027954 L6.135091381967069,13.485199213027954 L3.887445803135633,6.742599606513977 L0,6.742599606513977 zM20.520427642464636,10.956724360585213 L23.27275680184364,10.956724360585213 L24.11558175265789,8.428249508142471 L20.94184011787176,8.428249508142471 zM16.013674065470695,9.966236478388309 L16.013674065470695,10.956724360585213 L18.811852902173996,10.956724360585213 L19.23326537758112,8.428249508142471 L17.55199816569686,8.428249508142471 C17.297465030550956,9.144650716334581 16.730075273662806,9.712040473222732 16.013674065470695,9.966236478388309 zM14.328024163842201,7.585424557328224 C14.328024163842201,8.049989670217037 14.706284001767635,8.428249508142471 15.170849114656448,8.428249508142471 C15.635414227545262,8.428249508142471 16.013674065470695,8.049989670217037 16.013674065470695,7.585424557328224 C16.013674065470695,7.120859444439411 15.635414227545262,6.742599606513977 15.170849114656448,6.742599606513977 C14.706284001767635,6.742599606513977 14.328024163842201,7.120859444439411 14.328024163842201,7.585424557328224 zM11.109107111692428,8.428249508142471 L11.530519587099551,10.956724360585213 L14.328361293822525,10.956724360585213 L14.328361293822525,9.966573608368636 C13.611960085630416,9.712040473222732 13.044570328742266,9.144650716334581 12.790037193596364,8.428249508142471 zM6.226116476655006,8.428249508142471 L7.0689414274692535,10.956724360585213 L9.821270586848259,10.956724360585213 L9.399858111441135,8.428249508142471 zM14.574803309440611,29.25209413290024 L13.38271169900894,30.443848613351584 C10.77062861144543,27.831428395807745 10.77062861144543,23.58089360386133 13.38271169900894,20.96847338631749 C13.69253415092826,20.658650934398175 13.863121920973065,20.24600383847952 13.863121920973065,19.806386344134808 C13.863121920973065,19.366768849790095 13.69253415092826,18.95412175387144 13.383048828989269,18.64463643193245 L14.574803309440611,17.45254482150078 C15.202876462787387,18.08028084486723 15.548771822601559,18.91636319607496 15.548771822601559,19.806386344134808 C15.548771822601559,20.696409492194654 15.202876462787387,21.53215471342206 14.574803309440611,22.160227866768835 C12.619786553531885,24.11558175265789 12.619786553531885,27.296740247011186 14.574803309440611,29.25209413290024 zM16.958986530303957,15.068698730617761 C19.57106961786747,17.6811189481616 19.57106961786747,21.931653740108015 16.958986530303957,24.544073957651854 C16.649164078384636,24.85389640957117 16.478576308339836,25.266543505489825 16.478576308339836,25.706160999834538 C16.478576308339836,26.14577849417925 16.649164078384636,26.558425590097904 16.95864940032363,26.867910912036894 L15.766894919872286,28.060002522468565 C15.13882176652551,27.432266499102116 14.792926406711338,26.596184147894384 14.792926406711338,25.706160999834538 C14.792926406711338,24.81613785177469 15.13882176652551,23.980392630547286 15.766894919872286,23.35231947720051 C17.721911675781012,21.396965591311456 17.721911675781012,18.21580709695816 15.766894919872286,16.260453211069105 z" style="fill: rgb(255, 255, 255);" id="svg_1" class=""/></g></svg>