<svg xmlns="http://www.w3.org/2000/svg" version="1.1" enable-background="new 0 0 1000 1000" width="24" height="30"><rect id="backgroundrect" width="100%" height="100%" x="0" y="0" fill="none" stroke="none" style="" class=""/>
  
<g class="currentLayer" style=""><title>Layer 1</title><g id="svg_1" class="">
    <g transform="translate(0,511) scale(0.10000000149011612,-0.10000000149011612) " id="svg_2">
      <path d="M80.03314531832257,5107.869177162286 c-9.137111852836805,-5.8740762631805135 -19.826155266607696,-26.107345726246262 -24.06871373496006,-45.85085374996398 c-1.0591091125901289,-4.814967150590383 -1.469284318044109,-10.361515451206893 -1.469284318044109,-17.949756752105532 c0,-15.828477517929349 2.6936879164142002,-31.412074316184682 10.278868208316911,-58.17141495856302 c2.773274150308255,-9.954401254748841 3.6701497861143477,-12.07568048892502 5.056786861268474,-12.482794685383075 c0.9795228786960726,-0.2448807196740181 4.8945533844844356,-0.8968756358061127 8.892231133162783,-1.469284318044109 c5.8740762631805135,-0.8968756358061127 7.098479861550603,-0.8968756358061127 7.098479861550603,0.08264724288998422 c0,0.5724086822380298 -1.6315177948281459,14.521426676669279 -3.6701497861143477,31.001899110730694 c-2.0386319912862003,16.480472434061422 -3.5079163093303096,30.512137671382657 -3.2630355896562913,31.08454635362068 c0.2448807196740181,0.6519949161321008 1.3866370751541282,0.9795228786960726 3.018154869982274,0.8172894019120355 l2.6906269074182747,-0.2448807196740181 l3.9150305057883656,-31.819188512642736 c2.1212792341761824,-17.459995312757492 4.159911225462384,-31.981421989426767 4.487439188026383,-32.30894995199077 c0.3275279625640124,-0.3275279625640124 3.997677748678346,-0.7346421590220545 8.157588974140731,-0.8968756358061127 l7.505594058008656,-0.3275279625640124 v44.46421667480983 c-0.08264724288998422,55.643021527928774 -0.8968756358061127,66.00453697913568 -6.608718422202565,80.93307785226301 C96.84114571494865,5108.276291358744 88.60090949791811,5113.253491986118 80.03314531832257,5107.869177162286 z" style="fill: rgb(255, 255, 255);" id="svg_3"/>
      <path d="M141.14312891297413,5061.525500963978 c-4.977200627374421,-1.469284318044109 -8.48511693670473,-5.056786861268474 -9.219759095726783,-9.219759095726783 c-1.7141650377181272,-10.361515451206893 10.606396170880913,-33.94046774681892 25.7002315297882,-49.03430310572622 c18.519104425347624,-18.519104425347624 31.08454635362068,-17.052881116299442 35.57198554164706,4.159911225462384 c1.5488705519381651,7.01583261866062 1.1417563554801098,18.684398911127587 -0.8968756358061127,26.43487368881026 c-1.9590457573921451,7.5882413008986385 -6.5260711793125825,16.2355917143874 -10.278868208316911,19.498627304043694 C173.6938985756433,5060.466391851388 151.9117585606391,5064.871183796524 141.14312891297413,5061.525500963978 z" style="fill: rgb(255, 255, 255);" id="svg_4"/>
      <path d="M131.5162556207897,4998.704413340604 V4969.578912744376 l7.7504747776826735,0.40711419645805536 c4.325205711242347,0.2448807196740181 7.995355497356692,0.6519949161321008 8.240236217030711,0.8172894019120355 c0.2448807196740181,0.2448807196740181 1.2244035983700905,6.936246384766564 2.2008654680702384,14.766307396343292 l1.7141650377181272,14.276545956995257 l-4.487439188026383,5.549609309612436 c-5.304728589938419,6.608718422202565 -10.361515451206893,14.03166523732124 -12.889908881841132,18.929279630801606 c-0.9795228786960726,1.876398514502164 -1.9590457573921451,3.4252690664403294 -2.1212792341761824,3.4252690664403294 C131.67848909757322,5027.750327702939 131.5162556207897,5014.695124335318 131.5162556207897,4998.704413340604 z" style="fill: rgb(255, 255, 255);" id="svg_5"/>
      <path d="M115.19801666351213,5014.695124335318 V5004.088728164437 h5.3016675809424925 h5.304728589938419 v10.606396170880913 V5025.301520506198 h-5.304728589938419 h-5.3016675809424925 V5014.695124335318 z" style="fill: rgb(255, 255, 255);" id="svg_6"/>
      <path d="M47.88948985211209,5017.388812251732 c-6.446484945418527,-1.6315177948281459 -20.071035986281714,-6.770951898986602 -26.75934064237834,-10.199281974422854 C-2.858978291332278,4994.872030077706 -6.52912807744633,4978.471143877538 11.910390114006987,4965.3363542760235 c18.35687094856359,-12.972556124731112 49.19653658251025,-20.967911622087804 89.99060347120574,-23.41671881882798 c62.57620690369941,-3.590563552220291 124.09330469480872,12.810322647947073 133.72017798699352,35.65463278453705 c4.080324991568328,9.789106768968873 -3.180388346766312,21.050558864977788 -19.00886586469566,29.208147839118514 c-8.157588974140731,4.159911225462384 -15.418302312475367,7.098479861550603 -16.073358237603365,6.446484945418527 c-0.3244669535680832,-0.2448807196740181 -0.4897614393480363,-1.6315177948281459 -0.4897614393480363,-3.1008021128722554 c0,-3.1008021128722554 -2.6906269074182747,-11.748152526361023 -4.814967150590383,-15.828477517929349 l-1.5488705519381651,-2.855921393198238 l2.773274150308255,-3.018154869982274 c1.5519315609340905,-1.7141650377181272 2.773274150308255,-3.997677748678346 2.773274150308255,-5.056786861268474 c0,-9.70952053507482 -29.615262035576574,-18.60175166823761 -66.49429841848372,-19.98838874339173 c-43.72957451578778,-1.6315177948281459 -81.75036725417503,4.570086430916364 -92.27411618216597,15.093835358907295 c-1.7141650377181272,1.7937512716121837 -2.773274150308255,3.590563552220291 -2.773274150308255,4.977200627374421 c0,3.180388346766312 5.9567235060704915,8.48511693670473 12.07568048892502,10.76862964766495 c2.773274150308255,1.062170121586054 5.059847870264401,2.283512710960219 5.059847870264401,2.855921393198238 c0,1.876398514502164 -4.4047919451364015,20.885264379197817 -4.814967150590383,20.80567814530377 C49.76588836661449,5017.79592644819 48.786365487918374,5017.551045728516 47.88948985211209,5017.388812251732 z" style="fill: rgb(255, 255, 255);" id="svg_7"/>
      <path d="M155.664555589643,4983.203463785239 c-0.7346421590220545,-6.118956982854529 -1.2244035983700905,-11.341038329902965 -0.9795228786960726,-11.503271806687007 c0.4897614393480363,-0.5724086822380298 16.318238957277387,2.283512710960219 17.29776183597346,3.1008021128722554 c0.4897614393480363,0.40711419645805536 1.307050841260072,2.2039264770661635 1.876398514502164,4.080324991568328 c0.5693476732421054,1.876398514502164 1.2244035983700905,3.8354442718943096 1.469284318044109,4.487439188026383 c0.2448807196740181,0.6519949161321008 -0.08264724288998422,1.1417563554801098 -0.6519949161321008,1.1417563554801098 c-1.9590457573921451,0 -9.219759095726783,3.752797029004328 -13.21743684440513,6.8535991418765825 c-2.1212792341761824,1.6315177948281459 -3.997677748678346,2.938568636088218 -4.080324991568328,2.938568636088218 C157.2134261415813,4994.299621395468 156.4818449915556,4989.322420768093 155.664555589643,4983.203463785239 z" style="fill: rgb(255, 255, 255);" id="svg_8"/>
      <path d="M0.5693517841036736,4964.032364443759 c4.242558468352365,-19.498627304043694 38.50749316873936,-34.592462662950986 88.92843334961967,-39.07990185097737 c12.645028162167115,-1.1417563554801098 45.36109231061595,-1.1417563554801098 57.92653423888899,0 C197.84525955349272,4929.439901780808 232.11019425387985,4944.53067613072 236.35275272223225,4964.032364443759 l0.5724086822380298,2.855921393198238 l-3.9150305057883656,-3.3456828325462733 C221.17933112943138,4953.750435226447 205.26820636861157,4946.899897093566 182.0994292784544,4941.7574019804115 c-19.98838874339173,-4.4047919451364015 -38.4279069348453,-6.201604225744511 -63.63837702528547,-6.201604225744511 c-32.388536185884824,0 -58.08876771567303,3.5079163093303096 -81.82995348806911,11.178804853118931 c-14.766307396343292,4.7323199077004015 -23.658538529506078,9.302406338616764 -32.71606414844882,16.80800039662542 l-3.9150305057883656,3.3456828325462733 L0.5693517841036736,4964.032364443759 z" style="fill: rgb(255, 255, 255);" id="svg_9"/>
      <path d="M34.18229156835878,4923.5627645086315 c-0.8968756358061127,-9.299345329620841 -0.6519949161321008,-11.830799769251001 1.303989832264147,-15.17342159280135 c6.5260711793125825,-10.76862964766495 30.105023474924607,-19.581274546933678 60.45492766952322,-22.68207665980593 c14.114312480211224,-1.3866370751541282 44.546863917699824,-0.5724086822380298 57.191892079866946,1.6315177948281459 c25.127822847550192,4.325205711242347 41.69094252450159,11.420624563797022 47.809899507356114,20.47815018273976 l2.528393430634237,3.6701497861143477 l-0.5724086822380298,8.56776417959471 c-0.3275279625640124,4.7323199077004015 -0.6519949161321008,8.647350413488764 -0.8172894019120355,8.812644899268728 c-0.08264724288998422,0.1622334767840419 -3.5079163093303096,-0.6519949161321008 -7.422946815118676,-1.7937512716121837 c-24.475827931418117,-7.01583261866062 -51.890224498924454,-10.037048497638818 -84.76852212415731,-9.219759095726783 c-29.45302855879254,0.7346421590220545 -47.97213298414016,3.5079163093303096 -73.51013103714433,10.851276890554931 C34.834286484490804,4929.112373818244 34.67205300770729,4928.78484585568 34.18229156835878,4923.5627645086315 z" style="fill: rgb(255, 255, 255);" id="svg_10"/>
      <path d="M31.733484371618943,4896.64119038947 c-2.6936879164142002,-26.841987885268313 -4.814967150590383,-55.070612845690746 -4.325205711242347,-57.599006276325 c2.1212792341761824,-11.420624563797022 24.88294212787617,-22.27190145435195 56.784777883408886,-27.086868604942335 c14.114312480211224,-2.1212792341761824 46.01308722674801,-2.611040673524218 61.18956982854529,-0.8968756358061127 c19.98838874339173,2.283512710960219 37.938145495497274,7.01583261866062 49.35877005929429,12.972556124731112 c6.770951898986602,3.590563552220291 13.952079003427187,10.851276890554931 14.766307396343292,14.848954639233273 c0.3275279625640124,1.7937512716121837 -0.4897614393480363,15.093835358907295 -2.0386319912862003,32.14671647520673 c-1.3866370751541282,15.990710994713384 -2.528393430634237,29.370381315902556 -2.528393430634237,29.780556521356534 c0,0.3244669535680832 -1.5488705519381651,-0.6519949161321008 -3.5079163093303096,-2.2039264770661635 c-23.9034192491801,-19.581274546933678 -87.86932423702957,-26.189992969136245 -135.18946230503767,-14.03166523732124 c-13.13478960151515,3.3456828325462733 -23.41671881882798,8.078002740246676 -30.677432157162627,13.952079003427187 l-3.3456828325462733,2.773274150308255 L31.733484371618943,4896.64119038947 z" style="fill: rgb(255, 255, 255);" id="svg_11"/>
    </g>
  </g></g></svg>