<svg xmlns="http://www.w3.org/2000/svg" xmlns:xlink="http://www.w3.org/1999/xlink" version="1.1" style="enable-background:new 0 0 76.5 70.9;" xml:space="preserve" width="25" height="24"><rect id="backgroundrect" width="100%" height="100%" x="0" y="0" fill="none" stroke="none" class="" style=""/>
<style type="text/css">
	.st0{fill:none;stroke:#FFFFFF;stroke-miterlimit:10;}
	.st1{fill:#FFFFFF;}
</style>


<g class="currentLayer" style=""><title>Layer 1</title><image style="display:none;overflow:visible;" width="61.000000000000014" height="46.00000000000001" transform="matrix(3.4389,0,0,3.4389,-53.9986,-43.6619) " id="svg_1" xlink:href="Untitled-1.png" class="" y="0" x="0">
</image><g id="svg_2" class="">
	<path class="st0" d="M25.109740245688215,16.614904657006264 h-13.917364031076431 c-2.0714216232299805,0 -3.7868176549673076,-1.7153960317373276 -3.7868176549673076,-3.7868176549673076 v-0.5178554058074951 c0,-2.0714216232299805 1.7153960317373276,-3.7868176549673076 3.7868176549673076,-3.7868176549673076 h13.917364031076431 V1.5323659628629684 c-0.09709788858890535,0 -0.1941957771778107,0 -0.32365962862968445,0 H11.386571991789591 C5.593064639318241,1.5 0.9000000241878165,6.225430577993394 0.9000000241878165,12.018937930464745 v1.0357108116149902 c0,5.761141389608383 4.725430577993393,10.486571967601776 10.486571967601776,10.486571967601776 h13.431874588131905 c0.09709788858890535,0 0.1941957771778107,0 0.32365962862968445,0 V16.614904657006264 z" id="svg_3"/>
	<line class="st0" x1="17.147712887532577" y1="1.5" x2="17.147712887532577" y2="8.523414188196853" id="svg_4"/>
	<line class="st0" x1="17.147712887532577" y1="16.51780726228276" x2="17.147712887532577" y2="23.54122021581611" id="svg_5"/>
	<g id="svg_6">
		<path class="st1" d="M21.25819066499497,3.2801279574632645 v1.521200254559517 h1.45646832883358 V5.222085729241371 h-1.45646832883358 v1.5535662174224854 h-0.4207575172185898 V5.222085729241371 H19.3809648189428 v-0.38839155435562134 h1.45646832883358 V3.2801279574632645 H21.25819066499497 z" id="svg_7"/>
	</g>
	<g id="svg_8">
		<path class="st1" d="M22.74702495669152,19.722037091851234 v0.6149532943964005 H19.348598856079832 v-0.6149532943964005 H22.74702495669152 z" id="svg_9"/>
	</g>
</g></g></svg>