<svg xmlns="http://www.w3.org/2000/svg" version="1.0" width="42" height="33"><rect id="backgroundrect" width="100%" height="100%" x="0" y="0" fill="none" stroke="none" style="" class=""/>
  <g class="currentLayer" style="">
    <title transform="matrix(57.415108,0,0,57.415108,-113.332069,0) " stroke-width="0">Layer 1</title>
    <g id="layer1" class="" stroke-width="0">
      <path d="M4.129660233714375,0 C4.180661545028632,0.08500218552376035 4.231662856342886,0.1666042836265703 4.286064255078094,0.25160646915033064 C4.711075182696896,0.9112234288147107 5.248288995207061,1.4926383777972314 5.877305168082888,1.9618504418883884 C6.38051810638355,2.339260145613885 6.941532530840367,2.6452680134994218 7.53654782950669,2.8594735210192974 C8.712978077155533,3.2912846234799997 10.015211559379543,3.3694866341618592 11.23584294350074,3.0872793782229753 C11.858058941534662,2.944475706543058 12.453074240200984,2.709869674497479 13.003888402394953,2.393661544349091 C13.592103526219372,2.05365280225405 14.132717426150485,1.621841699793347 14.588329140557844,1.118628761492686 C14.897737095864331,0.7752199319766943 15.173144176961317,0.4012103156721488 15.404350121585946,0 L18.974441913583878,0 C18.855438853850607,0.3332085672531407 18.719435357012593,0.6630170470853306 18.566431423069826,0.9792251772337188 C18.056418309927267,2.0366523651492976 17.35600030121148,2.9988771052782646 16.502578358552928,3.8114979988854123 C16.087767693196977,4.205908139715661 15.62875589136867,4.549316969231653 15.14934356501466,4.868925186800991 L15.224145488275571,4.923326585536198 L15.322748023483133,4.987928246534255 L15.417950471269744,5.055929994953264 L15.516553006477306,5.1273318307932225 L15.611755454263918,5.195333579212231 L15.703557814629582,5.26673541505219 L15.795360174995242,5.334737163471198 L15.978964895726563,5.484341009993017 L16.067367168671275,5.562543020674876 L16.155769441615984,5.637344943935785 L16.247571801981646,5.715546954617644 L16.332573987505402,5.790348877878554 L16.41757617302917,5.868550888560413 L16.502578358552928,5.953553074084173 L16.587580544076687,6.031755084766032 L16.67258272960045,6.113357182868842 L16.754184827703256,6.1983593683926035 L16.832386838385116,6.283361553916364 L16.917389023908882,6.368363739440124 L16.99559103459074,6.453365924963883 L17.0737930452726,6.541768197908595 L17.223396891794415,6.718572743798015 L17.301598902476275,6.806975016742726 L17.451202748998096,6.990579737474048 L17.5192044974171,7.0823820978397105 L17.59060633325706,7.17418445820537 L17.658608081676068,7.272786993412934 L17.730009917516025,7.367989441199545 L17.798011665935036,7.466591976407107 L17.86261332693309,7.561794424193718 L17.9306150753521,7.65699687198033 L17.995216736350155,7.758999494608842 L18.17882145708148,8.054807100231528 L18.240023030658588,8.156809722860041 L18.294424429393793,8.262212432909505 L18.35222591554995,8.364215055538015 L18.41002740170611,8.46961776558748 L18.518830199176524,8.680423185686404 L18.56983151049078,8.785825895735869 L18.62083282180503,8.894628693206279 L18.67183413311929,9.000031403255743 L18.716035269591643,9.108834200726157 L18.811237717378255,9.326439795666984 L18.855438853850607,9.438642680558347 L18.89623990290202,9.55084556544971 L18.940441039374377,9.659648362920125 L18.977842001004827,9.775251335232436 L19.01864305005623,9.8874542201238 L19.056044011686687,9.999657105015164 L19.09344497331714,10.11526007732748 L19.127445847526644,10.23086304963979 L19.16144672173615,10.343065934531156 L19.19544759594566,10.46206899426442 L19.22264829531326,10.581072053997687 L19.25324908210181,10.693274938889047 L19.280449781469414,10.815678086043262 L19.31105056825797,10.931281058355577 L19.358651792151274,11.169287177822108 L19.37905231667698,11.288290237555373 L19.402852928623627,11.407293297288636 L19.41985336572838,11.5330965318638 L19.43685380283313,11.652099591597064 L19.453854239937886,11.774502738751279 L19.494655288989293,12.141712180213926 L19.50485555125214,12.267515414789088 L19.511655726094045,12.389918561943302 L19.518455900935944,12.515721796518472 L19.525256075777843,12.638124943672686 L19.528656163198796,12.767328265668798 L19.532056250619746,12.893131500243964 L19.532056250619746,13.141337881973346 L19.528656163198796,13.267141116548512 L19.525256075777843,13.396344438544626 L19.518455900935944,13.518747585698843 L19.511655726094045,13.644550820274008 L19.50485555125214,13.766953967428224 L19.494655288989293,13.889357114582436 L19.481054939305487,14.0151603491576 L19.453854239937886,14.259966643466033 L19.43685380283313,14.382369790620247 L19.41985336572838,14.50137285035351 L19.402852928623627,14.623775997507726 L19.37905231667698,14.746179144661939 L19.358651792151274,14.865182204395204 L19.31105056825797,15.103188323861731 L19.280449781469414,15.218791296174045 L19.25324908210181,15.341194443328263 L19.22264829531326,15.453397328219626 L19.19544759594566,15.572400387952891 L19.16144672173615,15.691403447686158 L19.127445847526644,15.803606332577516 L19.09344497331714,15.919209304889835 L19.056044011686687,16.031412189781197 L19.01864305005623,16.147015162093513 L18.977842001004827,16.259218046984873 L18.940441039374377,16.37142093187624 L18.89623990290202,16.483623816767604 L18.855438853850607,16.595826701658968 L18.811237717378255,16.708029586550328 L18.716035269591643,16.925635181491153 L18.67183413311929,17.034437978961567 L18.62083282180503,17.13984068901103 L18.56983151049078,17.248643486481445 L18.518830199176524,17.35404619653091 L18.41002740170611,17.564851616629834 L18.35222591554995,17.670254326679295 L18.294424429393793,17.77225694930781 L18.240023030658588,17.87765965935727 L18.17882145708148,17.97966228198578 L18.117619883504375,18.074864729772397 L18.056418309927267,18.176867352400908 L17.995216736350155,18.27546988760847 L17.9306150753521,18.37747251023698 L17.86261332693309,18.472674958023592 L17.798011665935036,18.567877405810208 L17.730009917516025,18.666479941017766 L17.658608081676068,18.761682388804378 L17.59060633325706,18.856884836590993 L17.5192044974171,18.9520872843776 L17.451202748998096,19.043889644743263 L17.301598902476275,19.227494365474588 L17.223396891794415,19.3158966384193 L17.0737930452726,19.492701184308718 L16.99559103459074,19.581103457253427 L16.917389023908882,19.66610564277719 L16.832386838385116,19.75110782830095 L16.754184827703256,19.836110013824708 L16.67258272960045,19.92111219934847 L16.587580544076687,20.002714297451277 L16.502578358552928,20.080916308133137 L16.41757617302917,20.1659184936569 L16.332573987505402,20.244120504338756 L16.247571801981646,20.31892242759967 L16.155769441615984,20.397124438281526 L16.067367168671275,20.471926361542437 L15.978964895726563,20.55012837222429 L15.795360174995242,20.699732218746114 L15.703557814629582,20.76773396716512 L15.611755454263918,20.839135803005075 L15.516553006477306,20.90713755142409 L15.417950471269744,20.978539387264046 L15.322748023483133,21.043141048262104 L15.224145488275571,21.111142796681108 L15.12894304048896,21.179144545100122 L15.030340505281396,21.24034611867723 L14.931737970073836,21.304947779675285 L14.829735347445322,21.366149353252393 L14.731132812237759,21.427350926829504 L14.629130189609253,21.48515241298566 L14.523727479559787,21.542953899141818 L14.421724856931272,21.600755385297973 L14.316322146881811,21.658556871454127 L14.105516726782884,21.767359668924545 L14.00011401673342,21.818360980238797 L13.891311219263008,21.869362291553056 L13.785908509213547,21.920363602867308 L13.677105711743135,21.964564739339664 L13.459500116802309,22.05976718712628 L13.347297231910943,22.103968323598636 L13.235094347019581,22.144769372650035 L13.126291549549169,22.18897050912239 L13.010688577236854,22.226371470752852 L12.89848569234549,22.267172519804255 L12.786282807454125,22.304573481434712 L12.670679835141812,22.341974443065162 L12.555076862829496,22.37597531727467 L12.442873977938135,22.40657610406322 L12.323870918204872,22.443977065693677 L12.208267945892551,22.47117776506128 L12.092664973580241,22.50177855184983 L11.970261826426025,22.528979251217436 L11.85465885411371,22.55617995058504 L11.73565579438045,22.58338064995264 L11.616652734647182,22.603781174478343 L11.395647052285408,22.647982310950702 L11.395647052285408,26.034469382217313 L14.64953071413495,26.034469382217313 L14.64953071413495,29.288353044066863 L11.395647052285408,29.288353044066863 L11.395647052285408,32.5422367059164 L8.14176339043586,32.5422367059164 L8.14176339043586,29.288353044066863 L4.887879728586317,29.288353044066863 L4.887879728586317,26.034469382217313 L8.14176339043586,26.034469382217313 L8.14176339043586,22.647982310950702 L8.039760767807348,22.627581786425 L7.924157795495035,22.603781174478343 L7.8017546483408236,22.58338064995264 L7.68275158860756,22.55617995058504 L7.567148616295245,22.528979251217436 L7.444745469141028,22.50177855184983 L7.332542584249662,22.47117776506128 L7.213539524516401,22.443977065693677 L7.097936552204085,22.40657610406322 L6.982333579891772,22.37597531727467 L6.866730607579457,22.341974443065162 L6.7545277226880955,22.304573481434712 L6.63892475037578,22.267172519804255 L6.526721865484418,22.226371470752852 L6.414518980593052,22.18897050912239 L6.3023160957016895,22.144769372650035 L6.190113210810326,22.103968323598636 L6.077910325918964,22.05976718712628 L5.860304730978137,21.964564739339664 L5.751501933507722,21.920363602867308 L5.540696513408799,21.818360980238797 L5.431893715938384,21.767359668924545 L5.221088295839458,21.658556871454127 L5.115685585789993,21.600755385297973 L5.013682963161484,21.542953899141818 L4.908280253112021,21.48515241298566 L4.809677717904457,21.427350926829504 L4.711075182696896,21.366149353252393 L4.609072560068386,21.304947779675285 L4.510470024860822,21.24034611867723 L4.40846740223231,21.179144545100122 L4.218062506659087,21.043141048262104 L4.1194599714515245,20.978539387264046 L4.024257523664914,20.90713755142409 L3.929055075878301,20.839135803005075 L3.8372527155126397,20.76773396716512 L3.742050267726029,20.699732218746114 L3.558445546994707,20.55012837222429 L3.4700432740499956,20.471926361542437 L3.3816410011052858,20.397124438281526 L3.2932387281605733,20.31892242759967 L3.2048364552158635,20.244120504338756 L3.1198342696921024,20.1659184936569 L3.034832084168344,20.080916308133137 L2.9498298986445812,20.002714297451277 L2.864827713120821,19.92111219934847 L2.7832256150180115,19.836110013824708 L2.705023604336154,19.75110782830095 L2.620021418812393,19.66610564277719 L2.541819408130533,19.581103457253427 L2.4670174848696247,19.492701184308718 L2.3888154741877647,19.404298911364005 L2.3140135509268553,19.3158966384193 L2.2358115402449945,19.227494365474588 L2.0862076937231784,19.043889644743263 L2.0182059453041683,18.9520872843776 L1.94680410946421,18.856884836590993 L1.8788023610452027,18.761682388804378 L1.8074005252052436,18.666479941017766 L1.742798864207186,18.567877405810208 L1.6067953673691693,18.37747251023698 L1.545593793792061,18.27546988760847 L1.4809921327940032,18.176867352400908 L1.419790559216897,18.074864729772397 L1.3585889856397886,17.97966228198578 L1.300787499483632,17.87765965935727 L1.242986013327475,17.77225694930781 L1.185184527171318,17.670254326679295 L1.127383041015161,17.564851616629834 L1.0185802435447482,17.35404619653091 L0.9675789322304923,17.248643486481445 L0.9199777083371857,17.13984068901103 L0.8689763970229298,17.034437978961567 L0.7261727253430117,16.708029586550328 L0.6819715888706566,16.595826701658968 L0.6411705398192519,16.483623816767604 L0.5969694033468966,16.37142093187624 L0.5595684417164418,16.259218046984873 L0.518767392665037,16.147015162093513 L0.48136643103458227,16.031412189781197 L0.4439654694041288,15.919209304889835 L0.4099645951946234,15.803606332577516 L0.3793638084060702,15.691403447686158 L0.34196284677561517,15.572400387952891 L0.31476214740801245,15.453397328219626 L0.2875614480404087,15.341194443328263 L0.2569606612518554,15.218791296174045 L0.2297599618842518,15.103188323861731 L0.2025592625166482,14.984185264128467 L0.1821587379909454,14.865182204395204 L0.15835812604429392,14.746179144661939 L0.11755707699288845,14.50137285035351 L0.1005566398881353,14.382369790620247 L0.08695629020433439,14.259966643466033 L0.0699558530995821,14.137563496311818 L0.05635550341578025,14.0151603491576 L0.04275515373197843,13.889357114582436 L0.03595497889007836,13.766953967428224 L0.025754716627227003,13.644550820274008 L0.018954541785326073,13.518747585698843 L0.012154366943425159,13.396344438544626 L0.008754279522475546,13.267141116548512 L0.0053541921015242445,13.141337881973346 L0.0053541921015242445,12.893131500243964 L0.008754279522475546,12.767328265668798 L0.012154366943425159,12.638124943672686 L0.018954541785326073,12.515721796518472 L0.025754716627227003,12.389918561943302 L0.03595497889007836,12.267515414789088 L0.04275515373197843,12.141712180213926 L0.0699558530995821,11.896905885905495 L0.08695629020433439,11.774502738751279 L0.1005566398881353,11.652099591597064 L0.11755707699288845,11.5330965318638 L0.1379576015185904,11.407293297288636 L0.15835812604429392,11.288290237555373 L0.1821587379909454,11.169287177822108 L0.2025592625166482,11.050284118088841 L0.2297599618842518,10.931281058355577 L0.2569606612518554,10.815678086043262 L0.2875614480404087,10.693274938889047 L0.31476214740801245,10.581072053997687 L0.34196284677561517,10.46206899426442 L0.3793638084060702,10.343065934531156 L0.4099645951946234,10.23086304963979 L0.4439654694041288,10.11526007732748 L0.48136643103458227,9.999657105015164 L0.518767392665037,9.8874542201238 L0.5595684417164418,9.775251335232436 L0.5969694033468966,9.659648362920125 L0.6411705398192519,9.55084556544971 L0.6819715888706566,9.438642680558347 L0.7261727253430117,9.326439795666984 L0.8689763970229298,9.000031403255743 L0.9199777083371857,8.894628693206279 L0.9675789322304923,8.785825895735869 L1.0185802435447482,8.680423185686404 L1.127383041015161,8.46961776558748 L1.185184527171318,8.364215055538015 L1.242986013327475,8.262212432909505 L1.300787499483632,8.156809722860041 L1.3585889856397886,8.054807100231528 L1.4809921327940032,7.857602029816404 L1.545593793792061,7.758999494608842 L1.6067953673691693,7.65699687198033 L1.742798864207186,7.466591976407107 L1.8074005252052436,7.367989441199545 L1.8788023610452027,7.272786993412934 L1.94680410946421,7.17418445820537 L2.0182059453041683,7.0823820978397105 L2.0862076937231784,6.990579737474048 L2.2358115402449945,6.806975016742726 L2.3140135509268553,6.718572743798015 L2.3888154741877647,6.630170470853305 L2.4670174848696247,6.541768197908595 L2.541819408130533,6.453365924963883 L2.620021418812393,6.368363739440124 L2.705023604336154,6.283361553916364 L2.7832256150180115,6.1983593683926035 L2.864827713120821,6.113357182868842 L2.9498298986445812,6.031755084766032 L3.034832084168344,5.953553074084173 L3.1198342696921024,5.868550888560413 L3.2048364552158635,5.790348877878554 L3.2932387281605733,5.715546954617644 L3.3816410011052858,5.637344943935785 L3.4700432740499956,5.562543020674876 L3.558445546994707,5.484341009993017 L3.742050267726029,5.334737163471198 L3.8372527155126397,5.26673541505219 L3.929055075878301,5.195333579212231 L4.024257523664914,5.1273318307932225 L4.1194599714515245,5.055929994953264 L4.218062506659087,4.987928246534255 L4.313264954445698,4.923326585536198 L4.391466965127558,4.865525099380041 C3.5890463337832603,4.331711374290826 2.851227363437019,3.6992951139940495 2.2358115402449945,2.954675968805909 C1.8890026233080528,2.533065128608058 1.5761945805806143,2.080853501621653 1.3041875869045816,1.604841262688595 C1.1069825164894584,1.2614324331726037 0.9301779706000367,0.9112234288147107 0.7737739492363188,0.5474140747730167 C0.6989720259754088,0.36720944146264456 0.6275701901354499,0.1836047207313223 0.5629685291373923,0 zM9.600400894023593,6.5111674111200415 L9.515398708499829,6.51456749854099 L9.43379661039702,6.517967585961942 L9.34539433745231,6.521367673382892 L9.267192326770452,6.5281678482247925 L9.18559022866764,6.534968023066694 L9.10058804314388,6.541768197908595 L9.01898594504107,6.548568372750497 L8.937383846938259,6.558768635013346 L8.77417965073264,6.58596933438095 L8.695977640050783,6.596169596643801 L8.610975454527019,6.609769946327604 L8.53277344384516,6.626770383432355 L8.457971520584252,6.640370733116157 L8.37636942248144,6.657371170220908 L8.219965401117722,6.691372044430413 L8.14176339043586,6.715172656377066 L7.985359369072142,6.75597370542847 L7.910557445811237,6.776374229954174 L7.832355435129377,6.800174841900826 L7.757553511868465,6.823975453847478 L7.607949665346648,6.878376852582686 L7.53654782950669,6.902177464529338 L7.4583458188248315,6.932778251317893 L7.386943982984869,6.959978950685494 L7.312142059723963,6.9871796500531 L7.240740223884005,7.0211805242626015 L7.165938300623094,7.048381223630206 L6.95173279310322,7.150383846258719 L6.88033095726326,7.180984633047273 L6.808929121423301,7.221785682098677 L6.740927373004293,7.2557865563081805 L6.6695255371643345,7.2931875179386365 L6.604923876166277,7.330588479569092 L6.533522040326319,7.371389528620495 L6.465520291907309,7.408790490250949 L6.400918630909251,7.449591539302355 L6.3329168824902435,7.49039258835376 L6.268315221492184,7.531193637405164 L6.200313473073179,7.57539477387752 L6.132311724654167,7.616195822928925 L6.07111015107706,7.663797046822231 L6.006508490079003,7.707998183294586 L5.941906829080946,7.755599407187892 L5.880705255503837,7.803200631081196 L5.81610359450578,7.847401767553551 L5.754902020928672,7.89840307886781 L5.690300359930616,7.946004302761116 L5.632498873774458,7.99360552665442 L5.571297300197351,8.044606837968677 L5.513495814041195,8.099008236703883 L5.452294240464087,8.15000954801814 L5.39449275430793,8.197610771911446 L5.3400913555727225,8.252012170646651 L5.278889781995614,8.306413569381858 L5.224488383260409,8.360814968117067 L5.166686897104252,8.415216366852272 L5.112285498369045,8.46961776558748 L5.0578840996338394,8.527419251743636 L5.006882788319583,8.585220737899792 L4.952481389584375,8.643022224055949 L4.90148007827012,8.700823710212108 L4.850478766955864,8.762025283789212 L4.796077368220657,8.823226857366322 L4.7450760569064006,8.877628256101529 L4.697474833013095,8.938829829678635 L4.649873609119787,9.003431490676693 L4.598872297805533,9.064633064253801 L4.554671161333178,9.12583463783091 L4.459468713546565,9.255037959827023 L4.418667664495161,9.316239533404133 L4.371066440601855,9.38084119440219 L4.3268653041295,9.448842942821196 L4.2826641676571455,9.513444603819254 L4.24186311860574,9.578046264817313 L4.201062069554334,9.64944810065727 L4.16026102050293,9.71404976165533 L4.122860058872475,9.782051510074337 L4.082059009821069,9.853453345914296 L4.044658048190615,9.918055006912354 L4.007257086560161,9.989456842752313 L3.9732562123506554,10.057458591171322 L3.935855250720202,10.12886042701128 L3.9018543765106966,10.196862175430288 L3.867853502301192,10.271664098691197 L3.8372527155126397,10.339665847110206 L3.7998517538821845,10.414467770371115 L3.772651054514581,10.485869606211073 L3.742050267726029,10.560671529471982 L3.7114494809374756,10.63207336531194 L3.6842487815698712,10.706875288572851 L3.653647994781319,10.78167721183376 L3.6298473828346642,10.85647913509467 L3.60264668346706,10.931281058355577 L3.575445984099458,11.009483069037437 L3.551645372152805,11.080884904877394 L3.5278447602061522,11.159086915559255 L3.507444235680449,11.233888838820164 L3.4258421375776402,11.546696881547602 L3.3918412633681356,11.703100902911322 L3.3782409136843334,11.78470300101413 L3.3612404765795825,11.86290501169599 L3.3510402143167317,11.944507109798801 L3.3374398646329295,12.02270912048066 L3.310239165265326,12.185913316686282 L3.2966388155815247,12.349117512891901 L3.286438553318672,12.43071961099471 L3.279638378476773,12.515721796518472 L3.272838203634871,12.597323894621281 L3.269438116213921,12.67892599272409 L3.26263794137202,12.84893036377161 L3.2592378539510696,12.93053246187442 L3.2592378539510696,13.10393692034289 L3.26263794137202,13.1855390184457 L3.269438116213921,13.355543389493223 L3.272838203634871,13.43714548759603 L3.286438553318672,13.600349683801651 L3.2966388155815247,13.685351869325412 L3.310239165265326,13.84855606553103 L3.3374398646329295,14.01176026173665 L3.3510402143167317,14.08996227241851 L3.3612404765795825,14.171564370521322 L3.3782409136843334,14.249766381203179 L3.3918412633681356,14.32796839188504 L3.4088417004728893,14.40957048998785 L3.4258421375776402,14.48777250066971 L3.466643186629044,14.644176522033431 L3.4870437111547483,14.718978445294338 L3.507444235680449,14.800580543397144 L3.5278447602061522,14.875382466658058 L3.551645372152805,14.953584477339913 L3.575445984099458,15.028386400600823 L3.6298473828346642,15.177990247122645 L3.653647994781319,15.252792170383552 L3.6842487815698712,15.327594093644462 L3.7114494809374756,15.398995929484421 L3.742050267726029,15.473797852745328 L3.772651054514581,15.545199688585287 L3.7998517538821845,15.620001611846197 L3.8372527155126397,15.691403447686158 L3.867853502301192,15.762805283526115 L3.9018543765106966,15.837607206787023 L3.935855250720202,15.905608955206032 L3.9732562123506554,15.97701079104599 L4.007257086560161,16.045012539464995 L4.044658048190615,16.116414375304956 L4.082059009821069,16.181016036303014 L4.122860058872475,16.252417872142974 L4.16026102050293,16.32041962056198 L4.201062069554334,16.38502128156004 L4.24186311860574,16.456423117399996 L4.2826641676571455,16.517624690977108 L4.371066440601855,16.65362818781512 L4.418667664495161,16.71482976139223 L4.459468713546565,16.77943142239029 L4.554671161333178,16.9086347443864 L4.598872297805533,16.96983631796351 L4.649873609119787,17.031037891540617 L4.697474833013095,17.095639552538675 L4.7450760569064006,17.15344103869483 L4.796077368220657,17.21124252485099 L4.850478766955864,17.2724440984281 L4.90148007827012,17.333645672005204 L4.952481389584375,17.391447158161363 L5.006882788319583,17.449248644317517 L5.0578840996338394,17.507050130473676 L5.278889781995614,17.728055812835454 L5.3400913555727225,17.78245721157066 L5.39449275430793,17.833458522884918 L5.452294240464087,17.88445983419917 L5.513495814041195,17.93546114551343 L5.571297300197351,17.989862544248634 L5.632498873774458,18.040863855562893 L5.690300359930616,18.088465079456196 L5.754902020928672,18.1360663033495 L5.81610359450578,18.187067614663757 L5.880705255503837,18.231268751136113 L5.941906829080946,18.27886997502942 L6.006508490079003,18.32647119892272 L6.07111015107706,18.367272247974128 L6.132311724654167,18.414873471867434 L6.268315221492184,18.503275744812147 L6.3329168824902435,18.544076793863553 L6.400918630909251,18.584877842914956 L6.465520291907309,18.62567889196636 L6.533522040326319,18.663079853596816 L6.604923876166277,18.703880902648223 L6.6695255371643345,18.74128186427868 L6.740927373004293,18.77868282590913 L6.808929121423301,18.812683700118637 L6.88033095726326,18.853484749170036 L6.95173279310322,18.884085535958594 L7.165938300623094,18.986088158587105 L7.240740223884005,19.013288857954713 L7.312142059723963,19.047289732164217 L7.386943982984869,19.074490431531817 L7.4583458188248315,19.10169113089942 L7.53654782950669,19.132291917687972 L7.607949665346648,19.156092529634627 L7.757553511868465,19.210493928369836 L7.832355435129377,19.234294540316483 L7.910557445811237,19.258095152263138 L7.985359369072142,19.27849567678884 L8.298167411799582,19.360097774891653 L8.454571433163299,19.394098649101156 L8.53277344384516,19.40769899878496 L8.610975454527019,19.424699435889707 L8.695977640050783,19.438299785573513 L8.77757973815359,19.44850004783636 L8.855781748835449,19.462100397520164 L8.937383846938259,19.475700747203962 L9.01898594504107,19.485901009466815 L9.10058804314388,19.48930109688777 L9.182190141246688,19.49950135915062 L9.263792239349499,19.50630153399252 L9.34879442487326,19.51310170883442 L9.43379661039702,19.516501796255373 L9.515398708499829,19.51990188367632 L9.600400894023593,19.52330197109727 L9.6820029921264,19.526702058518225 L9.855407450594873,19.526702058518225 L9.93700954869768,19.52330197109727 L10.107013919745203,19.516501796255373 L10.188616017848013,19.51310170883442 L10.358620388895535,19.49950135915062 L10.436822399577391,19.48930109688777 L10.518424497680199,19.485901009466815 L10.603426683203963,19.475700747203962 L10.759830704567683,19.44850004783636 L10.844832890091439,19.438299785573513 L10.926434988194252,19.424699435889707 L11.001236911455159,19.40769899878496 L11.08623909697892,19.394098649101156 L11.161041020239828,19.377098211996405 L11.239243030921688,19.360097774891653 L11.395647052285408,19.31929672584025 L11.477249150388218,19.29889620131454 L11.626852996910035,19.258095152263138 L11.705055007591895,19.234294540316483 L11.779856930852805,19.210493928369836 L11.929460777374622,19.156092529634627 L12.00426270063553,19.132291917687972 L12.079064623896441,19.10169113089942 L12.153866547157346,19.074490431531817 L12.225268382997303,19.047289732164217 L12.300070306258217,19.013288857954713 L12.371472142098177,18.986088158587105 L12.446274065359084,18.9520872843776 L12.514275813778093,18.918086410168097 L12.589077737039,18.884085535958594 L12.65707948545801,18.853484749170036 L12.728481321297968,18.812683700118637 L12.796483069716976,18.77868282590913 L12.867884905556934,18.74128186427868 L12.93588665397594,18.703880902648223 L13.003888402394953,18.663079853596816 L13.07189015081396,18.62567889196636 L13.13649181181202,18.584877842914956 L13.272495308650035,18.503275744812147 L13.337096969648094,18.45907460833979 L13.405098718067098,18.414873471867434 L13.46970037906516,18.367272247974128 L13.530901952642264,18.32647119892272 L13.660105274638383,18.231268751136113 L13.721306848215491,18.187067614663757 L13.782508421792595,18.1360663033495 L13.847110082790655,18.088465079456196 L13.90831165636776,18.040863855562893 L13.962713055102968,17.989862544248634 L14.023914628680078,17.93546114551343 L14.085116202257185,17.88445983419917 L14.200719174569498,17.78245721157066 L14.258520660725654,17.728055812835454 L14.312922059460863,17.673654414100245 L14.370723545617018,17.61925301536504 L14.425124944352223,17.56145152920888 L14.479526343087432,17.507050130473676 L14.588329140557844,17.391447158161363 L14.639330451872103,17.333645672005204 L14.741333074500611,17.21124252485099 L14.79233438581487,17.15344103869483 L14.839935609708174,17.095639552538675 L14.887536833601482,17.031037891540617 L14.938538144915736,16.96983631796351 L14.982739281388094,16.9086347443864 L15.077941729174704,16.77943142239029 L15.122142865647058,16.71482976139223 L15.169744089540362,16.65362818781512 L15.210545138591769,16.585626439396115 L15.254746275064127,16.517624690977108 L15.29554732411553,16.456423117399996 L15.336348373166935,16.38502128156004 L15.377149422218338,16.32041962056198 L15.417950471269744,16.252417872142974 L15.455351432900198,16.181016036303014 L15.492752394530655,16.116414375304956 L15.530153356161106,16.045012539464995 L15.564154230370612,15.97701079104599 L15.604955279422018,15.905608955206032 L15.63555606621057,15.837607206787023 L15.669556940420078,15.762805283526115 L15.737558688839083,15.620001611846197 L15.764759388206686,15.545199688585287 L15.798760262416192,15.473797852745328 L15.825960961783794,15.398995929484421 L15.856561748572348,15.327594093644462 L15.883762447939953,15.252792170383552 L15.907563059886606,15.177990247122645 L15.961964458621809,15.028386400600823 L15.985765070568466,14.953584477339913 L16.00956568251512,14.875382466658058 L16.02996620704082,14.800580543397144 L16.070767256092225,14.644176522033431 L16.094567868038876,14.565974511351566 L16.12856874224838,14.40957048998785 L16.148969266774085,14.32796839188504 L16.159169529036934,14.249766381203179 L16.17616996614169,14.171564370521322 L16.189770315825488,14.08996227241851 L16.19997057808834,14.01176026173665 L16.22717127745594,13.84855606553103 L16.237371539718797,13.766953967428224 L16.244171714560693,13.685351869325412 L16.250971889402596,13.600349683801651 L16.264572239086398,13.43714548759603 L16.267972326507348,13.355543389493223 L16.27477250134925,13.1855390184457 L16.278172588770197,13.10393692034289 L16.278172588770197,12.93053246187442 L16.27477250134925,12.84893036377161 L16.267972326507348,12.67892599272409 L16.264572239086398,12.597323894621281 L16.2577720642445,12.515721796518472 L16.250971889402596,12.43071961099471 L16.237371539718797,12.267515414789088 L16.22717127745594,12.185913316686282 L16.19997057808834,12.02270912048066 L16.189770315825488,11.944507109798801 L16.17616996614169,11.86290501169599 L16.159169529036934,11.78470300101413 L16.148969266774085,11.703100902911322 L16.12856874224838,11.624898892229462 L16.094567868038876,11.468494870865745 L16.070767256092225,11.390292860183884 L16.02996620704082,11.233888838820164 L16.00956568251512,11.159086915559255 L15.985765070568466,11.080884904877394 L15.961964458621809,11.009483069037437 L15.934763759254206,10.931281058355577 L15.907563059886606,10.85647913509467 L15.883762447939953,10.78167721183376 L15.856561748572348,10.706875288572851 L15.825960961783794,10.63207336531194 L15.798760262416192,10.560671529471982 L15.764759388206686,10.485869606211073 L15.737558688839083,10.414467770371115 L15.703557814629582,10.339665847110206 L15.669556940420078,10.271664098691197 L15.63555606621057,10.196862175430288 L15.604955279422018,10.12886042701128 L15.564154230370612,10.057458591171322 L15.530153356161106,9.989456842752313 L15.492752394530655,9.918055006912354 L15.455351432900198,9.853453345914296 L15.417950471269744,9.782051510074337 L15.377149422218338,9.71404976165533 L15.336348373166935,9.64944810065727 L15.29554732411553,9.578046264817313 L15.254746275064127,9.513444603819254 L15.210545138591769,9.448842942821196 L15.169744089540362,9.38084119440219 L15.122142865647058,9.316239533404133 L15.077941729174704,9.255037959827023 L14.982739281388094,9.12583463783091 L14.938538144915736,9.064633064253801 L14.887536833601482,9.003431490676693 L14.839935609708174,8.938829829678635 L14.79233438581487,8.877628256101529 L14.741333074500611,8.823226857366322 L14.639330451872103,8.700823710212108 L14.588329140557844,8.643022224055949 L14.479526343087432,8.527419251743636 L14.425124944352223,8.473017853008429 L14.370723545617018,8.415216366852272 L14.312922059460863,8.360814968117067 L14.258520660725654,8.306413569381858 L14.142917688413338,8.197610771911446 L14.085116202257185,8.15000954801814 L14.023914628680078,8.099008236703883 L13.962713055102968,8.044606837968677 L13.90831165636776,7.99360552665442 L13.847110082790655,7.946004302761116 L13.782508421792595,7.89840307886781 L13.721306848215491,7.847401767553551 L13.660105274638383,7.803200631081196 L13.530901952642264,7.707998183294586 L13.46970037906516,7.663797046822231 L13.405098718067098,7.616195822928925 L13.337096969648094,7.57539477387752 L13.272495308650035,7.531193637405164 L13.13649181181202,7.449591539302355 L13.07189015081396,7.408790490250949 L13.003888402394953,7.371389528620495 L12.93588665397594,7.330588479569092 L12.867884905556934,7.2931875179386365 L12.796483069716976,7.2557865563081805 L12.728481321297968,7.221785682098677 L12.65707948545801,7.180984633047273 L12.589077737039,7.150383846258719 L12.514275813778093,7.116382972049214 L12.446274065359084,7.0823820978397105 L12.371472142098177,7.048381223630206 L12.300070306258217,7.0211805242626015 L12.225268382997303,6.9871796500531 L12.153866547157346,6.959978950685494 L12.079064623896441,6.932778251317893 L12.00426270063553,6.902177464529338 L11.929460777374622,6.878376852582686 L11.779856930852805,6.823975453847478 L11.705055007591895,6.800174841900826 L11.626852996910035,6.776374229954174 L11.477249150388218,6.735573180902766 L11.395647052285408,6.715172656377066 L11.317445041603547,6.691372044430413 L11.082839009557969,6.640370733116157 L11.001236911455159,6.626770383432355 L10.926434988194252,6.609769946327604 L10.844832890091439,6.596169596643801 L10.763230791988633,6.58596933438095 L10.681628693885822,6.572368984697149 L10.603426683203963,6.558768635013346 L10.518424497680199,6.548568372750497 L10.355220301474581,6.534968023066694 L10.270218115950822,6.5281678482247925 L10.192016105268964,6.521367673382892 L9.93700954869768,6.5111674111200415 L9.855407450594873,6.507767323699091 L9.6820029921264,6.507767323699091 zM22.05492111696495,10.931281058355577 C22.05492111696495,15.769605458368018 24.97219612414041,16.334019970245787 25.51621011149248,21.610955647560825 L25.519610198913426,21.610955647560825 C25.519610198913426,22.103968323598636 25.917420427164625,22.498378464428882 26.410433103202433,22.498378464428882 L35.49886677940289,22.498378464428882 C35.991879455440696,22.498378464428882 36.38628959627094,22.103968323598636 36.38628959627094,21.610955647560825 C36.937103758464914,16.334019970245787 39.85097867821941,15.769605458368018 39.85097867821941,10.931281058355577 C39.85097867821941,6.0181547350822315 35.86607622086553,2.033252277728347 30.952949897592184,2.033252277728347 C26.03982357431884,2.033252277728347 22.05492111696495,6.0181547350822315 22.05492111696495,10.931281058355577 zM26.50563555098905,23.38920136871789 C26.012622874951234,23.38920136871789 25.614812646700035,23.78701159696909 25.614812646700035,24.280024273006898 C25.614812646700035,24.773036949044712 26.012622874951234,25.170847177295904 26.50563555098905,25.170847177295904 L35.40366433161628,25.170847177295904 C35.896677007654084,25.170847177295904 36.29108714848433,24.773036949044712 36.29108714848433,24.280024273006898 C36.29108714848433,23.78701159696909 35.896677007654084,23.38920136871789 35.40366433161628,23.38920136871789 zM26.50563555098905,26.05826999416396 C26.012622874951234,26.05826999416396 25.614812646700035,26.45608022241516 25.614812646700035,26.949092898452975 C25.614812646700035,27.442105574490782 26.012622874951234,27.839915802741977 26.50563555098905,27.839915802741977 L35.40366433161628,27.839915802741977 C35.896677007654084,27.839915802741977 36.29108714848433,27.442105574490782 36.29108714848433,26.949092898452975 C36.29108714848433,26.45608022241516 35.896677007654084,26.05826999416396 35.40366433161628,26.05826999416396 zM27.393058367857105,28.727338619610034 C27.393058367857105,29.713363971685663 28.19207891178045,30.50898442818806 29.174704176435124,30.50898442818806 L32.73459570617021,30.50898442818806 C33.71722097082487,30.50898442818806 34.51284142732727,29.713363971685663 34.51284142732727,28.727338619610034 zM41.88423095594776,10.931281058355577 C41.88423095594776,13.960758950422393 40.8948055164512,15.698203622528057 40.02438313668788,17.231643049376693 C39.28656416634165,18.5338765316007 38.64734773120297,19.65930546793529 38.41614178657834,21.750359231819793 C38.395741262052645,22.212771121069046 38.26313785263557,22.651382398371652 38.048932345115695,23.03899236436 C38.22573689100512,23.413001980664543 38.32773951363363,23.834612820862393 38.32773951363363,24.280024273006898 C38.32773951363363,24.759436599360914 38.208736453900364,25.211648226347307 38.00133112122239,25.612858542019463 C38.208736453900364,26.01406885769161 38.32773951363363,26.469680572098966 38.32773951363363,26.949092898452975 C38.32773951363363,28.203725156783676 37.53211905713124,29.271352606962104 36.4236905579014,29.689563359739005 C35.9986796302826,31.32840549663711 34.50604125248537,32.5422367059164 32.73459570617021,32.5422367059164 L29.174704176435124,32.5422367059164 C27.403258630119954,32.5422367059164 25.907220164901776,31.32840549663711 25.482209237282984,29.689563359739005 C24.373780738053135,29.271352606962104 23.581560368971687,28.203725156783676 23.581560368971687,26.949092898452975 C23.581560368971687,26.469680572098966 23.697163341284003,26.01406885769161 23.901168586541036,25.612858542019463 C23.697163341284003,25.211648226347307 23.581560368971687,24.759436599360914 23.581560368971687,24.280024273006898 C23.581560368971687,23.834612820862393 23.680162904179245,23.413001980664543 23.856967450068673,23.03559227693905 C23.64276194254879,22.651382398371652 23.510158533131733,22.216171208489996 23.48635792118509,21.750359231819793 C23.258552063981405,19.65930546793529 22.619335628842716,18.53047644417975 21.881516658496476,17.231643049376693 C21.01109427873317,15.698203622528057 20.021668839236604,13.960758950422393 20.021668839236604,10.931281058355577 C20.021668839236604,4.902926061010495 24.92459490024711,0 30.952949897592184,0 C36.98130489493727,0 41.88423095594776,4.902926061010495 41.88423095594776,10.931281058355577 z" style="fill: rgb(255, 255, 255);" stroke-width="0" id="svg_1"/>
    </g>
  </g>
  
<g><title>Layer 2</title><g id="svg_2"/></g></svg>