<svg xmlns="http://www.w3.org/2000/svg" version="1.1" style="enable-background:new 0 0 256.131 256.131;" width="13" height="21"><rect id="backgroundrect" width="100%" height="100%" x="0" y="0" fill="none" stroke="none" style="" class=""/>
  
  
  
  
  
  
  
  
  
  
  
  
  
  
  
  
<g class="currentLayer" style=""><title>Layer 1</title><g id="svg_1" class="">
    <path d="M12.73826424739083,7.8337247465687145 L12.73826424739083,20.675854201228493 C12.73826424739083,21.020297927479394 12.459017015920395,21.299545158949826 12.114573289669494,21.299545158949826 C11.770129563418593,21.299545158949826 11.490882331948157,21.020297927479394 11.490882331948157,20.675854201228493 L11.490882331948157,8.457415704290051 L1.247382042332923,8.457415704290051 L1.247382042332923,20.675854201228493 C1.247382042332923,21.020297927479394 0.9681348108624946,21.299545158949826 0.6236910846115865,21.299545158949826 C0.27924735836068487,21.299545158949826 1.2689024941892058e-7,21.020297927479394 1.2689024941892058e-7,20.675854201228493 L1.2689024941892058e-7,7.8337247465687145 C1.2689024941892058e-7,7.4892810203178115 0.27924735836068487,7.210033788847378 0.6236910846115865,7.210033788847378 L2.9582910775540943,7.210033788847378 C3.25333847995347,5.581451960045424 4.680676026397336,4.3420532888615835 6.392998761122676,4.3420532888615835 C8.105321495848017,4.3420532888615835 9.532659042291883,5.581451960045424 9.827706444691259,7.210033788847378 L12.114656448463862,7.210033788847378 C12.459100174714763,7.210033788847378 12.738347406185198,7.4892810203178115 12.73826424739083,7.8337247465687145 zM8.548973663773793,7.210033788847378 C8.278125470534007,6.274996305031551 7.414105597104054,5.589435204304257 6.3929156023283165,5.589435204304257 C5.371725607552577,5.589435204304257 4.507705734122624,6.274996305031551 4.236857540882838,7.210033788847378 zM1.389167786721572,2.954715122506242 C1.1455956780328052,2.7112261726118323 1.1455956780328052,2.3163050581826816 1.389167786721572,2.072732949493909 C1.6326567366159852,1.8291608408051356 2.0275778510451374,1.8291608408051356 2.271149959733904,2.072732949493909 L3.7541207396065204,3.555786888160885 C3.9976928482952943,3.7992758380552942 3.9976928482952943,4.194196952484445 3.7541207396065204,4.437769061173218 C3.632376264659314,4.559596694914785 3.4727113794826536,4.620468932388388 3.3131296531003542,4.620468932388388 C3.153547926718055,4.620468932388388 2.9938830415413946,4.5595135361204235 2.872138566594188,4.437769061173218 zM5.76930780340134,2.720706275169196 L5.76930780340134,0.623690957721337 C5.76930780340134,0.27924723147043334 6.048555034871768,-5.293955920339377e-23 6.392998761122676,-5.293955920339377e-23 C6.737442487373585,-5.293955920339377e-23 7.016689718844013,0.27924723147043334 7.016689718844013,0.623690957721337 L7.016689718844013,2.720706275169196 C7.016689718844013,3.0651500014201 6.737442487373585,3.344397232890533 6.392998761122676,3.344397232890533 C6.048471876077414,3.344397232890533 5.769224644606979,3.0651500014201 5.76930780340134,2.720706275169196 zM9.03171046505011,4.437602743584493 C8.788138356361337,4.19403063489572 8.788138356361337,3.7991926792609316 9.03171046505011,3.5556205705721586 L10.514764403717088,2.072649790699546 C10.758336512405862,1.8290776820107735 11.153257626835007,1.8290776820107735 11.39682973552378,2.072649790699546 C11.640401844212548,2.316221899388319 11.640401844212548,2.711059855023106 11.39682973552378,2.954631963711879 L9.913775796856804,4.437602743584493 C9.792031321909604,4.559430377326059 9.632366436732937,4.620302614799662 9.472784710350638,4.620302614799662 C9.313202983968338,4.620302614799662 9.153538098791671,4.5595135361204235 9.03171046505011,4.437602743584493 z" style="fill: rgb(255, 255, 255);" id="svg_2" class=""/>
  </g><g id="svg_3" class=""/><g id="svg_4" class=""/><g id="svg_5" class=""/><g id="svg_6" class=""/><g id="svg_7" class=""/><g id="svg_8" class=""/><g id="svg_9" class=""/><g id="svg_10" class=""/><g id="svg_11" class=""/><g id="svg_12" class=""/><g id="svg_13" class=""/><g id="svg_14" class=""/><g id="svg_15" class=""/><g id="svg_16" class=""/><g id="svg_17" class=""/></g></svg>