<svg xmlns="http://www.w3.org/2000/svg" height="38" width="26"><rect id="backgroundrect" width="100%" height="100%" x="0" y="0" fill="none" stroke="none" style="" class=""/>
  
<g class="currentLayer" style=""><title>Layer 1</title><path d="M26.307775116905592,16.076973730800397 v2.9230862295915956 q0,5.04689106827924 -3.3684001473809406,8.780676994359132 t-8.323944770985443,4.281864594128314 v3.014432674266333 h5.846172459183191 q0.5937518903857933,0 1.0276475025907954,0.43389561220500283 t0.43389561220500283,1.0276475025907954 t-0.43389561220500283,1.0276475025907954 t-1.0276475025907954,0.43389561220500283 h-14.61543114795798 q-0.5937518903857933,0 -1.0276475025907954,-0.43389561220500283 t-0.43389561220500283,-1.0276475025907954 t0.43389561220500283,-1.0276475025907954 t1.0276475025907954,-0.43389561220500283 h5.846172459183191 v-3.014432674266333 q-4.955544623604502,-0.5480786680484245 -8.323944770985443,-4.281864594128314 t-3.3684001473809406,-8.780676994359132 v-2.9230862295915956 q0,-0.5937518903857933 0.43389561220500283,-1.0276475025907954 t1.0276475025907954,-0.43389561220500283 t1.0276475025907954,0.43389561220500283 t0.43389561220500283,1.0276475025907954 v2.9230862295915956 q0,4.224773066206604 3.0030143686819906,7.227787434888594 t7.227787434888594,3.0030143686819906 t7.227787434888594,-3.0030143686819906 t3.0030143686819906,-7.227787434888594 v-2.9230862295915956 q0,-0.5937518903857933 0.43389561220500283,-1.0276475025907954 t1.0276475025907954,-0.43389561220500283 t1.0276475025907954,0.43389561220500283 t0.43389561220500283,1.0276475025907954 zm-5.846172459183191,-8.769258688774787 v11.692344918366382 q0,3.014432674266333 -2.146641449856328,5.161074124122662 t-5.161074124122662,2.146641449856328 t-5.161074124122662,-2.146641449856328 t-2.146641449856328,-5.161074124122662 v-11.692344918366382 q0,-3.014432674266333 2.146641449856328,-5.161074124122662 t5.161074124122662,-2.146641449856328 t5.161074124122662,2.146641449856328 t2.146641449856328,5.161074124122662 z" style="fill: rgb(255, 255, 255);" id="svg_1" class=""/></g></svg>