<svg xmlns="http://www.w3.org/2000/svg" version="1.1" enable-background="new 0 0 1000 1000" width="31" height="22"><rect id="backgroundrect" width="100%" height="100%" x="0" y="0" fill="none" stroke="none" class="" style=""/>
  
<g class="currentLayer" style=""><title>Layer 1</title><g id="svg_1" class="">
    <g transform="translate(0,511) scale(0.10000000149011612,-0.10000000149011612) " id="svg_2">
      <path d="M141.34928439732516,5041.464512318579 C116.34582260179404,5037.882336586485 93.01175454900707,5020.43951224641 82.42124545952336,4997.426841493629 C79.15734666529828,4990.3404990828385 76.60801080021041,4982.059057973973 75.81231845553795,4975.846416961256 L75.25377363319923,4971.069142531085 L37.58788228989999,4970.831995008752 L0,4970.669736177682 L0,4957.926177214378 L37.4287438209655,4957.926177214378 C66.73518500199992,4957.926177214378 74.93549669533026,4957.689029692045 75.17576457979997,4956.971346400771 C75.33490304873449,4956.412801578433 75.89344787107316,4953.308041253142 76.37086327787667,4950.122151512316 C80.1152978410412,4925.914382061457 98.98724803939045,4902.499184593135 122.63959303004644,4892.54522937939 C140.63784183032396,4884.978351199661 161.2634355490886,4884.4229267394585 179.41770245616465,4891.112983158979 C205.61626294977253,4900.5926433280565 225.44304396172873,4924.401006425512 229.5868848782975,4951.080102688059 L230.62284510743967,4957.52989122311 L268.21072739733967,4957.767038745444 L305.7986096872397,4957.926177214378 L305.7986096872397,4970.669736177682 L268.36674550413824,4970.669736177682 C239.0603043231038,4970.669736177682 230.85999262977344,4970.906883700015 230.61972474530373,4971.705696406823 C230.46058627636924,4972.183111813627 229.90516181616647,4975.287872138917 229.42462604722704,4978.4737618797435 C225.92045936853222,5000.931008172322 209.11730926633138,5023.307125049367 187.53688473395977,5034.13790202332 C174.07876284151925,5040.90596749624 156.8013176946509,5043.695571245798 141.34928439732516,5041.464512318579 zM170.4185780560259,5027.210698081466 C194.7043565602839,5020.202364724077 213.42028865183462,4999.258494067442 217.32074132179767,4974.72932731658 L217.95729519753564,4970.669736177682 L203.86261942935712,4970.669736177682 L203.86261942935712,4992.967844001327 L101.93286989574653,4992.967844001327 L101.93286989574653,4970.669736177682 L87.67905565863357,4970.669736177682 L88.07846201203778,4973.297081096169 C93.25514279561274,5002.840669799536 113.56245957650842,5023.307125049367 143.34319580221037,5029.12035970868 C148.19847928578034,5030.0783108844225 164.52421398117775,5028.883212186346 170.4185780560259,5027.210698081466 zM191.1221808281898,4948.371628354036 L114.67330849691389,4948.371628354036 L114.67330849691389,4980.224285038023 L191.1221808281898,4980.224285038023 zM101.93286989574653,4935.6311897528685 L203.86261942935712,4935.6311897528685 L203.86261942935712,4957.929297576515 L217.95729519753564,4957.929297576515 L217.32074132179767,4953.866586075481 C216.2067720392562,4947.017391187025 214.21286063437108,4941.126147474313 210.3935373799433,4933.64039871012 C207.36678610805197,4927.746034635273 205.29798601190356,4925.0406806633855 198.76706806131742,4918.428633297264 C192.15814105733196,4911.819706293279 189.44966672330966,4909.8289152505295 183.4772935950622,4906.724154925239 C172.2471102677046,4900.992049681461 165.71931267925441,4899.47555368338 152.89774466255184,4899.47555368338 C140.0761766458493,4899.47555368338 133.54525869526316,4900.9889293193255 122.31819573004148,4906.724154925239 C116.34582260179404,4909.8289152505295 113.63734826777171,4911.819706293279 107.02842126378629,4918.428633297264 C100.41949425980089,4925.037560301249 98.42870321705175,4927.746034635273 95.32394289176116,4933.718407763519 C92.06004409753608,4940.16819629857 89.35156976351372,4948.212489885102 88.07846201203778,4955.379961711426 L87.67905565863357,4957.929297576515 L101.93286989574653,4957.929297576515 zM24.5260463887277,5106.446053800163 C22.376116877044065,5104.136985819545 20.703602772163915,5101.9059268923265 20.703602772163915,5101.509640901058 C20.703602772163915,5101.032225494255 32.1709336218553,5090.519725458171 46.18760033663454,5078.097563794872 L71.67159790110519,5055.481179033357 L54.07275545423186,5055.240911148889 L36.47391300735854,5055.081772679954 L36.95132841416202,5052.613566230401 C37.19159629863175,5051.181320009991 37.4287438209655,5048.391716260433 37.4287438209655,5046.241786748749 L37.4287438209655,5042.3413340787865 L93.96970572474999,5042.3413340787865 L93.96970572474999,5099.677988327243 L81.62555311485092,5099.677988327243 L81.70668253038613,5081.7608689425015 C81.70668253038613,5071.884922782155 81.62555311485092,5063.843749557759 81.46641464591642,5063.843749557759 C81.30727617698189,5063.843749557759 69.83994532729051,5073.956843240439 55.90440802804649,5086.300995850339 C42.046879782201756,5098.645148460237 30.10213352570689,5109.154528134186 29.46557964996892,5109.635063903126 C28.507628474225996,5110.508765301197 27.633927076154272,5109.950220478859 24.5260463887277,5106.446053800163 z" style="fill: rgb(255, 255, 255);" id="svg_3"/>
    </g>
  </g></g></svg>