<svg xmlns="http://www.w3.org/2000/svg" version="1.1" style="" width="37" height="30"><rect id="backgroundrect" width="100%" height="100%" x="0" y="0" fill="none" stroke="none" style="" class=""/>
  <g class="currentLayer" style="">
    <title transform="matrix(442.86668471718,0,0,442.86668471718,16981.685224063393,5285.238298404314) " stroke-width="0">Layer 1</title>
    <g id="XMLID_1484_" class="" stroke-width="0">
      <path id="XMLID_1490_" d="M11.780828902061238,22.84999228831287 C11.766559919288113,22.84999228831287 11.752290936514987,22.84999228831287 11.738021953741864,22.84999228831287 C11.724644782392062,22.84999228831287 11.710375799618935,22.84999228831287 11.69610681684581,22.84999228831287 C10.650903828714412,22.84999228831287 9.775145011013871,22.130300469693385 9.563785703686959,21.17427862389402 L0,21.17427862389402 L0,20.276224520610473 L9.563785703686959,20.276224520610473 C9.775145011013871,19.319310863387784 10.650903828714412,18.600510856191615 11.69610681684581,18.600510856191615 C11.710375799618935,18.600510856191615 11.724644782392062,18.600510856191615 11.738021953741864,18.600510856191615 C11.752290936514987,18.600510856191615 11.766559919288113,18.600510856191615 11.780828902061238,18.600510856191615 C12.825140078769317,18.600510856191615 13.700898896469857,19.319310863387784 13.91225820379677,20.276224520610473 L23.36991834810861,20.276224520610473 C23.580385844012202,19.319310863387784 24.457036473136064,18.600510856191615 25.50313127269078,18.600510856191615 C26.547442449398858,18.600510856191615 27.421417644252756,19.319310863387784 27.634560574426313,20.276224520610473 L37.28217655190538,20.276224520610473 L37.28217655190538,21.17427862389402 L27.634560574426313,21.17427862389402 C27.421417644252756,22.130300469693385 26.547442449398858,22.84999228831287 25.50313127269078,22.84999228831287 C24.457036473136064,22.84999228831287 23.580385844012202,22.130300469693385 23.36991834810861,21.17427862389402 L13.91225820379677,21.17427862389402 C13.700898896469857,22.130300469693385 12.825140078769317,22.84999228831287 11.780828902061238,22.84999228831287 zM10.519807549486329,20.72569747796391 C10.519807549486329,21.389205176914214 11.062920706288391,21.930534710869633 11.739805576588505,21.952829996452643 C12.414906824041974,21.929642899446314 12.9562363579974,21.388313365490895 12.9562363579974,20.72569747796391 C12.9562363579974,20.062189779013593 12.413123201195335,19.519076622211532 11.737130142318545,19.497673148051845 C11.062028894865074,19.519968433634855 10.519807549486329,20.063081590436916 10.519807549486329,20.72569747796391 zM24.24210992011587,20.72569747796391 C24.24210992011587,21.40258234826402 24.806626551077624,21.952829996452643 25.50313127269078,21.952829996452643 C26.19696056003398,21.952829996452643 26.762369002419057,21.40258234826402 26.762369002419057,20.72569747796391 C26.762369002419057,20.04792079624047 26.19696056003398,19.497673148051845 25.50313127269078,19.497673148051845 C24.806626551077624,19.497673148051845 24.24210992011587,20.04792079624047 24.24210992011587,20.72569747796391 z" style="fill: rgb(255, 255, 255);" stroke-width="0"/>
      <path id="path-1" d="M23.294114377126384,13.052551991715996 C23.294114377126384,12.907186729714786 23.307491548476193,12.765388713406857 23.334245891175804,12.628941565638852 C23.340488571139044,12.596836354399318 23.34762306252561,12.56383933173647 23.353865742488843,12.532625931920258 L14.59360213121348,8.453480481653179 L14.981540100357819,7.616961366578732 L23.745370957326458,11.696998628269132 C24.352694536607586,10.895260158704174 25.461216135794732,10.595611520468552 26.409211678784214,11.038841797858746 C27.06380126350132,11.34294949321097 27.496329803811662,11.932436844025691 27.628317894463073,12.590593674436079 L37.28217655190538,12.590593674436079 L37.28217655190538,13.511834874725954 L27.61583253453659,13.511834874725954 C27.402689604363033,14.494611063224925 26.52514716381585,15.233922733157463 25.479944175684448,15.233922733157463 C24.2742151313554,15.233922733157463 23.294114377126384,14.254713790351765 23.294114377126384,13.052551991715996 zM26.74185733968269,13.052551991715996 C26.74185733968269,12.356939081526159 26.175557085874292,11.791530639141085 25.479944175684448,11.791530639141085 C24.86459429359344,11.791530639141085 24.35091091376095,12.231193670837996 24.238542674422593,12.813546530266152 C24.150253343513878,13.35665968706822 24.42849850758981,13.91493363806673 24.95199181307884,14.158398156633174 C25.583394300789607,14.451804114905554 26.336083142071946,14.178909819369542 26.63038091176765,13.547507331658766 C26.67497148293366,13.45297532078681 26.707076694173193,13.353984252798258 26.72580473406292,13.254101373386385 C26.736506471142768,13.18810732806068 26.74185733968269,13.12032965988834 26.74185733968269,13.052551991715996 zM13.988062174778994,13.052551991715996 C13.988062174778994,14.254713790351765 13.00796142054998,15.233922733157463 11.802232376220926,15.233922733157463 C10.757029388089526,15.233922733157463 9.878595136119024,14.494611063224925 9.666344017368791,13.511834874725954 L0,13.511834874725954 L0,12.590593674436079 L9.666344017368791,12.590593674436079 C9.878595136119024,11.60870929736042 10.757029388089526,10.87028943885121 11.802232376220926,10.87028943885121 C13.00796142054998,10.87028943885121 13.988062174778994,11.848606570233585 13.988062174778994,13.052551991715996 zM13.0659291630658,13.052551991715996 C13.0659291630658,12.356939081526159 12.500520720680726,11.791530639141085 11.802232376220926,11.791530639141085 C11.106619466031088,11.791530639141085 10.540319212222693,12.356939081526159 10.540319212222693,13.052551991715996 C10.540319212222693,13.747273090482516 11.106619466031088,14.312681532867588 11.802232376220926,14.312681532867588 C12.500520720680726,14.312681532867588 13.0659291630658,13.747273090482516 13.0659291630658,13.052551991715996 z" style="fill: rgb(255, 255, 255);" stroke-width="0"/>
      <path id="path-2" d="M23.294114377126384,5.435590625137264 C23.294114377126384,5.290225363136055 23.307491548476193,5.148427346828125 23.334245891175804,5.011980199060119 C23.340488571139044,4.979874987820589 23.34762306252561,4.946877965157737 23.353865742488843,4.915664565341525 L14.59360213121348,0.8365191150744467 L14.981540100357819,-2.3021674762861117e-18 L23.745370957326458,4.080037261690398 C24.352694536607586,3.278298792125444 25.461216135794732,2.978650153889821 26.409211678784214,3.4218804312800146 C27.06380126350132,3.725988126632237 27.496329803811662,4.31636728887028 27.628317894463073,4.974524119280665 L37.28217655190538,4.974524119280665 L37.28217655190538,5.8948735081472226 L27.61583253453659,5.8948735081472226 C27.402689604363033,6.8776496966461975 26.52514716381585,7.616961366578732 25.479944175684448,7.616961366578732 C24.2742151313554,7.616961366578732 23.294114377126384,6.637752423773035 23.294114377126384,5.435590625137264 zM26.74185733968269,5.435590625137264 C26.74185733968269,4.7399777149474245 26.175557085874292,4.174569272562351 25.479944175684448,4.174569272562351 C24.86459429359344,4.174569272562351 24.35091091376095,4.614232304259263 24.238542674422593,5.196585163687422 C24.150253343513878,5.739698320489487 24.42849850758981,6.297972271487996 24.95199181307884,6.541436790054443 C25.583394300789607,6.8357345597501435 26.336083142071946,6.562840264214128 26.63038091176765,5.930545965080033 C26.67497148293366,5.83601395420808 26.707076694173193,5.737022886219526 26.72580473406292,5.637140006807652 C26.736506471142768,5.57114596148195 26.74185733968269,5.504260104732926 26.74185733968269,5.435590625137264 zM13.988062174778994,5.435590625137264 C13.988062174778994,6.637752423773035 13.00796142054998,7.616961366578732 11.802232376220926,7.616961366578732 C10.757029388089526,7.616961366578732 9.878595136119024,6.8776496966461975 9.666344017368791,5.8948735081472226 L0,5.8948735081472226 L0,4.974524119280665 L9.666344017368791,4.974524119280665 C9.878595136119024,3.991747930781689 10.757029388089526,3.2533280722724762 11.802232376220926,3.2533280722724762 C13.00796142054998,3.2533280722724762 13.988062174778994,4.2316452036548515 13.988062174778994,5.435590625137264 zM13.0659291630658,5.435590625137264 C13.0659291630658,4.7399777149474245 12.500520720680726,4.174569272562351 11.802232376220926,4.174569272562351 C11.106619466031088,4.174569272562351 10.540319212222693,4.7399777149474245 10.540319212222693,5.435590625137264 C10.540319212222693,6.13031172390378 11.106619466031088,6.695720166288855 11.802232376220926,6.695720166288855 C12.500520720680726,6.695720166288855 13.0659291630658,6.13031172390378 13.0659291630658,5.435590625137264 z" style="fill: rgb(255, 255, 255);" stroke-width="0"/>
      <path id="path-3" d="M11.768343542134755,30.487465317627972 C11.754074559361632,30.487465317627972 11.739805576588505,30.487465317627972 11.725536593815377,30.487465317627972 C11.712159422465575,30.487465317627972 11.697890439692449,30.487465317627972 11.683621456919326,30.487465317627972 C10.640202091634565,30.487465317627972 9.765335085357346,29.7642062533152 9.553975778030434,28.80372535039923 L0,28.80372535039923 L0,27.901212189999075 L9.553975778030434,27.901212189999075 C9.765335085357346,26.939839475659788 10.640202091634565,26.21747222277034 11.683621456919326,26.21747222277034 C11.697890439692449,26.21747222277034 11.712159422465575,26.21747222277034 11.725536593815377,26.21747222277034 C11.739805576588505,26.21747222277034 11.754074559361632,26.21747222277034 11.768343542134755,26.21747222277034 C12.81176290741951,26.21747222277034 13.686629913696732,26.939839475659788 13.897989221023643,27.901212189999075 L23.345839439678965,27.901212189999075 C23.55630693558255,26.939839475659788 24.432065753283098,26.21747222277034 25.476376929991176,26.21747222277034 C26.519796295275928,26.21747222277034 27.392879678706507,26.939839475659788 27.606022608880064,27.901212189999075 L37.24382866070262,27.901212189999075 L37.24382866070262,28.80372535039923 L27.606022608880064,28.80372535039923 C27.392879678706507,29.7642062533152 26.519796295275928,30.487465317627972 25.476376929991176,30.487465317627972 C24.432065753283098,30.487465317627972 23.55630693558255,29.7642062533152 23.345839439678965,28.80372535039923 L13.897989221023643,28.80372535039923 C13.686629913696732,29.7642062533152 12.81176290741951,30.487465317627972 11.768343542134755,30.487465317627972 zM10.50910581240648,28.35336058162247 C10.50910581240648,29.01954371484274 11.051327157785227,29.56354868306813 11.727320216662024,29.585843968651144 C12.402421464115491,29.56265687164481 12.942859186647597,29.01865190341942 12.942859186647597,28.35336058162247 C12.942859186647597,27.686285636978887 12.400637841268852,27.14049704590686 11.724644782392062,27.119985383170498 C11.050435346361908,27.141388857330178 10.50910581240648,27.68717744840221 10.50910581240648,28.35336058162247 zM24.217139200262903,28.35336058162247 C24.217139200262903,29.032920886192553 24.78076401980134,29.585843968651144 25.476376929991176,29.585843968651144 C26.17020621733437,29.585843968651144 26.73472284829613,29.032920886192553 26.73472284829613,28.35336058162247 C26.73472284829613,27.67201665420576 26.17020621733437,27.119985383170498 25.476376929991176,27.119985383170498 C24.78076401980134,27.119985383170498 24.217139200262903,27.67201665420576 24.217139200262903,28.35336058162247 z" style="fill: rgb(255, 255, 255);" stroke-width="0"/>
    </g>
  </g>
</svg>