<svg xmlns="http://www.w3.org/2000/svg" width="26" height="22"><rect id="backgroundrect" width="100%" height="100%" x="0" y="0" fill="none" stroke="none" style="" class=""/>
  
<g class="currentLayer" style=""><title>Layer 1</title><path d="M12.824078016125213,0 C11.159178760776626,0 9.53597728821478,0.31510822950115275 7.999562897357691,0.9365958089276275 C6.4082818371773556,1.5802899197486049 4.980864898314394,2.525670774239714 3.7569956248501057,3.7464984616220818 C2.532801521804231,4.967385208928366 1.5848020093462765,6.3914673291871305 0.9393065708457015,7.979145734008203 C0.3160471937017064,9.512223239163802 0,11.132008095126729 0,12.793452344925822 C0,14.455103304458635 0.3161020899009374,16.075021931149248 0.9394795868928438,17.608335676000536 C1.5849750253935326,19.19604361078357 2.532920822850542,20.619984873123784 3.756937746124663,21.840694440658304 C3.929865203366944,22.01314941850923 4.15617101984958,22.099312236817994 4.382488648316894,22.099312236817994 L4.384103641936576,22.099312236817994 C4.872913102273287,22.09875116754074 5.269021810723075,21.70240001810322 5.269021810723075,21.21341337799474 C5.269021810723075,20.95889463585482 5.161678036598687,20.729437086532158 4.9898136579870425,20.567849134682792 C2.9144774613457685,18.48864451302461 1.7718540017540363,15.728618054671799 1.7719130616778784,12.793221715922911 C1.7719425916399132,9.84961604774892 2.9212708290947376,7.08247286856356 5.008212300786681,5.001348799377929 C7.095832961603719,2.9188072920181867 9.871554299439026,1.7719130616779282 12.824078016125213,1.7719130616779282 C15.776601732811287,1.7719130616779282 18.552293540684673,2.9188072920181867 20.63994373146363,5.001348799377929 C22.726678493421787,7.082856758069049 23.87587033198247,9.850387075055721 23.87578174209648,12.794317277511652 C23.8756931522106,15.738189010642902 22.726278953036513,18.505364082187185 20.639367011306604,20.586074731905363 C20.465789894901036,20.759149838957462 20.37901905467561,20.98629844055442 20.37901905467561,21.21341337799474 C20.37901905467561,21.439731006462125 20.465125470757016,21.665978944219276 20.637521388684036,21.83890640146158 C20.982962883701134,22.185410975109306 21.543876833355966,22.186251102527095 21.890410936965623,21.840809607509954 L21.901138581546775,21.830081962928837 C21.90231978002521,21.828871234488453 21.903503636200185,21.827657848351482 21.90471436464054,21.826506179835008 C21.907726420760582,21.823494123715008 21.910670262668418,21.82052075184518 21.91371184875038,21.81750869572518 C21.915513176430068,21.815677838083616 21.917187229973592,21.814003784540056 21.919018087615086,21.812202456860447 L21.91919113319227,21.812029411283362 C21.921494470225184,21.809755899511998 21.923808733344003,21.80741181113155 21.92611207037703,21.80510847409861 C21.926259720186863,21.80493129432685 21.926195049570083,21.804997146142014 21.926342699379916,21.80481996637026 C21.928557446526952,21.80257568926124 21.930933722565896,21.800199708521873 21.933148469712933,21.798014491336772 C23.136642069424397,20.5870498112493 24.070046073353524,19.177899811555633 24.708099961439984,17.608854812731806 C25.33141839850805,16.075777307576203 25.647579459743042,14.455937525884028 25.647579459743042,12.794375156237095 C25.647638519666998,11.132783256628198 25.331647551012907,9.512863153439493 24.708388173868798,7.9795494085882055 C24.06301085521602,6.391723353957325 23.11517614947593,4.967531677539689 21.89121828612565,3.746556340347521 C20.66731948269944,2.5256991230031964 19.239904020334507,1.5802899197486049 17.64859343019225,0.9365958089276275 C16.112179039335047,0.31510822950115275 14.488977271473686,0 12.824078016125213,0 zM12.840227361722327,3.4213230841989883 C7.763731601045379,3.4213818488232945 3.633627121567997,7.575924143620881 3.633627121567997,12.682599525421647 C3.633627121567997,17.789274907222413 7.763702071083458,21.9438186785181 12.840227361722327,21.9438186785181 C17.916723122399162,21.9438186785181 22.0468273065768,17.789274907222413 22.0468273065768,12.682599525421647 C22.0468273065768,7.575894613658921 17.916782182323004,3.4213230841989883 12.840227361722327,3.4213230841989883 zM12.840284945148142,5.400291793576752 C16.84032500246883,5.400291793576752 20.09467770865183,8.667115297995444 20.09467770865183,12.682599525421647 C20.09467770865183,16.69805422288589 16.84032500246883,19.964849673840718 12.840284945148142,19.964849673840718 C8.840156297941462,19.964849673840718 5.5858345982185265,16.69805422288589 5.5858345982185265,12.682599525421647 C5.5858345982185265,8.667115297995444 8.840156297941462,5.400291793576752 12.840284945148142,5.400291793576752 zM10.286346910120983,8.07425288249527 C8.897198439562317,8.07425288249527 7.767014446916619,9.213882033474093 7.767014446916619,10.614694839007385 C7.767014446916619,12.015448584616749 8.897198439562317,13.15507891679405 10.286346910120983,13.15507891679405 C11.675495380679877,13.15507891679405 12.805621789899647,12.015478114578709 12.805621789899647,10.614694839007385 C12.805621789899647,9.213882033474093 11.675495380679877,8.07425288249527 10.286346910120983,8.07425288249527 z" style="fill: rgb(255, 255, 255);" stroke="none" id="svg_1" class=""/></g></svg>