<svg xmlns="http://www.w3.org/2000/svg" version="1.1" style="enable-background:new 0 0 289.723 289.723;" width="25" height="26"><rect id="backgroundrect" width="100%" height="100%" x="0" y="0" fill="none" stroke="none" style="" class=""/>
  
  
  
  
  
  
  
  
  
  
  
  
  
  
  
  
<g class="currentLayer" style=""><title>Layer 1</title><g id="svg_1" class="">
    <path d="M11.100500884410327,7.381194518951281 L12.715216207933013,7.74676396319042 C11.686657457311039,8.775322713812395 3.775517166648392,16.68646300447504 2.705033705290739,17.756946465832694 L2.705033705290739,11.13117570619802 C2.705033705290739,10.587908638631507 3.0472726619656725,10.084987527003094 3.5714192547615213,9.894572156695231 L10.360766553145234,7.4276800768799625 C10.59784289858151,7.341725649011834 10.854565970387643,7.325499558036728 11.100500884410327,7.381194518951281 zM23.020187314723017,11.13117570619802 L23.020187314723017,22.327792439220055 C23.020187314723017,22.901494390939874 22.648390559893436,23.409064058361157 22.101439731132572,23.582200834495527 L14.864690864835268,25.87165841678302 C14.651997510161582,25.939018621479672 14.416850753922349,25.952788871658548 14.186264844876114,25.902444135335788 L7.244304582726542,24.38113847066979 C7.640133493919258,23.985397268076937 21.478270129088642,10.147172924307688 21.817702410567883,9.807828351428315 C22.551560265641996,9.973948439573451 23.020187314723017,10.38179342894773 23.020187314723017,11.13117570619802 zM0.5203001912425799,6.244754190494819 C0.32716585433888873,6.2366849993072 0.16016868019509742,6.147573061843916 0.069477987934236,5.999959488270386 C-0.02103728712689453,5.8523459146968575 -0.02393167092245394,5.661930544388993 0.06561880954015681,5.484583755461081 C0.6215159154872936,4.3827006153516015 1.2738924812864107,3.299148572613998 2.0223976725380464,2.2483118376262032 C2.170800623510365,2.0393022441468673 2.4387503960992736,1.9001964047602853 2.7057353740896626,1.893530551170512 C2.9728957692797824,1.8866015717811426 3.1899745539467377,2.012463412588044 3.2670704132284567,2.211825060082181 C3.3476746165047926,2.4189927729643426 3.4281911111812633,2.6261604858465035 3.5087953144575996,2.833328198728665 C6.4785207973014165,1.681451156695887 9.668131740007881,1.0788930756203374 12.853708087120538,1.0788930756203374 C14.820661147702817,1.0788930756203374 16.789192963082677,1.3086896072677814 18.706590664740986,1.7554772149823148 L16.457128203992134,4.0049396757311655 C12.44156537635285,3.37887568989168 8.285668788928872,3.804700942238375 4.4625386293943565,5.285923776765867 C4.5426165810715,5.4918635692499125 4.6226945327486435,5.697715653134092 4.702772484425788,5.903567737018271 C4.779956052307371,6.103104801712139 4.728997355785554,6.331673412961467 4.576033557620232,6.495513077510102 C4.422718925055448,6.6592650334588726 4.192396141808812,6.731624628347858 3.9745279797430673,6.6847005274198485 C2.877205686826591,6.446483970185324 1.7222588437985225,6.295011218217715 0.5203001912425799,6.244754190494819 zM25.025907576445817,2.8784104190594992 L2.5599636811133073,25.344266605792146 C2.0461667031015796,25.858063583803872 1.213110421579663,25.857975875204012 0.6994011521678015,25.344266605792146 C0.185604174156074,24.830469627780424 0.185604174156074,23.997501054858372 0.6994011521678015,23.483704076846642 L23.165345047500317,1.0178478901139933 C23.679142025512043,0.5040509121022659 24.51211059843409,0.5040509121022659 25.025907576445817,1.0178478901139933 C25.539616845857687,1.5316448681257206 25.539616845857687,2.364613441047772 25.025907576445817,2.8784104190594992 z" fill="#FFFFFF" id="svg_2"/>
  </g><g id="svg_3" class=""/><g id="svg_4" class=""/><g id="svg_5" class=""/><g id="svg_6" class=""/><g id="svg_7" class=""/><g id="svg_8" class=""/><g id="svg_9" class=""/><g id="svg_10" class=""/><g id="svg_11" class=""/><g id="svg_12" class=""/><g id="svg_13" class=""/><g id="svg_14" class=""/><g id="svg_15" class=""/><g id="svg_16" class=""/><g id="svg_17" class=""/></g></svg>