<svg xmlns="http://www.w3.org/2000/svg" version="1.1" width="33" height="30" style="enable-background:new 0 0 359.7 359.699;"><rect id="backgroundrect" width="100%" height="100%" x="0" y="0" fill="none" stroke="none" style="" class=""/>
  
  
  
  
  
  
  
  
  
  
  
  
  
  
  
  
<g class="currentLayer" style=""><title>Layer 1</title><g id="svg_1" class="">
    <g id="svg_2">
      <g id="svg_3"/>
      <g id="svg_4"/>
      <g id="svg_5"/>
      <g id="svg_6"/>
      <g id="svg_7"/>
      <g id="svg_8">
        <path d="M4.116181052622061,3.780118392643501 C4.166350703251906,3.6561153832947255 4.2486934462484385,3.575447643128181 4.344788276219649,3.5515186804488077 C4.369575988544379,3.54559811236319 4.390883234412555,3.542391137983481 4.413378932241503,3.542391137983481 C4.6282340688644155,3.542391137983481 4.8596426435124025,3.781598534664906 4.941476049954317,4.087001171748032 C4.992239926564551,4.273170145995795 4.98578833020606,4.458599049232857 4.923394602265388,4.60792893317011 C4.873224951635542,4.730122880048281 4.7906275403617,4.811612921337828 4.693514037281252,4.836281955027903 C4.471273520616385,4.889402607573863 4.187827727971621,4.636051631576795 4.098099604933129,4.30079946372868 C4.047845064877512,4.114877179817816 4.053702435255617,3.9287082055700515 4.116181052622061,3.780118392643501 zM11.11183374087078,17.4074570632654 C11.164889631976793,17.78571557984655 11.25334441362874,18.17285494855612 11.340440964468375,18.546179658399254 L11.343496983796081,18.563447981982307 C11.712086870487772,20.15394281409373 12.001050475807567,21.40860986757093 9.989935089899467,22.150736631080676 L9.600207736191132,22.325557849831004 C9.465912664623593,22.342332792740258 9.33229670846221,22.351707025542492 9.201312324499684,22.351707025542492 C5.893595849386389,22.349733502847283 3.866096804304754,17.210515944306305 3.752429863199233,14.570024808233002 C3.5742469585087964,9.080013590619163 4.94775786746127,5.952720189728386 7.829074756933757,5.279666720550845 C8.32533833998296,5.1821418073627505 9.284928408882761,5.069815473960611 10.356912077501537,5.069815473960611 C11.649862921398642,5.069815473960611 13.973795841267796,5.242416479678833 15.006305926903698,6.391582299074816 C15.447730940905732,6.882660529731903 15.615472446226505,7.521095121631038 15.505880197557918,8.288137609167764 C15.281857002951892,9.853141106466106 14.358939165984566,10.910867040984215 13.381776985950458,12.030265559727505 C12.153511884489804,13.439114073767675 10.883735853827806,14.891791237663876 11.11183374087078,17.4074570632654 zM15.405965343427077,4.548641022201631 C15.265812901481432,4.548641022201631 15.12888625771503,4.52545213053296 15.000957893080214,4.48244578179993 C14.589583735800629,4.3407632983066 14.277615096097268,3.9869271250786276 14.121927889235783,3.4853234400471074 C13.957497071520026,2.9527190026783936 13.988396822500171,2.3289213707687035 14.209024440075414,1.725763497046375 C14.580925014372122,0.7095637692398955 15.402909324099369,1.3020104416838763e-7 16.20978331603962,1.3020104416838763e-7 C16.349681089707953,1.3020104416838763e-7 16.485589060365122,0.023682402543515946 16.61496054523802,0.0661953706027445 C17.49662212128131,0.3700356355521663 17.85137503157256,1.606447604098714 17.40663932996551,2.8233710360301014 C17.035587649926498,3.838584002488979 16.21360334019925,4.548641022201631 15.405965343427077,4.548641022201631 zM11.011409550185318,1.8575783670636743 C11.140865924483991,1.309021287908712 11.53823332651159,0.8959794338245606 11.934327387152644,0.8959794338245606 C11.974055638412825,0.8959794338245606 12.013104774266852,0.9006665502256744 12.051814352417795,0.9090540216802997 C12.479741947722461,1.0053454831838917 12.7079247241912,1.5844921641145475 12.561830022441681,2.2029448387247212 C12.42295092188258,2.7945082666127146 11.93585539681649,3.2470205746009855 11.521425220209204,3.1514691841080964 C11.094006961459158,3.0554244129414045 10.865399737861571,2.4760310416738487 11.011409550185318,1.8575783670636743 zM8.39545700566867,2.251625065206469 C8.380176909030137,1.9906266887654784 8.439769285920411,1.7445119626508319 8.564471852375986,1.5583429884030675 C8.673045427935332,1.3928960024549664 8.815489884376756,1.3049920124059997 8.987815418689085,1.2943843279192677 C9.312517472257886,1.295864469940672 9.612262034650419,1.701505613917802 9.64129421826363,2.1792625663822496 C9.658102324566016,2.440260942823241 9.598509947675742,2.6863756689378864 9.473807381220169,2.8725446431856514 C9.367271151879295,3.033304512732637 9.225336031992489,3.1263067697442195 9.078222657133734,3.1349409315357466 L9.051991824570921,3.136503303669451 C8.721177732346705,3.1369144542309524 8.425762530668425,2.7399074720453482 8.39545700566867,2.251625065206469 zM5.972373236500599,2.2782676215917497 C6.047075931177864,2.101472880146213 6.168637588879963,1.9834726689953563 6.315496295461408,1.9452356667757402 C6.3488578397888675,1.9375882663318174 6.383747393780183,1.9336412209414051 6.418721837197267,1.9336412209414051 C6.727634457572919,1.9336412209414051 7.04775248215016,2.253598587901675 7.1637114377514655,2.6797150298415664 C7.242488824865674,2.9720430790689516 7.2137113095297725,3.2744032019969684 7.084170045805329,3.4867213519562124 C7.034255063452791,3.572158438636171 6.941131363383517,3.681524487995503 6.793338873118607,3.718281348193714 C6.76125067017769,3.7274088906590412 6.728058904701768,3.7298757940280485 6.692660014155837,3.7298757940280485 C6.38680341310789,3.7298757940280485 6.059554676765999,3.403751168645261 5.94690640876971,2.9867622691706965 C5.877806416193241,2.73398690395973 5.888757152117522,2.48318506144397 5.972373236500599,2.2782676215917497 zM27.168498846343113,29.57808929448839 C27.03590156329097,29.57808929448839 26.90186116000073,29.56920844235996 26.76883942981973,29.55284465001221 L26.36315286406672,29.371116101828658 C24.367996690203306,28.63540328707833 24.658573194612718,27.37974947225352 25.0286062015425,25.775028830714163 C25.115278305253288,25.402279731657128 25.20347841862792,25.01456475216146 25.257468093417398,24.623478338061474 C25.485735759311908,22.12014702930498 24.216044618075685,20.665907493275075 22.987100401208874,19.258703581480916 C22.009343995194374,18.138811682063817 21.087275052484753,17.082565889567118 20.86393097328488,15.516328940584271 C20.7543387246163,14.749533143384447 20.92208022993707,14.111016321373013 21.363505243939098,13.619526940154422 C22.39626999785231,12.470772271319941 24.719693581166844,12.29940471728622 26.012899093341257,12.29940471728622 C27.08641077162389,12.29940471728622 28.04277504234445,12.410004218330055 28.53105901937131,12.505555608822949 C31.419761288885738,13.179595839348087 32.795054875779385,16.306889240238867 32.61670219223741,21.796160386842 C32.504563260795734,24.43689821325221 30.476215321456408,29.57808929448839 27.168498846343113,29.57808929448839 zM24.435314004838613,8.123841844791867 C24.8324267385889,8.123841844791867 25.229030135784573,8.536801468763718 25.360014519747104,9.083960636009575 C25.505769663793536,9.701919929945948 25.276398435364023,10.283369054021012 24.848216171782052,10.377358072380195 C24.812053276404196,10.386485614845522 24.773768145382096,10.390432660235934 24.735567903785768,10.390432660235934 C24.342529862472418,10.390432660235934 23.93472106107516,9.968756644360258 23.808320706104194,9.428833726996823 C23.661122441819668,8.810381052386646 23.890408780823414,8.231234371455992 24.319185270385777,8.1349429099524 C24.35373526667401,8.128528961192979 24.394057743914576,8.123841844791867 24.435314004838613,8.123841844791867 zM26.728686731430702,9.405644835328152 C26.75873758815315,8.911606320628255 27.058991487100304,8.523315730346477 27.410688378063842,8.521835588325072 C27.55848086832875,8.532443272811808 27.700161319938257,8.625034379261884 27.806697549279125,8.785712018696573 C27.93012677434816,8.970400850922932 27.989719151238432,9.216515577037578 27.973929718045273,9.477513953478569 C27.943369524768215,9.965385209755945 27.64982189045686,10.362392191941549 27.3194322453615,10.362392191941549 L27.293456081076002,10.362392191941549 C27.14405069172146,10.353264649476223 27.001776014131572,10.258700020330936 26.895324674216475,10.09843353145775 C26.772404785702058,9.913251318557588 26.71179373570255,9.668616734464347 26.728686731430702,9.405644835328152 zM29.207542853329414,10.283369054021012 C29.321719130989557,9.858732754102522 29.639799809348332,9.53729524512085 29.950749775942455,9.53729524512085 C29.985384661656457,9.53729524512085 30.019085763686995,9.541735671185062 30.053720649400997,9.550369832976589 C30.200070019427827,9.5871266931748 30.323923691625705,9.704880213988757 30.39624948238142,9.883401787792598 C30.48037490331912,10.088319227644819 30.48996740843109,10.33920330027288 30.4223105360927,10.58975845245174 C30.29786263791443,11.05468750739735 29.89981612048068,11.404001024448807 29.575538514040726,11.323004363833062 C29.428255360330432,11.284520671276544 29.334961881409622,11.175401312254115 29.283518889393232,11.089964225574157 C29.156014971887252,10.878057226176413 29.128510797937896,10.5770950151575 29.207542853329414,10.283369054021012 zM31.427910673759634,11.69213533794888 C31.509489411924235,11.386732700865753 31.742935332790687,11.14744307407203 31.957535801136302,11.14744307407203 C31.98054083551986,11.14744307407203 32.00184808138804,11.148923216093436 32.023240216681984,11.155090474515953 C32.121117724594356,11.18049957921673 32.20269646275897,11.261249549495574 32.25320567109189,11.383690186710647 C32.31492028362641,11.535815894466108 32.32154165883644,11.719929115906366 32.27103245050351,11.905851399817228 C32.19047238544814,12.20977389487895 31.956007791472445,12.448981291560374 31.738351303799135,12.448981291560374 C31.71695916850519,12.448981291560374 31.69607636976587,12.446021007517563 31.676212244135776,12.441333891116452 C31.57884407277801,12.416582627314076 31.496246661504173,12.335174816136831 31.446841015706255,12.212980869258658 C31.38359839350788,12.062664223973803 31.376977018297858,11.878222082084344 31.427910673759634,11.69213533794888 zM20.159009181693943,7.226875779820747 C20.965968063059965,7.226875779820747 21.788122151638746,7.936439418859599 22.16027739421276,8.95313252733988 C22.381074790639552,9.556290401062208 22.412144320471235,10.180170263084198 22.24694949792355,10.711705708993009 C22.09100762278475,11.21339162413683 21.779038983081396,11.567145567252501 21.36774971522758,11.708910280858131 C21.238293340928905,11.752821160826464 21.101112028885197,11.775105521259832 20.96248759660341,11.775105521259832 C20.155528715237388,11.775105521259832 19.33379907378745,11.065788572557882 18.961813610064972,10.050328915762105 C18.517332576735235,8.83167865147241 18.872000597600714,7.596006753936567 19.754426178475928,7.293071020222447 C19.88328832679421,7.249077910141816 20.018856739748298,7.226875779820747 20.159009181693943,7.226875779820747 z" style="fill: rgb(255, 255, 255);" id="svg_9"/>
      </g>
      <g id="svg_10"/>
      <g id="svg_11"/>
      <g id="svg_12"/>
      <g id="svg_13"/>
      <g id="svg_14"/>
      <g id="svg_15"/>
    </g>
  </g><g id="svg_16" class=""/><g id="svg_17" class=""/><g id="svg_18" class=""/><g id="svg_19" class=""/><g id="svg_20" class=""/><g id="svg_21" class=""/><g id="svg_22" class=""/><g id="svg_23" class=""/><g id="svg_24" class=""/><g id="svg_25" class=""/><g id="svg_26" class=""/><g id="svg_27" class=""/><g id="svg_28" class=""/><g id="svg_29" class=""/><g id="svg_30" class=""/></g></svg>