<svg xmlns="http://www.w3.org/2000/svg" version="1.1" style="display: block;" width="35" height="25"><rect id="backgroundrect" width="100%" height="100%" x="0" y="0" fill="none" stroke="none"/>
  
<g class="currentLayer" style=""><title>Layer 1</title><g id="svgg" class="">
    <path id="path0" d="M8.542005859374996,0.034994995117187955 C8.542005859374996,0.05299499511718864 8.502005859375004,0.07099499511718932 8.456005859375011,0.07099499511718932 C8.405005859374995,0.07099499511718932 8.365005859375003,0.08599499511717568 8.365005859375003,0.10599499511718591 C8.365005859375003,0.12399499511718659 8.342005859375007,0.13999499511717772 8.314005859374987,0.13999499511717772 C8.25500585937499,0.13999499511717772 8.12400585937499,0.2619949951171918 8.12400585937499,0.31699499511719864 C8.12400585937499,0.3349949951171993 8.107005859374993,0.35099499511719046 8.088005859374988,0.35099499511719046 C8.066005859374997,0.35099499511719046 8.053005859374991,0.38199499511719637 8.053005859374991,0.4189949951171741 C8.053005859374991,0.45899499511719455 8.036005859374995,0.4889949951171957 8.01700585937499,0.4889949951171957 C7.994005859374994,0.4889949951171957 7.981005859374989,4.502994995117177 7.981005859374989,12.46199499511718 C7.981005859374989,20.420994995117184 7.994005859374994,24.434994995117194 8.01700585937499,24.434994995117194 C8.036005859374995,24.434994995117194 8.053005859374991,24.46199499511718 8.053005859374991,24.4959949951172 C8.053005859374991,24.597994995117176 8.268005859374995,24.8169949951172 8.394005859375,24.84299499511718 C8.458005859374992,24.853994995117176 8.516005859375014,24.877994995117177 8.528005859375014,24.893994995117197 C8.55100585937501,24.932994995117184 8.951005859374987,24.932994995117184 8.975005859374988,24.893994995117197 C8.987005859374989,24.877994995117177 9.050005859375005,24.851994995117195 9.118005859374989,24.83899499511719 C9.244005859374994,24.8169949951172 9.431005859375006,24.636994995117192 9.490005859375003,24.482994995117195 C9.534005859374986,24.36299499511719 9.534005859374986,0.5599949951171936 9.487005859374989,0.4399949951171891 C9.442005859375001,0.31999499511718454 9.265005859375009,0.13999499511717772 9.195005859374987,0.13999499511717772 C9.162005859375,0.13999499511717772 9.13600585937499,0.12399499511718659 9.13600585937499,0.10599499511718591 C9.13600585937499,0.08599499511717568 9.105005859375012,0.07099499511718932 9.068005859375006,0.07099499511718932 C9.031005859375,0.07099499511718932 8.991005859375008,0.05299499511718864 8.979005859375008,0.034994995117187955 C8.968005859375012,0.016994995117187273 8.865005859375003,-0.0000050048828086346475 8.750005859374994,-0.0000050048828086346475 C8.63600585937499,-0.0000050048828086346475 8.542005859374996,0.016994995117187273 8.542005859374996,0.034994995117187955 M25.906005859375,1.5409949951171882 C25.906005859375,1.5589949951171889 25.881005859374994,1.5759949951171848 25.85000585937499,1.5759949951171848 C25.823005859375,1.5759949951171848 25.799005859375,1.591994995117176 25.799005859375,1.6109949951171814 C25.799005859375,1.628994995117182 25.78300585937501,1.645994995117178 25.763005859375,1.645994995117178 C25.713005859374988,1.645994995117178 25.62400585937499,1.7339949951172002 25.62400585937499,1.7829949951171784 C25.62400585937499,1.8029949951171886 25.610005859375008,1.8209949951171893 25.589005859374993,1.8209949951171893 C25.571005859374992,1.8209949951171893 25.554005859374996,1.8509949951171905 25.554005859374996,1.892994995117192 C25.554005859374996,1.9289949951171934 25.53900585937501,1.9589949951171945 25.520005859375004,1.9589949951171945 C25.496005859375003,1.9589949951171945 25.484005859375003,5.484994995117177 25.484005859375003,12.46199499511718 C25.484005859375003,19.438994995117184 25.496005859375003,22.9659949951172 25.520005859375004,22.9659949951172 C25.53900585937501,22.9659949951172 25.554005859374996,22.994994995117196 25.554005859374996,23.034994995117188 C25.554005859374996,23.0729949951172 25.571005859374992,23.1029949951172 25.589005859374993,23.1029949951172 C25.610005859375008,23.1029949951172 25.62400585937499,23.1209949951172 25.62400585937499,23.141994995117187 C25.62400585937499,23.162994995117174 25.650005859375,23.20599499511718 25.683005859374987,23.2399949951172 C25.912005859375,23.470994995117195 26.485005859375008,23.508994995117177 26.747005859375008,23.303994995117193 C27.05700585937501,23.06899499511718 27.026005859375005,24.311994995117175 27.016005859375014,12.424994995117174 L27.007005859375,1.902994995117183 L26.909005859374986,1.7739949951171923 C26.85600585937499,1.7049949951171754 26.79700585937499,1.645994995117178 26.775005859375,1.645994995117178 C26.757005859375,1.645994995117178 26.707005859374988,1.6119949951171861 26.665005859374986,1.5759949951171848 C26.584005859374997,1.4989949951171866 25.906005859375,1.466994995117176 25.906005859375,1.5409949951171882 M4.062005859375006,2.9749949951171857 C4.062005859375006,2.9929949951171864 4.037005859375,3.010994995117187 4.008005859375004,3.010994995117187 C3.940005859374992,3.010994995117187 3.6760058593750102,3.2739949951171923 3.6760058593750102,3.3429949951171807 C3.6760058593750102,3.372994995117182 3.6600058593749907,3.3969949951171827 3.640005859375009,3.3969949951171827 C3.6170058593750127,3.3969949951171827 3.6050058593750123,6.441994995117199 3.6050058593750123,12.46199499511718 C3.6050058593750123,18.482994995117195 3.6170058593750127,21.526994995117178 3.640005859375009,21.526994995117178 C3.6600058593749907,21.526994995117178 3.6760058593750102,21.553994995117193 3.6760058593750102,21.58099499511718 C3.6760058593750102,21.607994995117195 3.7450058593749986,21.708994995117195 3.8320058593749877,21.799994995117174 L3.9880058593749936,21.9659949951172 L4.374005859374989,21.9659949951172 L4.7620058593749945,21.9659949951172 L4.943005859375006,21.78299499511718 L5.128005859375008,21.597994995117176 L5.128005859375008,12.46199499511718 L5.128005859375008,3.322994995117199 L4.962005859375012,3.1679949951171977 C4.871005859375003,3.0799949951171754 4.772005859375014,3.010994995117187 4.742005859375013,3.010994995117187 C4.714005859374993,3.010994995117187 4.690005859374992,2.9929949951171864 4.690005859374992,2.9749949951171857 C4.690005859374992,2.953994995117199 4.562005859375006,2.939994995117189 4.374005859374989,2.939994995117189 C4.190005859374992,2.939994995117189 4.062005859375006,2.953994995117199 4.062005859375006,2.9749949951171857 M12.916005859374991,4.409994995117188 C12.916005859374991,4.4309949951171745 12.879005859375013,4.4449949951171845 12.830005859375007,4.4449949951171845 C12.784005859374986,4.4449949951171845 12.744005859374994,4.4619949951171805 12.744005859374994,4.480994995117186 C12.744005859374994,4.498994995117187 12.719005859374988,4.5159949951171825 12.690005859374992,4.5159949951171825 C12.631005859374994,4.5159949951171825 12.497005859375008,4.636994995117192 12.497005859375008,4.689994995117189 C12.497005859375008,4.7089949951171945 12.480005859375012,4.7259949951171905 12.462005859375012,4.7259949951171905 C12.444005859375011,4.7259949951171905 12.427005859374987,4.756994995117196 12.427005859374987,4.795994995117184 C12.427005859374987,4.8339949951171945 12.411005859374995,4.866994995117182 12.393005859374995,4.866994995117182 C12.368005859374989,4.866994995117182 12.356005859374989,7.421994995117188 12.356005859374989,12.46199499511718 C12.356005859374989,17.503994995117182 12.368005859374989,20.05699499511718 12.393005859374995,20.05699499511718 C12.411005859374995,20.05699499511718 12.427005859374987,20.085994995117176 12.427005859374987,20.1209949951172 C12.427005859374987,20.22399499511718 12.64200585937499,20.440994995117194 12.768005859374995,20.4659949951172 C12.831005859375011,20.47599499511719 12.89200585937499,20.5019949951172 12.90200585937501,20.518994995117197 C12.928005859374991,20.55899499511719 13.328005859374997,20.55899499511719 13.352005859374998,20.516994995117187 C13.364005859374998,20.500994995117196 13.427005859374987,20.47599499511719 13.491005859375008,20.4659949951172 C13.619005859374994,20.43999499511719 13.805005859375001,20.260994995117187 13.864005859374998,20.103994995117176 C13.911005859374995,19.986994995117186 13.90800585937501,4.934994995117194 13.864005859374998,4.816994995117199 C13.817005859375001,4.696994995117194 13.64200585937499,4.5159949951171825 13.570005859374987,4.5159949951171825 C13.53900585937501,4.5159949951171825 13.513005859375,4.498994995117187 13.513005859375,4.480994995117186 C13.513005859375,4.4619949951171805 13.482005859374993,4.4449949951171845 13.446005859374992,4.4449949951171845 C13.406005859375,4.4449949951171845 13.368005859374989,4.4309949951171745 13.354005859375008,4.409994995117188 C13.343005859375012,4.3909949951171825 13.240005859375003,4.373994995117187 13.125005859374994,4.373994995117187 C13.010005859375013,4.373994995117187 12.916005859374991,4.3909949951171825 12.916005859374991,4.409994995117188 M21.668005859375,4.409994995117188 C21.668005859375,4.4309949951171745 21.629005859375013,4.4449949951171845 21.58100585937501,4.4449949951171845 C21.532005859375005,4.4449949951171845 21.495005859375,4.4619949951171805 21.495005859375,4.480994995117186 C21.495005859375,4.498994995117187 21.469005859374988,4.5159949951171825 21.441005859374997,4.5159949951171825 C21.383005859375004,4.5159949951171825 21.24900585937499,4.636994995117192 21.24900585937499,4.689994995117189 C21.24900585937499,4.7089949951171945 21.23100585937499,4.7259949951171905 21.213005859374988,4.7259949951171905 C21.195005859374987,4.7259949951171905 21.179005859374996,4.756994995117196 21.179005859374996,4.795994995117184 C21.179005859374996,4.8339949951171945 21.162005859375,4.866994995117182 21.144005859375,4.866994995117182 C21.121005859375003,4.866994995117182 21.108005859374998,7.421994995117188 21.108005859374998,12.46199499511718 C21.108005859374998,17.503994995117182 21.121005859375003,20.05699499511718 21.144005859375,20.05699499511718 C21.162005859375,20.05699499511718 21.179005859374996,20.085994995117176 21.179005859374996,20.1209949951172 C21.179005859374996,20.22399499511718 21.395005859375004,20.440994995117194 21.52100585937501,20.4659949951172 C21.584005859374997,20.47599499511719 21.64600585937501,20.5019949951172 21.655005859374995,20.518994995117197 C21.680005859375,20.55899499511719 22.08100585937501,20.55899499511719 22.104005859375008,20.516994995117187 C22.115005859375003,20.500994995117196 22.177005859374987,20.47599499511719 22.244005859374994,20.4659949951172 C22.370005859375,20.43999499511719 22.558005859374987,20.260994995117187 22.617005859375013,20.103994995117176 C22.661005859374995,19.986994995117186 22.661005859374995,4.934994995117194 22.617005859375013,4.816994995117199 C22.56900585937501,4.696994995117194 22.393005859374995,4.5159949951171825 22.321005859374992,4.5159949951171825 C22.290005859374986,4.5159949951171825 22.266005859375014,4.498994995117187 22.266005859375014,4.480994995117186 C22.266005859375014,4.4619949951171805 22.232005859374993,4.4449949951171845 22.198005859375,4.4449949951171845 C22.16000585937499,4.4449949951171845 22.11800585937499,4.4309949951171745 22.105005859375012,4.409994995117188 C22.095005859374993,4.3909949951171825 21.992005859375013,4.373994995117187 21.877005859375004,4.373994995117187 C21.76100585937499,4.373994995117187 21.668005859375,4.3909949951171825 21.668005859375,4.409994995117188 M30.42000585937501,4.409994995117188 C30.42000585937501,4.4309949951171745 30.38000585937499,4.4449949951171845 30.333005859374992,4.4449949951171845 C30.28500585937499,4.4449949951171845 30.244005859374994,4.4619949951171805 30.244005859374994,4.480994995117186 C30.244005859374994,4.498994995117187 30.221005859374998,4.5159949951171825 30.19400585937501,4.5159949951171825 C30.135005859375013,4.5159949951171825 30.002005859375004,4.636994995117192 30.002005859375004,4.689994995117189 C30.002005859375004,4.7089949951171945 29.985005859375008,4.7259949951171905 29.967005859375007,4.7259949951171905 C29.946005859374992,4.7259949951171905 29.930005859375,4.756994995117196 29.930005859375,4.795994995117184 C29.930005859375,4.8339949951171945 29.913005859375005,4.866994995117182 29.895005859375004,4.866994995117182 C29.873005859375013,4.866994995117182 29.861005859375013,7.421994995117188 29.861005859375013,12.46199499511718 C29.861005859375013,17.503994995117182 29.873005859375013,20.05699499511718 29.895005859375004,20.05699499511718 C29.913005859375005,20.05699499511718 29.930005859375,20.085994995117176 29.930005859375,20.1209949951172 C29.930005859375,20.22399499511718 30.14800585937499,20.440994995117194 30.272005859375014,20.4659949951172 C30.33700585937501,20.47599499511719 30.395005859375004,20.5019949951172 30.406005859375,20.518994995117197 C30.431005859375006,20.55899499511719 30.829005859375002,20.55899499511719 30.855005859375012,20.516994995117187 C30.86800585937499,20.500994995117196 30.92800585937499,20.47599499511719 30.997005859375008,20.4659949951172 C31.123005859375013,20.43999499511719 31.30900585937499,20.260994995117187 31.369005859374994,20.103994995117176 C31.412005859375,19.986994995117186 31.412005859375,4.934994995117194 31.366005859375008,4.816994995117199 C31.322005859374997,4.696994995117194 31.143005859374995,4.5159949951171825 31.074005859375006,4.5159949951171825 C31.040005859374986,4.5159949951171825 31.01500585937501,4.498994995117187 31.01500585937501,4.480994995117186 C31.01500585937501,4.4619949951171805 30.984005859375003,4.4449949951171845 30.947005859374997,4.4449949951171845 C30.91000585937499,4.4449949951171845 30.869005859374994,4.4309949951171745 30.859005859375003,4.409994995117188 C30.846005859374998,4.3909949951171825 30.74300585937499,4.373994995117187 30.629005859375013,4.373994995117187 C30.513005859375,4.373994995117187 30.42000585937501,4.3909949951171825 30.42000585937501,4.409994995117188 M0.0000058593749940882844,12.466994995117176 L0.0000058593749940882844,17.61699499511718 L0.19600585937499204,17.60099499511719 C0.3740058593749893,17.585994995117176 0.40400585937499045,17.569994995117185 0.571005859374992,17.403994995117188 L0.7540058593750132,17.22399499511718 L0.7540058593750132,12.46199499511718 L0.7540058593750132,7.7019949951171895 L0.588005859374988,7.544994995117179 C0.4970058593750082,7.456994995117185 0.3950058593750043,7.387994995117197 0.3680058593749891,7.387994995117197 C0.3400058593749975,7.387994995117197 0.31700585937500136,7.370994995117201 0.31700585937500136,7.3529949951172 C0.31700585937500136,7.33099499511718 0.24300585937498909,7.317994995117175 0.156005859375,7.317994995117175 L0.0000058593749940882844,7.317994995117175 L0.0000058593749940882844,12.466994995117176 M17.189005859374987,7.3529949951172 C17.189005859374987,7.370994995117201 17.16400585937501,7.387994995117197 17.137005859374995,7.387994995117197 C17.107005859374993,7.387994995117197 17.020005859375004,7.447994995117199 16.943005859375006,7.524994995117197 C16.865005859375003,7.6029949951172 16.804005859374996,7.689994995117189 16.804005859374996,7.71999499511719 C16.804005859374996,7.747994995117182 16.788005859375005,7.771994995117183 16.770005859375004,7.771994995117183 C16.745005859375,7.771994995117183 16.735005859375008,9.3589949951172 16.735005859375008,12.46199499511718 C16.735005859375008,15.564994995117189 16.745005859375,17.151994995117178 16.770005859375004,17.151994995117178 C16.788005859375005,17.151994995117178 16.804005859374996,17.17599499511718 16.804005859374996,17.206994995117185 C16.804005859374996,17.234994995117177 16.875005859374994,17.33299499511719 16.961005859375007,17.423994995117198 L17.117005859375013,17.591994995117176 L17.502005859375004,17.591994995117176 L17.888005859375,17.591994995117176 L18.072005859374997,17.404994995117193 L18.256005859374994,17.22399499511718 L18.256005859374994,12.46199499511718 L18.256005859374994,7.7019949951171895 L18.090005859374997,7.544994995117179 C17.998005859375013,7.456994995117185 17.900005859375,7.387994995117197 17.871005859375003,7.387994995117197 C17.841005859375002,7.387994995117197 17.818005859375006,7.370994995117201 17.818005859375006,7.3529949951172 C17.818005859375006,7.33099499511718 17.689005859374987,7.317994995117175 17.504005859375013,7.317994995117175 C17.318005859375006,7.317994995117175 17.189005859374987,7.33099499511718 17.189005859374987,7.3529949951172 M34.692005859375,7.3529949951172 C34.692005859375,7.370994995117201 34.669005859375005,7.387994995117197 34.639005859375004,7.387994995117197 C34.609005859375,7.387994995117197 34.52300585937499,7.447994995117199 34.44600585937499,7.524994995117197 C34.369005859374994,7.6029949951172 34.306005859375006,7.689994995117189 34.306005859375006,7.71999499511719 C34.306005859375006,7.747994995117182 34.290005859374986,7.771994995117183 34.27100585937501,7.771994995117183 C34.24800585937501,7.771994995117183 34.23600585937501,9.3589949951172 34.23600585937501,12.46199499511718 C34.23600585937501,15.564994995117189 34.24800585937501,17.151994995117178 34.27100585937501,17.151994995117178 C34.290005859374986,17.151994995117178 34.306005859375006,17.17599499511718 34.306005859375006,17.206994995117185 C34.306005859375006,17.3469949951172 34.608005859375,17.583994995117195 34.810005859374996,17.60099499511719 L35.00400585937501,17.61699499511718 L35.00400585937501,12.466994995117176 L35.00400585937501,7.317994995117175 L34.84900585937501,7.317994995117175 C34.763005859375,7.317994995117175 34.692005859375,7.33099499511718 34.692005859375,7.3529949951172 " stroke="none" fill-rule="evenodd" style="fill: rgb(255, 255, 255);"/>
  </g></g></svg>